<svg xmlns="http://www.w3.org/2000/svg" xmlns:xlink="http://www.w3.org/1999/xlink" width="127" zoomAndPan="magnify" viewBox="0 0 95.25 30.000001" height="40" preserveAspectRatio="xMidYMid meet" version="1.0"><defs><g/><clipPath id="id1"><path d="M 1.171875 0 L 93.351562 0 L 93.351562 29.03125 L 1.171875 29.03125 Z M 1.171875 0 " clip-rule="nonzero"/></clipPath><clipPath id="id2"><path d="M 30 18 L 93.351562 18 L 93.351562 23 L 30 23 Z M 30 18 " clip-rule="nonzero"/></clipPath><clipPath id="id3"><path d="M 1.171875 3.628906 L 24 3.628906 L 24 25.402344 L 1.171875 25.402344 Z M 1.171875 3.628906 " clip-rule="nonzero"/></clipPath><clipPath id="id4"><path d="M 7.261719 11.582031 L 17.421875 11.582031 L 17.421875 20.292969 L 7.261719 20.292969 Z M 7.261719 11.582031 " clip-rule="nonzero"/></clipPath></defs><g clip-path="url(#id1)"><path fill="#ffffff" d="M 1.171875 0 L 94.078125 0 L 94.078125 36.289062 L 1.171875 36.289062 Z M 1.171875 0 " fill-opacity="1" fill-rule="nonzero"/><path fill="#ffffff" d="M 1.171875 0 L 93.351562 0 L 93.351562 29.03125 L 1.171875 29.03125 Z M 1.171875 0 " fill-opacity="1" fill-rule="nonzero"/><path fill="#ffffff" d="M 1.171875 0 L 93.351562 0 L 93.351562 29.03125 L 1.171875 29.03125 Z M 1.171875 0 " fill-opacity="1" fill-rule="nonzero"/><path fill="#ffffff" d="M 1.171875 0 L 93.351562 0 L 93.351562 29.03125 L 1.171875 29.03125 Z M 1.171875 0 " fill-opacity="1" fill-rule="nonzero"/></g><g clip-path="url(#id2)"><path fill="#000000" d="M 31.75 18.441406 C 32.136719 18.441406 32.492188 18.53125 32.808594 18.707031 C 33.128906 18.886719 33.378906 19.132812 33.566406 19.441406 C 33.75 19.753906 33.839844 20.097656 33.839844 20.472656 C 33.839844 20.847656 33.75 21.191406 33.566406 21.5 C 33.378906 21.8125 33.128906 22.054688 32.808594 22.234375 C 32.484375 22.410156 32.128906 22.5 31.738281 22.5 L 30.117188 22.5 L 30.117188 18.441406 Z M 31.761719 22.140625 C 32.066406 22.140625 32.347656 22.066406 32.605469 21.917969 C 32.859375 21.773438 33.0625 21.570312 33.210938 21.320312 C 33.359375 21.066406 33.433594 20.785156 33.433594 20.472656 C 33.433594 20.164062 33.359375 19.882812 33.207031 19.625 C 33.054688 19.371094 32.851562 19.167969 32.59375 19.023438 C 32.335938 18.875 32.054688 18.800781 31.746094 18.800781 L 30.519531 18.800781 L 30.519531 22.140625 Z M 34.722656 18.441406 L 37.441406 18.441406 L 37.441406 18.800781 L 35.125 18.800781 L 35.125 20.253906 L 37.195312 20.253906 L 37.195312 20.613281 L 35.125 20.613281 L 35.125 22.140625 L 37.515625 22.140625 L 37.515625 22.5 L 34.722656 22.5 Z M 43.039062 18.441406 L 43.433594 18.441406 L 43.433594 22.5 L 43.007812 22.5 L 40.496094 19.0625 L 40.496094 22.5 L 40.09375 22.5 L 40.09375 18.441406 L 40.519531 18.441406 L 43.039062 21.878906 Z M 46.441406 18.40625 C 46.828125 18.40625 47.183594 18.5 47.507812 18.683594 C 47.828125 18.867188 48.085938 19.113281 48.273438 19.429688 C 48.464844 19.742188 48.558594 20.085938 48.558594 20.460938 C 48.558594 20.835938 48.464844 21.183594 48.273438 21.5 C 48.085938 21.820312 47.828125 22.070312 47.507812 22.257812 C 47.183594 22.441406 46.828125 22.535156 46.441406 22.535156 C 46.054688 22.535156 45.699219 22.441406 45.375 22.257812 C 45.050781 22.070312 44.796875 21.820312 44.605469 21.5 C 44.414062 21.183594 44.320312 20.835938 44.320312 20.460938 C 44.320312 20.085938 44.414062 19.742188 44.605469 19.429688 C 44.796875 19.113281 45.050781 18.867188 45.375 18.683594 C 45.699219 18.5 46.054688 18.40625 46.441406 18.40625 Z M 46.445312 18.765625 C 46.136719 18.765625 45.851562 18.84375 45.585938 18.992188 C 45.324219 19.144531 45.113281 19.347656 44.960938 19.609375 C 44.804688 19.867188 44.726562 20.152344 44.726562 20.460938 C 44.726562 20.773438 44.804688 21.058594 44.960938 21.320312 C 45.113281 21.585938 45.324219 21.792969 45.585938 21.945312 C 45.851562 22.097656 46.136719 22.175781 46.445312 22.175781 C 46.753906 22.175781 47.035156 22.097656 47.296875 21.945312 C 47.558594 21.792969 47.765625 21.585938 47.921875 21.320312 C 48.074219 21.058594 48.152344 20.773438 48.152344 20.460938 C 48.152344 20.152344 48.074219 19.867188 47.921875 19.609375 C 47.765625 19.347656 47.558594 19.144531 47.296875 18.992188 C 47.035156 18.84375 46.753906 18.765625 46.445312 18.765625 Z M 51.695312 19.101562 C 51.527344 19 51.347656 18.917969 51.148438 18.863281 C 50.953125 18.804688 50.765625 18.777344 50.59375 18.777344 C 50.3125 18.777344 50.089844 18.832031 49.921875 18.945312 C 49.753906 19.054688 49.667969 19.203125 49.667969 19.394531 C 49.667969 19.558594 49.714844 19.695312 49.808594 19.800781 C 49.902344 19.90625 50.015625 19.988281 50.152344 20.046875 C 50.285156 20.105469 50.472656 20.171875 50.707031 20.246094 C 50.984375 20.328125 51.203125 20.410156 51.375 20.488281 C 51.542969 20.566406 51.683594 20.683594 51.804688 20.832031 C 51.921875 20.984375 51.980469 21.183594 51.980469 21.429688 C 51.980469 21.648438 51.917969 21.839844 51.796875 22.007812 C 51.675781 22.171875 51.503906 22.300781 51.28125 22.394531 C 51.0625 22.484375 50.808594 22.527344 50.523438 22.527344 C 50.238281 22.527344 49.964844 22.472656 49.695312 22.359375 C 49.425781 22.25 49.195312 22.097656 49 21.914062 L 49.1875 21.582031 C 49.367188 21.761719 49.578125 21.898438 49.820312 22 C 50.058594 22.101562 50.296875 22.152344 50.527344 22.152344 C 50.839844 22.152344 51.082031 22.089844 51.265625 21.964844 C 51.449219 21.835938 51.539062 21.667969 51.539062 21.453125 C 51.539062 21.285156 51.492188 21.144531 51.398438 21.035156 C 51.304688 20.929688 51.191406 20.84375 51.054688 20.785156 C 50.921875 20.730469 50.730469 20.660156 50.488281 20.582031 C 50.210938 20.5 49.992188 20.417969 49.824219 20.34375 C 49.660156 20.265625 49.519531 20.15625 49.402344 20.007812 C 49.285156 19.855469 49.226562 19.664062 49.226562 19.421875 C 49.226562 19.21875 49.285156 19.039062 49.402344 18.882812 C 49.519531 18.726562 49.679688 18.609375 49.890625 18.527344 C 50.097656 18.441406 50.339844 18.402344 50.617188 18.402344 C 50.835938 18.402344 51.058594 18.433594 51.28125 18.5 C 51.503906 18.566406 51.699219 18.652344 51.871094 18.761719 Z M 55.226562 19.101562 C 55.058594 19 54.878906 18.917969 54.679688 18.863281 C 54.480469 18.804688 54.296875 18.777344 54.121094 18.777344 C 53.84375 18.777344 53.621094 18.832031 53.453125 18.945312 C 53.285156 19.054688 53.199219 19.203125 53.199219 19.394531 C 53.199219 19.558594 53.246094 19.695312 53.339844 19.800781 C 53.429688 19.90625 53.546875 19.988281 53.679688 20.046875 C 53.816406 20.105469 54.003906 20.171875 54.238281 20.246094 C 54.511719 20.328125 54.734375 20.410156 54.902344 20.488281 C 55.070312 20.566406 55.214844 20.683594 55.332031 20.832031 C 55.449219 20.984375 55.511719 21.183594 55.511719 21.429688 C 55.511719 21.648438 55.449219 21.839844 55.328125 22.007812 C 55.207031 22.171875 55.035156 22.300781 54.8125 22.394531 C 54.59375 22.484375 54.339844 22.527344 54.054688 22.527344 C 53.769531 22.527344 53.496094 22.472656 53.226562 22.359375 C 52.957031 22.25 52.726562 22.097656 52.53125 21.914062 L 52.71875 21.582031 C 52.898438 21.761719 53.109375 21.898438 53.351562 22 C 53.589844 22.101562 53.828125 22.152344 54.058594 22.152344 C 54.367188 22.152344 54.613281 22.089844 54.796875 21.964844 C 54.976562 21.835938 55.070312 21.667969 55.070312 21.453125 C 55.070312 21.285156 55.023438 21.144531 54.929688 21.035156 C 54.835938 20.929688 54.722656 20.84375 54.585938 20.785156 C 54.453125 20.730469 54.261719 20.660156 54.019531 20.582031 C 53.742188 20.5 53.523438 20.417969 53.355469 20.34375 C 53.191406 20.265625 53.046875 20.15625 52.933594 20.007812 C 52.816406 19.855469 52.757812 19.664062 52.757812 19.421875 C 52.757812 19.21875 52.816406 19.039062 52.933594 18.882812 C 53.046875 18.726562 53.210938 18.609375 53.417969 18.527344 C 53.628906 18.441406 53.871094 18.402344 54.144531 18.402344 C 54.367188 18.402344 54.589844 18.433594 54.808594 18.5 C 55.03125 18.566406 55.230469 18.652344 55.398438 18.761719 Z M 58.226562 18.40625 C 58.613281 18.40625 58.96875 18.5 59.292969 18.683594 C 59.617188 18.867188 59.871094 19.113281 60.0625 19.429688 C 60.253906 19.742188 60.347656 20.085938 60.347656 20.460938 C 60.347656 20.835938 60.253906 21.183594 60.0625 21.5 C 59.871094 21.820312 59.617188 22.070312 59.292969 22.257812 C 58.96875 22.441406 58.613281 22.535156 58.226562 22.535156 C 57.839844 22.535156 57.484375 22.441406 57.160156 22.257812 C 56.839844 22.070312 56.582031 21.820312 56.394531 21.5 C 56.203125 21.183594 56.109375 20.835938 56.109375 20.460938 C 56.109375 20.085938 56.203125 19.742188 56.394531 19.429688 C 56.582031 19.113281 56.839844 18.867188 57.160156 18.683594 C 57.484375 18.5 57.839844 18.40625 58.226562 18.40625 Z M 58.234375 18.765625 C 57.921875 18.765625 57.636719 18.84375 57.375 18.992188 C 57.109375 19.144531 56.902344 19.347656 56.746094 19.609375 C 56.59375 19.867188 56.515625 20.152344 56.515625 20.460938 C 56.515625 20.773438 56.59375 21.058594 56.746094 21.320312 C 56.902344 21.585938 57.109375 21.792969 57.375 21.945312 C 57.636719 22.097656 57.921875 22.175781 58.234375 22.175781 C 58.539062 22.175781 58.824219 22.097656 59.085938 21.945312 C 59.34375 21.792969 59.554688 21.585938 59.707031 21.320312 C 59.863281 21.058594 59.941406 20.773438 59.941406 20.460938 C 59.941406 20.152344 59.863281 19.867188 59.707031 19.609375 C 59.554688 19.347656 59.34375 19.144531 59.085938 18.992188 C 58.824219 18.84375 58.539062 18.765625 58.234375 18.765625 Z M 63.480469 19.101562 C 63.316406 19 63.132812 18.917969 62.9375 18.863281 C 62.738281 18.804688 62.554688 18.777344 62.378906 18.777344 C 62.101562 18.777344 61.875 18.832031 61.707031 18.945312 C 61.539062 19.054688 61.457031 19.203125 61.457031 19.394531 C 61.457031 19.558594 61.503906 19.695312 61.59375 19.800781 C 61.6875 19.90625 61.800781 19.988281 61.9375 20.046875 C 62.074219 20.105469 62.257812 20.171875 62.496094 20.246094 C 62.769531 20.328125 62.992188 20.410156 63.160156 20.488281 C 63.328125 20.566406 63.472656 20.683594 63.589844 20.832031 C 63.707031 20.984375 63.765625 21.183594 63.765625 21.429688 C 63.765625 21.648438 63.707031 21.839844 63.585938 22.007812 C 63.460938 22.171875 63.289062 22.300781 63.070312 22.394531 C 62.847656 22.484375 62.597656 22.527344 62.308594 22.527344 C 62.027344 22.527344 61.75 22.472656 61.480469 22.359375 C 61.214844 22.25 60.980469 22.097656 60.789062 21.914062 L 60.972656 21.582031 C 61.15625 21.761719 61.367188 21.898438 61.605469 22 C 61.847656 22.101562 62.082031 22.152344 62.316406 22.152344 C 62.625 22.152344 62.871094 22.089844 63.054688 21.964844 C 63.234375 21.835938 63.324219 21.667969 63.324219 21.453125 C 63.324219 21.285156 63.277344 21.144531 63.1875 21.035156 C 63.09375 20.929688 62.980469 20.84375 62.84375 20.785156 C 62.707031 20.730469 62.519531 20.660156 62.273438 20.582031 C 62 20.5 61.777344 20.417969 61.613281 20.34375 C 61.445312 20.265625 61.304688 20.15625 61.1875 20.007812 C 61.074219 19.855469 61.015625 19.664062 61.015625 19.421875 C 61.015625 19.21875 61.074219 19.039062 61.1875 18.882812 C 61.304688 18.726562 61.46875 18.609375 61.675781 18.527344 C 61.886719 18.441406 62.128906 18.402344 62.402344 18.402344 C 62.625 18.402344 62.84375 18.433594 63.066406 18.5 C 63.289062 18.566406 63.484375 18.652344 63.65625 18.761719 Z M 69.304688 19.265625 C 69.144531 19.105469 68.957031 18.984375 68.742188 18.894531 C 68.53125 18.804688 68.308594 18.761719 68.082031 18.761719 C 67.765625 18.761719 67.480469 18.835938 67.21875 18.988281 C 66.957031 19.136719 66.75 19.34375 66.597656 19.605469 C 66.445312 19.867188 66.367188 20.152344 66.367188 20.460938 C 66.367188 20.773438 66.445312 21.054688 66.597656 21.316406 C 66.75 21.574219 66.957031 21.78125 67.21875 21.933594 C 67.480469 22.085938 67.765625 22.164062 68.082031 22.164062 C 68.304688 22.164062 68.523438 22.121094 68.738281 22.03125 C 68.949219 21.945312 69.140625 21.824219 69.304688 21.667969 L 69.550781 21.929688 C 69.347656 22.117188 69.117188 22.265625 68.859375 22.371094 C 68.601562 22.480469 68.335938 22.535156 68.0625 22.535156 C 67.679688 22.535156 67.328125 22.441406 67.007812 22.257812 C 66.6875 22.070312 66.429688 21.820312 66.242188 21.5 C 66.054688 21.183594 65.960938 20.835938 65.960938 20.460938 C 65.960938 20.085938 66.054688 19.742188 66.246094 19.429688 C 66.4375 19.113281 66.691406 18.867188 67.015625 18.683594 C 67.339844 18.5 67.691406 18.40625 68.074219 18.40625 C 68.351562 18.40625 68.617188 18.457031 68.871094 18.558594 C 69.125 18.664062 69.351562 18.804688 69.542969 18.988281 Z M 70.425781 18.441406 L 70.828125 18.441406 L 70.828125 22.140625 L 72.617188 22.140625 L 72.617188 22.5 L 70.425781 22.5 Z M 73.40625 18.441406 L 73.804688 18.441406 L 73.804688 22.5 L 73.40625 22.5 Z M 75.082031 18.441406 L 77.800781 18.441406 L 77.800781 18.800781 L 75.484375 18.800781 L 75.484375 20.253906 L 77.558594 20.253906 L 77.558594 20.613281 L 75.484375 20.613281 L 75.484375 22.140625 L 77.875 22.140625 L 77.875 22.5 L 75.082031 22.5 Z M 81.800781 18.441406 L 82.195312 18.441406 L 82.195312 22.5 L 81.773438 22.5 L 79.257812 19.0625 L 79.257812 22.5 L 78.859375 22.5 L 78.859375 18.441406 L 79.28125 18.441406 L 81.800781 21.878906 Z M 82.90625 18.433594 L 85.988281 18.433594 L 85.988281 18.800781 L 84.648438 18.800781 L 84.648438 22.5 L 84.246094 22.5 L 84.246094 18.800781 L 82.90625 18.800781 Z M 86.691406 18.441406 L 89.410156 18.441406 L 89.410156 18.800781 L 87.089844 18.800781 L 87.089844 20.253906 L 89.164062 20.253906 L 89.164062 20.613281 L 87.089844 20.613281 L 87.089844 22.140625 L 89.484375 22.140625 L 89.484375 22.5 L 86.691406 22.5 Z M 92.71875 19.101562 C 92.550781 19 92.371094 18.917969 92.171875 18.863281 C 91.976562 18.804688 91.789062 18.777344 91.613281 18.777344 C 91.335938 18.777344 91.113281 18.832031 90.945312 18.945312 C 90.777344 19.054688 90.691406 19.203125 90.691406 19.394531 C 90.691406 19.558594 90.738281 19.695312 90.832031 19.800781 C 90.921875 19.90625 91.039062 19.988281 91.171875 20.046875 C 91.308594 20.105469 91.496094 20.171875 91.730469 20.246094 C 92.003906 20.328125 92.226562 20.410156 92.394531 20.488281 C 92.5625 20.566406 92.707031 20.683594 92.824219 20.832031 C 92.945312 20.984375 93.003906 21.183594 93.003906 21.429688 C 93.003906 21.648438 92.941406 21.839844 92.820312 22.007812 C 92.699219 22.171875 92.527344 22.300781 92.304688 22.394531 C 92.085938 22.484375 91.832031 22.527344 91.546875 22.527344 C 91.261719 22.527344 90.988281 22.472656 90.71875 22.359375 C 90.449219 22.25 90.21875 22.097656 90.023438 21.914062 L 90.210938 21.582031 C 90.390625 21.761719 90.601562 21.898438 90.84375 22 C 91.082031 22.101562 91.320312 22.152344 91.550781 22.152344 C 91.859375 22.152344 92.105469 22.089844 92.289062 21.964844 C 92.46875 21.835938 92.5625 21.667969 92.5625 21.453125 C 92.5625 21.285156 92.515625 21.144531 92.421875 21.035156 C 92.328125 20.929688 92.214844 20.84375 92.078125 20.785156 C 91.945312 20.730469 91.753906 20.660156 91.511719 20.582031 C 91.234375 20.5 91.015625 20.417969 90.847656 20.34375 C 90.683594 20.265625 90.539062 20.15625 90.425781 20.007812 C 90.308594 19.855469 90.25 19.664062 90.25 19.421875 C 90.25 19.21875 90.308594 19.039062 90.425781 18.882812 C 90.539062 18.726562 90.703125 18.609375 90.910156 18.527344 C 91.121094 18.441406 91.363281 18.402344 91.636719 18.402344 C 91.859375 18.402344 92.082031 18.433594 92.304688 18.5 C 92.523438 18.566406 92.722656 18.652344 92.890625 18.761719 Z M 92.71875 19.101562 " fill-opacity="1" fill-rule="nonzero"/></g><path fill="#000000" d="M 32.390625 10.785156 C 32.914062 10.785156 33.386719 10.898438 33.808594 11.125 C 34.234375 11.355469 34.5625 11.667969 34.804688 12.066406 C 35.042969 12.464844 35.164062 12.914062 35.164062 13.414062 C 35.164062 13.917969 35.042969 14.371094 34.804688 14.773438 C 34.5625 15.179688 34.234375 15.496094 33.808594 15.722656 C 33.386719 15.953125 32.914062 16.070312 32.390625 16.070312 C 31.863281 16.070312 31.390625 15.953125 30.96875 15.722656 C 30.546875 15.496094 30.214844 15.179688 29.976562 14.773438 C 29.738281 14.371094 29.617188 13.917969 29.617188 13.414062 C 29.617188 12.914062 29.738281 12.464844 29.976562 12.066406 C 30.214844 11.667969 30.546875 11.355469 30.96875 11.125 C 31.390625 10.898438 31.863281 10.785156 32.390625 10.785156 Z M 32.410156 12.042969 C 32.191406 12.042969 31.984375 12.101562 31.792969 12.222656 C 31.601562 12.34375 31.449219 12.507812 31.335938 12.71875 C 31.21875 12.929688 31.164062 13.164062 31.164062 13.421875 C 31.164062 13.675781 31.21875 13.910156 31.335938 14.125 C 31.449219 14.335938 31.601562 14.503906 31.792969 14.628906 C 31.984375 14.753906 32.191406 14.8125 32.410156 14.8125 C 32.628906 14.8125 32.832031 14.753906 33.019531 14.628906 C 33.203125 14.503906 33.351562 14.339844 33.457031 14.128906 C 33.5625 13.917969 33.617188 13.679688 33.617188 13.421875 C 33.617188 13.164062 33.5625 12.929688 33.457031 12.71875 C 33.351562 12.507812 33.207031 12.34375 33.023438 12.222656 C 32.839844 12.101562 32.632812 12.042969 32.410156 12.042969 Z M 38.035156 10.878906 C 38.695312 10.878906 39.203125 11.035156 39.566406 11.351562 C 39.925781 11.667969 40.105469 12.109375 40.105469 12.6875 C 40.105469 13.292969 39.925781 13.761719 39.566406 14.09375 C 39.203125 14.429688 38.695312 14.597656 38.035156 14.597656 L 37.238281 14.601562 L 37.238281 15.96875 L 35.730469 15.96875 L 35.730469 10.878906 Z M 37.964844 13.433594 C 38.191406 13.433594 38.367188 13.375 38.492188 13.253906 C 38.613281 13.132812 38.675781 12.957031 38.675781 12.730469 C 38.675781 12.507812 38.613281 12.335938 38.492188 12.21875 C 38.367188 12.101562 38.191406 12.042969 37.964844 12.042969 L 37.238281 12.042969 L 37.238281 13.433594 Z M 40.6875 10.878906 L 42.195312 10.878906 L 42.195312 15.96875 L 40.6875 15.96875 Z M 46.5 10.878906 L 47.878906 10.878906 L 47.878906 15.96875 L 46.59375 15.96875 L 44.4375 13.136719 L 44.4375 15.96875 L 43.050781 15.96875 L 43.050781 10.878906 L 44.34375 10.878906 L 46.5 13.71875 Z M 48.734375 10.878906 L 50.246094 10.878906 L 50.246094 15.96875 L 48.734375 15.96875 Z M 53.582031 10.785156 C 54.105469 10.785156 54.578125 10.898438 55.003906 11.125 C 55.425781 11.355469 55.757812 11.667969 55.996094 12.066406 C 56.238281 12.464844 56.355469 12.914062 56.355469 13.414062 C 56.355469 13.917969 56.238281 14.371094 55.996094 14.773438 C 55.757812 15.179688 55.425781 15.496094 55.003906 15.722656 C 54.578125 15.953125 54.105469 16.070312 53.582031 16.070312 C 53.054688 16.070312 52.582031 15.953125 52.160156 15.722656 C 51.742188 15.496094 51.410156 15.179688 51.171875 14.773438 C 50.929688 14.371094 50.8125 13.917969 50.8125 13.414062 C 50.8125 12.914062 50.929688 12.464844 51.171875 12.066406 C 51.410156 11.667969 51.742188 11.355469 52.160156 11.125 C 52.582031 10.898438 53.054688 10.785156 53.582031 10.785156 Z M 53.605469 12.042969 C 53.382812 12.042969 53.175781 12.101562 52.984375 12.222656 C 52.792969 12.34375 52.640625 12.507812 52.527344 12.71875 C 52.414062 12.929688 52.355469 13.164062 52.355469 13.421875 C 52.355469 13.675781 52.414062 13.910156 52.527344 14.125 C 52.640625 14.335938 52.792969 14.503906 52.984375 14.628906 C 53.175781 14.753906 53.382812 14.8125 53.605469 14.8125 C 53.824219 14.8125 54.027344 14.753906 54.210938 14.628906 C 54.398438 14.503906 54.542969 14.339844 54.652344 14.128906 C 54.757812 13.917969 54.808594 13.679688 54.808594 13.421875 C 54.808594 13.164062 54.757812 12.929688 54.652344 12.71875 C 54.542969 12.507812 54.398438 12.34375 54.214844 12.222656 C 54.03125 12.101562 53.828125 12.042969 53.605469 12.042969 Z M 54.984375 9.296875 C 54.984375 9.707031 54.925781 10.015625 54.808594 10.210938 C 54.6875 10.410156 54.5 10.507812 54.238281 10.507812 C 54.121094 10.507812 54.015625 10.492188 53.917969 10.457031 C 53.820312 10.425781 53.710938 10.375 53.582031 10.3125 C 53.4375 10.234375 53.335938 10.199219 53.273438 10.199219 C 53.144531 10.199219 53.078125 10.292969 53.070312 10.488281 L 52.277344 10.488281 C 52.277344 10.082031 52.335938 9.777344 52.457031 9.578125 C 52.574219 9.375 52.765625 9.277344 53.023438 9.277344 C 53.140625 9.277344 53.25 9.292969 53.347656 9.328125 C 53.445312 9.359375 53.5625 9.410156 53.691406 9.472656 C 53.746094 9.5 53.800781 9.527344 53.851562 9.546875 C 53.90625 9.570312 53.949219 9.582031 53.984375 9.582031 C 54.054688 9.582031 54.109375 9.558594 54.144531 9.511719 C 54.175781 9.464844 54.195312 9.394531 54.199219 9.296875 Z M 56.921875 10.878906 L 61.082031 10.878906 L 61.082031 12.042969 L 58.433594 12.042969 L 58.433594 12.839844 L 60.835938 12.839844 L 60.835938 14 L 58.433594 14 L 58.433594 14.804688 L 61.152344 14.804688 L 61.152344 15.96875 L 56.921875 15.96875 Z M 65.539062 12.519531 C 65.265625 12.359375 64.96875 12.226562 64.644531 12.113281 C 64.320312 12.003906 64.054688 11.945312 63.847656 11.945312 C 63.714844 11.945312 63.613281 11.972656 63.539062 12.023438 C 63.464844 12.074219 63.425781 12.148438 63.425781 12.246094 C 63.425781 12.378906 63.5 12.484375 63.644531 12.558594 C 63.789062 12.636719 64.019531 12.714844 64.332031 12.804688 C 64.691406 12.90625 64.984375 13.007812 65.21875 13.113281 C 65.449219 13.214844 65.652344 13.375 65.824219 13.585938 C 65.996094 13.800781 66.082031 14.082031 66.082031 14.429688 C 66.082031 14.78125 65.988281 15.082031 65.804688 15.324219 C 65.617188 15.570312 65.363281 15.753906 65.046875 15.875 C 64.730469 15.996094 64.375 16.054688 63.984375 16.054688 C 63.550781 16.054688 63.113281 15.980469 62.675781 15.832031 C 62.238281 15.6875 61.859375 15.484375 61.539062 15.226562 L 62.105469 14.082031 C 62.359375 14.304688 62.675781 14.492188 63.042969 14.644531 C 63.414062 14.796875 63.734375 14.871094 64 14.871094 C 64.164062 14.871094 64.292969 14.839844 64.382812 14.777344 C 64.476562 14.714844 64.523438 14.625 64.523438 14.507812 C 64.523438 14.367188 64.445312 14.261719 64.296875 14.1875 C 64.148438 14.109375 63.914062 14.03125 63.601562 13.949219 C 63.246094 13.859375 62.953125 13.761719 62.722656 13.664062 C 62.488281 13.5625 62.289062 13.410156 62.121094 13.203125 C 61.949219 12.996094 61.867188 12.722656 61.867188 12.382812 C 61.867188 12.054688 61.953125 11.765625 62.125 11.523438 C 62.300781 11.277344 62.546875 11.089844 62.863281 10.960938 C 63.179688 10.828125 63.550781 10.765625 63.96875 10.765625 C 64.351562 10.765625 64.730469 10.816406 65.109375 10.925781 C 65.488281 11.035156 65.816406 11.179688 66.097656 11.359375 Z M 71.148438 15.96875 L 70.472656 14.597656 L 69.675781 14.597656 L 69.675781 15.96875 L 68.164062 15.96875 L 68.164062 10.878906 L 70.539062 10.878906 C 71.222656 10.878906 71.75 11.035156 72.125 11.351562 C 72.5 11.667969 72.6875 12.109375 72.6875 12.6875 C 72.6875 13.058594 72.613281 13.382812 72.464844 13.65625 C 72.316406 13.929688 72.105469 14.144531 71.832031 14.304688 L 72.859375 15.96875 Z M 69.675781 13.433594 L 70.539062 13.433594 C 70.765625 13.433594 70.941406 13.375 71.066406 13.253906 C 71.1875 13.132812 71.25 12.957031 71.25 12.730469 C 71.25 12.507812 71.1875 12.335938 71.066406 12.21875 C 70.941406 12.101562 70.765625 12.042969 70.539062 12.042969 L 69.675781 12.042969 Z M 73.425781 10.878906 L 77.585938 10.878906 L 77.585938 12.042969 L 74.9375 12.042969 L 74.9375 12.839844 L 77.339844 12.839844 L 77.339844 14 L 74.9375 14 L 74.9375 14.804688 L 77.660156 14.804688 L 77.660156 15.96875 L 73.425781 15.96875 Z M 82.109375 15.96875 L 81.808594 15.15625 L 79.757812 15.15625 L 79.453125 15.96875 L 77.898438 15.96875 L 80.070312 10.878906 L 81.621094 10.878906 L 83.71875 15.96875 Z M 80.175781 14.050781 L 81.410156 14.050781 L 80.800781 12.390625 Z M 84.089844 10.878906 L 85.597656 10.878906 L 85.597656 15.96875 L 84.089844 15.96875 Z M 90.113281 12.519531 C 89.84375 12.359375 89.546875 12.226562 89.222656 12.113281 C 88.898438 12.003906 88.628906 11.945312 88.421875 11.945312 C 88.292969 11.945312 88.1875 11.972656 88.113281 12.023438 C 88.039062 12.074219 88 12.148438 88 12.246094 C 88 12.378906 88.074219 12.484375 88.21875 12.558594 C 88.363281 12.636719 88.59375 12.714844 88.910156 12.804688 C 89.265625 12.90625 89.5625 13.007812 89.792969 13.113281 C 90.027344 13.214844 90.230469 13.375 90.402344 13.585938 C 90.570312 13.800781 90.65625 14.082031 90.65625 14.429688 C 90.65625 14.78125 90.566406 15.082031 90.378906 15.324219 C 90.191406 15.570312 89.941406 15.753906 89.625 15.875 C 89.308594 15.996094 88.953125 16.054688 88.558594 16.054688 C 88.125 16.054688 87.6875 15.980469 87.25 15.832031 C 86.8125 15.6875 86.433594 15.484375 86.113281 15.226562 L 86.679688 14.082031 C 86.9375 14.304688 87.25 14.492188 87.621094 14.644531 C 87.992188 14.796875 88.308594 14.871094 88.574219 14.871094 C 88.738281 14.871094 88.867188 14.839844 88.960938 14.777344 C 89.050781 14.714844 89.097656 14.625 89.097656 14.507812 C 89.097656 14.367188 89.023438 14.261719 88.871094 14.1875 C 88.722656 14.109375 88.492188 14.03125 88.175781 13.949219 C 87.824219 13.859375 87.53125 13.761719 87.296875 13.664062 C 87.066406 13.5625 86.863281 13.410156 86.695312 13.203125 C 86.527344 12.996094 86.441406 12.722656 86.441406 12.382812 C 86.441406 12.054688 86.527344 11.765625 86.703125 11.523438 C 86.875 11.277344 87.121094 11.089844 87.4375 10.960938 C 87.757812 10.828125 88.125 10.765625 88.546875 10.765625 C 88.929688 10.765625 89.308594 10.816406 89.683594 10.925781 C 90.0625 11.035156 90.390625 11.179688 90.671875 11.359375 Z M 90.113281 12.519531 " fill-opacity="1" fill-rule="nonzero"/><g clip-path="url(#id3)"><path fill="#ffd760" d="M 12.421875 23.285156 L 6.929688 25.195312 C 6.171875 25.457031 5.34375 25.058594 5.082031 24.300781 C 5.023438 24.136719 4.996094 23.964844 5 23.792969 L 5.121094 17.976562 L 1.605469 13.34375 C 1.121094 12.703125 1.246094 11.792969 1.882812 11.308594 C 2.019531 11.203125 2.175781 11.125 2.339844 11.074219 L 7.910156 9.390625 L 11.230469 4.617188 C 11.691406 3.957031 12.59375 3.796875 13.253906 4.253906 C 13.394531 4.351562 13.515625 4.476562 13.613281 4.617188 L 16.9375 9.390625 L 22.507812 11.074219 C 23.273438 11.308594 23.707031 12.117188 23.476562 12.886719 C 23.425781 13.050781 23.347656 13.207031 23.242188 13.34375 L 19.726562 17.976562 L 19.847656 23.792969 C 19.863281 24.597656 19.226562 25.257812 18.425781 25.277344 C 18.253906 25.277344 18.082031 25.25 17.917969 25.195312 Z M 12.421875 23.285156 " fill-opacity="1" fill-rule="evenodd"/></g><path fill="#000000" d="M 11.476562 16.21875 L 11.476562 17.210938 L 10.917969 17.210938 L 10.917969 18.144531 L 9.679688 18.144531 L 9.679688 17.210938 L 7.667969 17.210938 L 7.667969 16.316406 L 8.875 13.566406 L 10.15625 13.566406 L 9.03125 16.21875 L 9.679688 16.21875 L 9.679688 15.289062 L 10.917969 15.289062 L 10.917969 16.21875 Z M 12.527344 16.96875 C 12.710938 16.96875 12.859375 17.027344 12.972656 17.140625 C 13.089844 17.253906 13.148438 17.398438 13.148438 17.578125 C 13.148438 17.757812 13.089844 17.910156 12.972656 18.023438 C 12.859375 18.140625 12.710938 18.199219 12.527344 18.199219 C 12.347656 18.199219 12.199219 18.140625 12.085938 18.023438 C 11.96875 17.910156 11.914062 17.757812 11.914062 17.578125 C 11.914062 17.398438 11.96875 17.253906 12.085938 17.140625 C 12.199219 17.027344 12.347656 16.96875 12.527344 16.96875 Z M 15.296875 13.507812 C 15.628906 13.507812 15.917969 13.558594 16.167969 13.664062 C 16.417969 13.769531 16.609375 13.914062 16.746094 14.105469 C 16.882812 14.292969 16.949219 14.515625 16.949219 14.769531 C 16.949219 14.949219 16.902344 15.125 16.8125 15.292969 C 16.71875 15.460938 16.597656 15.59375 16.445312 15.695312 C 16.671875 15.808594 16.851562 15.96875 16.984375 16.175781 C 17.117188 16.382812 17.183594 16.609375 17.183594 16.851562 C 17.183594 17.121094 17.105469 17.359375 16.953125 17.5625 C 16.796875 17.769531 16.578125 17.925781 16.296875 18.039062 C 16.011719 18.148438 15.679688 18.203125 15.300781 18.203125 C 14.929688 18.203125 14.597656 18.148438 14.3125 18.039062 C 14.027344 17.933594 13.808594 17.777344 13.652344 17.578125 C 13.5 17.375 13.421875 17.144531 13.421875 16.878906 C 13.421875 16.628906 13.496094 16.398438 13.640625 16.183594 C 13.785156 15.972656 13.980469 15.808594 14.226562 15.695312 C 14.054688 15.582031 13.917969 15.4375 13.816406 15.265625 C 13.714844 15.089844 13.664062 14.910156 13.664062 14.730469 C 13.664062 14.484375 13.730469 14.269531 13.867188 14.085938 C 14 13.898438 14.191406 13.757812 14.4375 13.65625 C 14.683594 13.558594 14.96875 13.507812 15.296875 13.507812 Z M 15.300781 14.394531 C 15.136719 14.394531 15.011719 14.433594 14.921875 14.511719 C 14.832031 14.585938 14.785156 14.695312 14.785156 14.839844 C 14.785156 14.976562 14.832031 15.078125 14.921875 15.152344 C 15.011719 15.226562 15.136719 15.265625 15.300781 15.265625 C 15.46875 15.265625 15.59375 15.226562 15.683594 15.152344 C 15.773438 15.078125 15.820312 14.976562 15.820312 14.839844 C 15.820312 14.695312 15.773438 14.585938 15.683594 14.511719 C 15.59375 14.433594 15.46875 14.394531 15.300781 14.394531 Z M 15.300781 16.230469 C 15.105469 16.230469 14.957031 16.273438 14.851562 16.363281 C 14.746094 16.449219 14.695312 16.574219 14.695312 16.742188 C 14.695312 16.898438 14.746094 17.019531 14.851562 17.101562 C 14.957031 17.1875 15.105469 17.230469 15.300781 17.230469 C 15.503906 17.230469 15.65625 17.1875 15.761719 17.101562 C 15.863281 17.019531 15.917969 16.898438 15.917969 16.742188 C 15.917969 16.574219 15.863281 16.449219 15.761719 16.363281 C 15.65625 16.273438 15.503906 16.230469 15.300781 16.230469 Z M 15.300781 16.230469 " fill-opacity="1" fill-rule="nonzero"/><g clip-path="url(#id4)"><path fill="#ffd760" d="M 7.261719 11.585938 L 17.421875 11.585938 L 17.421875 20.289062 L 7.261719 20.289062 L 7.261719 11.585938 " fill-opacity="1" fill-rule="nonzero"/></g><g fill="#000000" fill-opacity="1"><g transform="translate(6.992088, 18.461302)"><g><path d="M 0.183594 -0.878906 L 2.589844 -0.878906 L 2.589844 0 L 3.664062 0 L 3.664062 -0.878906 L 4.265625 -0.878906 L 4.265625 -1.828125 L 3.664062 -1.828125 L 3.664062 -3.148438 L 2.808594 -3.148438 L 2.644531 -1.808594 L 1.449219 -1.808594 L 2.925781 -4.808594 L 1.738281 -4.808594 L 0.183594 -1.640625 Z M 0.183594 -0.878906 "/></g></g></g><g fill="#000000" fill-opacity="1"><g transform="translate(11.430774, 18.461302)"><g><path d="M 0.921875 0.0742188 C 1.292969 0.0742188 1.558594 -0.183594 1.558594 -0.542969 C 1.558594 -0.898438 1.292969 -1.167969 0.921875 -1.167969 C 0.542969 -1.167969 0.28125 -0.898438 0.28125 -0.542969 C 0.28125 -0.183594 0.542969 0.0742188 0.921875 0.0742188 Z M 0.921875 0.0742188 "/></g></g></g><g fill="#000000" fill-opacity="1"><g transform="translate(13.265339, 18.461302)"><g><path d="M 2.226562 -4.90625 C 1.121094 -4.90625 0.351562 -4.21875 0.351562 -3.214844 C 0.351562 -2.265625 1.050781 -1.558594 1.984375 -1.558594 C 2.066406 -1.558594 2.152344 -1.566406 2.234375 -1.582031 L 1.238281 0 L 2.453125 0 L 3.683594 -1.925781 C 3.957031 -2.363281 4.109375 -2.789062 4.109375 -3.222656 C 4.109375 -4.21875 3.339844 -4.90625 2.226562 -4.90625 Z M 1.394531 -3.214844 C 1.394531 -3.683594 1.746094 -4.019531 2.226562 -4.019531 C 2.714844 -4.019531 3.066406 -3.683594 3.066406 -3.214844 C 3.066406 -2.753906 2.714844 -2.417969 2.226562 -2.417969 C 1.746094 -2.417969 1.394531 -2.753906 1.394531 -3.214844 Z M 1.394531 -3.214844 "/></g></g></g></svg>