<svg xmlns="http://www.w3.org/2000/svg" width="20" height="12.667" viewBox="0 0 20 12.667">
  <path id="frete-icon" d="M14.8,1.7A1.7,1.7,0,1,0,16.5,0,1.7,1.7,0,0,0,14.8,1.7Zm1.2,0a.5.5,0,1,1,.5.5A.5.5,0,0,1,16,1.7ZM2.4,1.7A1.7,1.7,0,1,0,4.1,0,1.7,1.7,0,0,0,2.4,1.7Zm1.2,0a.5.5,0,1,1,.5.5A.5.5,0,0,1,3.6,1.7Zm3.176.166a.4.4,0,0,0-.4.339A2.205,2.205,0,0,1,4.1,4.154,2.205,2.205,0,0,1,1.823,2.205a.4.4,0,0,0-.4-.339H.4a.4.4,0,0,0-.4.4v10a.4.4,0,0,0,.4.4H11.8a.4.4,0,0,0,.4-.4v-10a.4.4,0,0,0-.4-.4Zm12.4,0a.4.4,0,0,0-.4.339A2.205,2.205,0,0,1,16.5,4.154a2.205,2.205,0,0,1-2.277-1.949.4.4,0,0,0-.4-.339H13.4a.4.4,0,0,0-.4.4v7.8a.4.4,0,0,0,.4.4h2.937a.4.4,0,0,0,.307-.143l3.263-3.9A.4.4,0,0,0,20,6.167v-3.9a.4.4,0,0,0-.4-.4ZM13.8,9.267v-2a.4.4,0,0,1,.4-.4h3.428a.4.4,0,0,1,.308.656l-1.667,2a.4.4,0,0,1-.307.144H14.2A.4.4,0,0,1,13.8,9.267Z" transform="translate(20 12.667) rotate(180)" fill="#e2002e"/>
</svg>
