<?xml version="1.0" encoding="UTF-8"?>
<svg width="127px" height="30px" viewBox="0 0 127 30" version="1.1" xmlns="http://www.w3.org/2000/svg" xmlns:xlink="http://www.w3.org/1999/xlink">
    <!-- Generator: Sketch 55.2 (78181) - https://sketchapp.com -->
    <title>opinioes</title>
    <desc>Created with Sketch.</desc>
    <g id="Symbols" stroke="none" stroke-width="1" fill="none" fill-rule="evenodd">
        <g id="Footer" transform="translate(-1002.000000, -1313.000000)">
            <g id="Selos">
                <g transform="translate(0.000000, 571.000000)">
                    <g transform="translate(0.000000, 581.000000)">
                        <g id="Group-10" transform="translate(0.000000, 75.000000)">
                            <g id="Group-37" transform="translate(391.000000, 38.000000)">
                                <g id="opinioes" transform="translate(609.000000, 47.000000)">
                                    <path d="M44.128,21.408 C44.661336,21.408 45.1479978,21.5306654 45.588,21.776 C46.0280022,22.0213346 46.3746654,22.3586645 46.628,22.788 C46.8813346,23.2173355 47.008,23.6906641 47.008,24.208 C47.008,24.7253359 46.8813346,25.1973312 46.628,25.624 C46.3746654,26.0506688 46.0266689,26.3866654 45.584,26.632 C45.1413311,26.8773346 44.6506694,27 44.112,27 L41.88,27 L41.88,21.408 L44.128,21.408 Z M44.144,26.504 C44.5653354,26.504 44.9519982,26.4026677 45.304,26.2 C45.6560018,25.9973323 45.9346656,25.7213351 46.14,25.372 C46.3453344,25.0226649 46.448,24.6346688 46.448,24.208 C46.448,23.7813312 46.344001,23.3920018 46.136,23.04 C45.927999,22.6879982 45.6466684,22.4106677 45.292,22.208 C44.9373316,22.0053323 44.5466688,21.904 44.12,21.904 L42.432,21.904 L42.432,26.504 L44.144,26.504 Z M48.224,21.408 L51.968,21.408 L51.968,21.904 L48.776,21.904 L48.776,23.904 L51.632,23.904 L51.632,24.4 L48.776,24.4 L48.776,26.504 L52.072,26.504 L52.072,27 L48.224,27 L48.224,21.408 Z M59.68,21.408 L60.224,21.408 L60.224,27 L59.64,27 L56.176,22.264 L56.176,27 L55.624,27 L55.624,21.408 L56.208,21.408 L59.68,26.144 L59.68,21.408 Z M64.368,21.36 C64.901336,21.36 65.3906644,21.4866654 65.836,21.74 C66.2813356,21.9933346 66.6346654,22.3359978 66.896,22.768 C67.1573346,23.2000022 67.288,23.6746641 67.288,24.192 C67.288,24.7093359 67.1573346,25.1866645 66.896,25.624 C66.6346654,26.0613355 66.2813356,26.4079987 65.836,26.664 C65.3906644,26.9200013 64.901336,27.048 64.368,27.048 C63.834664,27.048 63.3453356,26.9200013 62.9,26.664 C62.4546644,26.4079987 62.1013346,26.0613355 61.84,25.624 C61.5786654,25.1866645 61.448,24.7093359 61.448,24.192 C61.448,23.6746641 61.5786654,23.2000022 61.84,22.768 C62.1013346,22.3359978 62.4546644,21.9933346 62.9,21.74 C63.3453356,21.4866654 63.834664,21.36 64.368,21.36 Z M64.376,21.856 C63.9493312,21.856 63.5546685,21.959999 63.192,22.168 C62.8293315,22.376001 62.5413344,22.6586649 62.328,23.016 C62.1146656,23.3733351 62.008,23.7653312 62.008,24.192 C62.008,24.6186688 62.1146656,25.0133315 62.328,25.376 C62.5413344,25.7386685 62.8293315,26.0253323 63.192,26.236 C63.5546685,26.4466677 63.9493312,26.552 64.376,26.552 C64.7973354,26.552 65.1879982,26.4466677 65.548,26.236 C65.9080018,26.0253323 66.1946656,25.7386685 66.408,25.376 C66.6213344,25.0133315 66.728,24.6186688 66.728,24.192 C66.728,23.7653312 66.6213344,23.3733351 66.408,23.016 C66.1946656,22.6586649 65.9080018,22.376001 65.548,22.168 C65.1879982,21.959999 64.7973354,21.856 64.376,21.856 Z M71.608,22.32 C71.3786655,22.1759993 71.1280014,22.0653337 70.856,21.988 C70.5839986,21.9106663 70.3280012,21.872 70.088,21.872 C69.7039981,21.872 69.396,21.9479992 69.164,22.1 C68.9319988,22.2520008 68.816,22.4586654 68.816,22.72 C68.816,22.9493345 68.8799994,23.1359993 69.008,23.28 C69.1360006,23.4240007 69.2933324,23.5373329 69.48,23.62 C69.6666676,23.7026671 69.922665,23.7946662 70.248,23.896 C70.6266686,24.0080006 70.9319988,24.1186661 71.164,24.228 C71.396,24.3373339 71.5933325,24.495999 71.756,24.704 C71.9186675,24.912001 72,25.186665 72,25.528 C72,25.8266682 71.9160008,26.0906655 71.748,26.32 C71.5799992,26.5493345 71.3440015,26.726666 71.04,26.852 C70.7359985,26.977334 70.3866686,27.04 69.992,27.04 C69.6026647,27.04 69.2226685,26.9626674 68.852,26.808 C68.4813315,26.6533326 68.162668,26.4480013 67.896,26.192 L68.152,25.736 C68.4026679,25.9813346 68.6933317,26.1733326 69.024,26.312 C69.3546683,26.4506674 69.6799984,26.52 70,26.52 C70.4266688,26.52 70.7653321,26.4333342 71.016,26.26 C71.2666679,26.0866658 71.392,25.8533348 71.392,25.56 C71.392,25.3253322 71.3280006,25.1333341 71.2,24.984 C71.0719994,24.8346659 70.9146676,24.7200004 70.728,24.64 C70.5413324,24.5599996 70.2800017,24.4666672 69.944,24.36 C69.5653314,24.2426661 69.2613345,24.1320005 69.032,24.028 C68.8026655,23.9239995 68.6080008,23.7693344 68.448,23.564 C68.2879992,23.3586656 68.208,23.0906683 68.208,22.76 C68.208,22.4773319 68.2879992,22.2293344 68.448,22.016 C68.6080008,21.8026656 68.8319986,21.6386672 69.12,21.524 C69.4080014,21.4093328 69.7413314,21.352 70.12,21.352 C70.4240015,21.352 70.7293318,21.3973329 71.036,21.488 C71.3426682,21.5786671 71.6133322,21.6986659 71.848,21.848 L71.608,22.32 Z M76.472,22.32 C76.2426655,22.1759993 75.9920014,22.0653337 75.72,21.988 C75.4479986,21.9106663 75.1920012,21.872 74.952,21.872 C74.5679981,21.872 74.26,21.9479992 74.028,22.1 C73.7959988,22.2520008 73.68,22.4586654 73.68,22.72 C73.68,22.9493345 73.7439994,23.1359993 73.872,23.28 C74.0000006,23.4240007 74.1573324,23.5373329 74.344,23.62 C74.5306676,23.7026671 74.786665,23.7946662 75.112,23.896 C75.4906686,24.0080006 75.7959988,24.1186661 76.028,24.228 C76.26,24.3373339 76.4573325,24.495999 76.62,24.704 C76.7826675,24.912001 76.864,25.186665 76.864,25.528 C76.864,25.8266682 76.7800008,26.0906655 76.612,26.32 C76.4439992,26.5493345 76.2080015,26.726666 75.904,26.852 C75.5999985,26.977334 75.2506686,27.04 74.856,27.04 C74.4666647,27.04 74.0866685,26.9626674 73.716,26.808 C73.3453315,26.6533326 73.026668,26.4480013 72.76,26.192 L73.016,25.736 C73.2666679,25.9813346 73.5573317,26.1733326 73.888,26.312 C74.2186683,26.4506674 74.5439984,26.52 74.864,26.52 C75.2906688,26.52 75.6293321,26.4333342 75.88,26.26 C76.1306679,26.0866658 76.256,25.8533348 76.256,25.56 C76.256,25.3253322 76.1920006,25.1333341 76.064,24.984 C75.9359994,24.8346659 75.7786676,24.7200004 75.592,24.64 C75.4053324,24.5599996 75.1440017,24.4666672 74.808,24.36 C74.4293314,24.2426661 74.1253345,24.1320005 73.896,24.028 C73.6666655,23.9239995 73.4720008,23.7693344 73.312,23.564 C73.1519992,23.3586656 73.072,23.0906683 73.072,22.76 C73.072,22.4773319 73.1519992,22.2293344 73.312,22.016 C73.4720008,21.8026656 73.6959986,21.6386672 73.984,21.524 C74.2720014,21.4093328 74.6053314,21.352 74.984,21.352 C75.2880015,21.352 75.5933318,21.3973329 75.9,21.488 C76.2066682,21.5786671 76.4773322,21.6986659 76.712,21.848 L76.472,22.32 Z M80.608,21.36 C81.141336,21.36 81.6306644,21.4866654 82.076,21.74 C82.5213356,21.9933346 82.8746654,22.3359978 83.136,22.768 C83.3973346,23.2000022 83.528,23.6746641 83.528,24.192 C83.528,24.7093359 83.3973346,25.1866645 83.136,25.624 C82.8746654,26.0613355 82.5213356,26.4079987 82.076,26.664 C81.6306644,26.9200013 81.141336,27.048 80.608,27.048 C80.074664,27.048 79.5853356,26.9200013 79.14,26.664 C78.6946644,26.4079987 78.3413346,26.0613355 78.08,25.624 C77.8186654,25.1866645 77.688,24.7093359 77.688,24.192 C77.688,23.6746641 77.8186654,23.2000022 78.08,22.768 C78.3413346,22.3359978 78.6946644,21.9933346 79.14,21.74 C79.5853356,21.4866654 80.074664,21.36 80.608,21.36 Z M80.616,21.856 C80.1893312,21.856 79.7946685,21.959999 79.432,22.168 C79.0693315,22.376001 78.7813344,22.6586649 78.568,23.016 C78.3546656,23.3733351 78.248,23.7653312 78.248,24.192 C78.248,24.6186688 78.3546656,25.0133315 78.568,25.376 C78.7813344,25.7386685 79.0693315,26.0253323 79.432,26.236 C79.7946685,26.4466677 80.1893312,26.552 80.616,26.552 C81.0373354,26.552 81.4279982,26.4466677 81.788,26.236 C82.1480018,26.0253323 82.4346656,25.7386685 82.648,25.376 C82.8613344,25.0133315 82.968,24.6186688 82.968,24.192 C82.968,23.7653312 82.8613344,23.3733351 82.648,23.016 C82.4346656,22.6586649 82.1480018,22.376001 81.788,22.168 C81.4279982,21.959999 81.0373354,21.856 80.616,21.856 Z M87.848,22.32 C87.6186655,22.1759993 87.3680014,22.0653337 87.096,21.988 C86.8239986,21.9106663 86.5680012,21.872 86.328,21.872 C85.9439981,21.872 85.636,21.9479992 85.404,22.1 C85.1719988,22.2520008 85.056,22.4586654 85.056,22.72 C85.056,22.9493345 85.1199994,23.1359993 85.248,23.28 C85.3760006,23.4240007 85.5333324,23.5373329 85.72,23.62 C85.9066676,23.7026671 86.162665,23.7946662 86.488,23.896 C86.8666686,24.0080006 87.1719988,24.1186661 87.404,24.228 C87.636,24.3373339 87.8333325,24.495999 87.996,24.704 C88.1586675,24.912001 88.24,25.186665 88.24,25.528 C88.24,25.8266682 88.1560008,26.0906655 87.988,26.32 C87.8199992,26.5493345 87.5840015,26.726666 87.28,26.852 C86.9759985,26.977334 86.6266686,27.04 86.232,27.04 C85.8426647,27.04 85.4626685,26.9626674 85.092,26.808 C84.7213315,26.6533326 84.402668,26.4480013 84.136,26.192 L84.392,25.736 C84.6426679,25.9813346 84.9333317,26.1733326 85.264,26.312 C85.5946683,26.4506674 85.9199984,26.52 86.24,26.52 C86.6666688,26.52 87.0053321,26.4333342 87.256,26.26 C87.5066679,26.0866658 87.632,25.8533348 87.632,25.56 C87.632,25.3253322 87.5680006,25.1333341 87.44,24.984 C87.3119994,24.8346659 87.1546676,24.7200004 86.968,24.64 C86.7813324,24.5599996 86.5200017,24.4666672 86.184,24.36 C85.8053314,24.2426661 85.5013345,24.1320005 85.272,24.028 C85.0426655,23.9239995 84.8480008,23.7693344 84.688,23.564 C84.5279992,23.3586656 84.448,23.0906683 84.448,22.76 C84.448,22.4773319 84.5279992,22.2293344 84.688,22.016 C84.8480008,21.8026656 85.0719986,21.6386672 85.36,21.524 C85.6480014,21.4093328 85.9813314,21.352 86.36,21.352 C86.6640015,21.352 86.9693318,21.3973329 87.276,21.488 C87.5826682,21.5786671 87.8533322,21.6986659 88.088,21.848 L87.848,22.32 Z M95.872,22.544 C95.6479989,22.3253322 95.3893348,22.1546673 95.096,22.032 C94.8026652,21.9093327 94.4986682,21.848 94.184,21.848 C93.7519978,21.848 93.3560018,21.951999 92.996,22.16 C92.6359982,22.368001 92.3506677,22.6519982 92.14,23.012 C91.9293323,23.3720018 91.824,23.7653312 91.824,24.192 C91.824,24.6186688 91.9293323,25.0106649 92.14,25.368 C92.3506677,25.7253351 92.6359982,26.0093323 92.996,26.22 C93.3560018,26.4306677 93.7519978,26.536 94.184,26.536 C94.4933349,26.536 94.7946652,26.4760006 95.088,26.356 C95.3813348,26.2359994 95.6426655,26.0693344 95.872,25.856 L96.208,26.216 C95.9306653,26.4720013 95.6133351,26.6746659 95.256,26.824 C94.8986649,26.9733341 94.5333352,27.048 94.16,27.048 C93.6319974,27.048 93.1466689,26.9200013 92.704,26.664 C92.2613311,26.4079987 91.910668,26.0613355 91.652,25.624 C91.393332,25.1866645 91.264,24.7093359 91.264,24.192 C91.264,23.6746641 91.3946654,23.2000022 91.656,22.768 C91.9173346,22.3359978 92.2706644,21.9933346 92.716,21.74 C93.1613356,21.4866654 93.6479974,21.36 94.176,21.36 C94.5546686,21.36 94.9199982,21.430666 95.272,21.572 C95.6240018,21.713334 95.933332,21.9093321 96.2,22.16 L95.872,22.544 Z M97.416,21.408 L97.968,21.408 L97.968,26.504 L100.432,26.504 L100.432,27 L97.416,27 L97.416,21.408 Z M101.52,21.408 L102.072,21.408 L102.072,27 L101.52,27 L101.52,21.408 Z M103.832,21.408 L107.576,21.408 L107.576,21.904 L104.384,21.904 L104.384,23.904 L107.24,23.904 L107.24,24.4 L104.384,24.4 L104.384,26.504 L107.68,26.504 L107.68,27 L103.832,27 L103.832,21.408 Z M113.088,21.408 L113.632,21.408 L113.632,27 L113.048,27 L109.584,22.264 L109.584,27 L109.032,27 L109.032,21.408 L109.616,21.408 L113.088,26.144 L113.088,21.408 Z M114.608,21.4 L118.856,21.4 L118.856,21.904 L117.008,21.904 L117.008,27 L116.456,27 L116.456,21.904 L114.608,21.904 L114.608,21.4 Z M119.824,21.408 L123.568,21.408 L123.568,21.904 L120.376,21.904 L120.376,23.904 L123.232,23.904 L123.232,24.4 L120.376,24.4 L120.376,26.504 L123.672,26.504 L123.672,27 L119.824,27 L119.824,21.408 Z M128.128,22.32 C127.898666,22.1759993 127.648001,22.0653337 127.376,21.988 C127.103999,21.9106663 126.848001,21.872 126.608,21.872 C126.223998,21.872 125.916,21.9479992 125.684,22.1 C125.451999,22.2520008 125.336,22.4586654 125.336,22.72 C125.336,22.9493345 125.399999,23.1359993 125.528,23.28 C125.656001,23.4240007 125.813332,23.5373329 126,23.62 C126.186668,23.7026671 126.442665,23.7946662 126.768,23.896 C127.146669,24.0080006 127.451999,24.1186661 127.684,24.228 C127.916,24.3373339 128.113333,24.495999 128.276,24.704 C128.438667,24.912001 128.52,25.186665 128.52,25.528 C128.52,25.8266682 128.436001,26.0906655 128.268,26.32 C128.099999,26.5493345 127.864002,26.726666 127.56,26.852 C127.255998,26.977334 126.906669,27.04 126.512,27.04 C126.122665,27.04 125.742669,26.9626674 125.372,26.808 C125.001331,26.6533326 124.682668,26.4480013 124.416,26.192 L124.672,25.736 C124.922668,25.9813346 125.213332,26.1733326 125.544,26.312 C125.874668,26.4506674 126.199998,26.52 126.52,26.52 C126.946669,26.52 127.285332,26.4333342 127.536,26.26 C127.786668,26.0866658 127.912,25.8533348 127.912,25.56 C127.912,25.3253322 127.848001,25.1333341 127.72,24.984 C127.591999,24.8346659 127.434668,24.7200004 127.248,24.64 C127.061332,24.5599996 126.800002,24.4666672 126.464,24.36 C126.085331,24.2426661 125.781334,24.1320005 125.552,24.028 C125.322666,23.9239995 125.128001,23.7693344 124.968,23.564 C124.807999,23.3586656 124.728,23.0906683 124.728,22.76 C124.728,22.4773319 124.807999,22.2293344 124.968,22.016 C125.128001,21.8026656 125.351999,21.6386672 125.64,21.524 C125.928001,21.4093328 126.261331,21.352 126.64,21.352 C126.944002,21.352 127.249332,21.3973329 127.556,21.488 C127.862668,21.5786671 128.133332,21.6986659 128.368,21.848 L128.128,22.32 Z" id="DENOSSOSCLIENTES" fill="#000000" fill-rule="nonzero"></path>
                                    <path d="M45.01,10.86 C45.7300036,10.86 46.3816638,11.0166651 46.965,11.33 C47.5483362,11.6433349 48.0049984,12.0749973 48.335,12.625 C48.6650017,13.1750028 48.83,13.7933299 48.83,14.48 C48.83,15.1733368 48.6650017,15.7983305 48.335,16.355 C48.0049984,16.9116694 47.5483362,17.3483317 46.965,17.665 C46.3816638,17.9816682 45.7300036,18.14 45.01,18.14 C44.2833297,18.14 43.6300029,17.9816682 43.05,17.665 C42.4699971,17.3483317 42.0150017,16.9116694 41.685,16.355 C41.3549984,15.7983305 41.19,15.1733368 41.19,14.48 C41.19,13.7933299 41.3549984,13.1750028 41.685,12.625 C42.0150017,12.0749973 42.4699971,11.6433349 43.05,11.33 C43.6300029,11.0166651 44.2833297,10.86 45.01,10.86 Z M45.04,12.59 C44.7333318,12.59 44.4483346,12.6733325 44.185,12.84 C43.9216653,13.0066675 43.7116675,13.2349986 43.555,13.525 C43.3983325,13.8150015 43.32,14.1366649 43.32,14.49 C43.32,14.8433351 43.3983325,15.1666652 43.555,15.46 C43.7116675,15.7533348 43.9216653,15.9849992 44.185,16.155 C44.4483346,16.3250009 44.7333318,16.41 45.04,16.41 C45.3400015,16.41 45.618332,16.3250009 45.875,16.155 C46.131668,15.9849992 46.3333326,15.7550014 46.48,15.465 C46.6266674,15.1749985 46.7,14.8500018 46.7,14.49 C46.7,14.1366649 46.6266674,13.8150015 46.48,13.525 C46.3333326,13.2349986 46.1333346,13.0066675 45.88,12.84 C45.6266654,12.6733325 45.3466682,12.59 45.04,12.59 Z M52.79,10.99 C53.6966712,10.99 54.3983309,11.2066645 54.895,11.64 C55.3916691,12.0733355 55.64,12.6866627 55.64,13.48 C55.64,14.3133375 55.3916691,14.9599977 54.895,15.42 C54.3983309,15.8800023 53.6966712,16.11 52.79,16.11 L51.69,16.12 L51.69,18 L49.61,18 L49.61,10.99 L52.79,10.99 Z M52.69,14.51 C53.0033349,14.51 53.2449991,14.4266675 53.415,14.26 C53.5850009,14.0933325 53.67,13.8533349 53.67,13.54 C53.67,13.2333318 53.5850009,12.9983341 53.415,12.835 C53.2449991,12.6716659 53.0033349,12.59 52.69,12.59 L51.69,12.59 L51.69,14.51 L52.69,14.51 Z M56.44,10.99 L58.52,10.99 L58.52,18 L56.44,18 L56.44,10.99 Z M64.45,10.99 L66.35,10.99 L66.35,18 L64.58,18 L61.61,14.1 L61.61,18 L59.7,18 L59.7,10.99 L61.48,10.99 L64.45,14.9 L64.45,10.99 Z M67.53,10.99 L69.61,10.99 L69.61,18 L67.53,18 L67.53,10.99 Z M74.21,10.86 C74.9300036,10.86 75.5816637,11.0166651 76.165,11.33 C76.7483362,11.6433349 77.2049983,12.0749973 77.535,12.625 C77.8650016,13.1750028 78.03,13.7933299 78.03,14.48 C78.03,15.1733368 77.8650016,15.7983305 77.535,16.355 C77.2049983,16.9116694 76.7483362,17.3483317 76.165,17.665 C75.5816637,17.9816682 74.9300036,18.14 74.21,18.14 C73.4833297,18.14 72.8300029,17.9816682 72.25,17.665 C71.6699971,17.3483317 71.2150017,16.9116694 70.885,16.355 C70.5549984,15.7983305 70.39,15.1733368 70.39,14.48 C70.39,13.7933299 70.5549984,13.1750028 70.885,12.625 C71.2150017,12.0749973 71.6699971,11.6433349 72.25,11.33 C72.8300029,11.0166651 73.4833297,10.86 74.21,10.86 Z M74.24,12.59 C73.9333318,12.59 73.6483347,12.6733325 73.385,12.84 C73.1216654,13.0066675 72.9116674,13.2349986 72.755,13.525 C72.5983325,13.8150015 72.52,14.1366649 72.52,14.49 C72.52,14.8433351 72.5983325,15.1666652 72.755,15.46 C72.9116674,15.7533348 73.1216654,15.9849992 73.385,16.155 C73.6483347,16.3250009 73.9333318,16.41 74.24,16.41 C74.5400015,16.41 74.8183321,16.3250009 75.075,16.155 C75.3316679,15.9849992 75.5333326,15.7550014 75.68,15.465 C75.8266674,15.1749985 75.9,14.8500018 75.9,14.49 C75.9,14.1366649 75.8266674,13.8150015 75.68,13.525 C75.5333326,13.2349986 75.3333346,13.0066675 75.08,12.84 C74.8266654,12.6733325 74.5466682,12.59 74.24,12.59 Z M76.14,8.81 C76.14,9.3766695 76.0583342,9.7966653 75.895,10.07 C75.7316658,10.3433347 75.4700018,10.48 75.11,10.48 C74.9499992,10.48 74.803334,10.4566669 74.67,10.41 C74.536666,10.3633331 74.3833342,10.2966671 74.21,10.21 C74.009999,10.1033328 73.8666671,10.05 73.78,10.05 C73.6066658,10.05 73.5133334,10.183332 73.5,10.45 L72.41,10.45 C72.41,9.8899972 72.4916659,9.47166805 72.655,9.195 C72.8183341,8.91833195 73.0799982,8.78 73.44,8.78 C73.6000008,8.78 73.7483326,8.8033331 73.885,8.85 C74.0216674,8.8966669 74.1799991,8.9633329 74.36,9.05 C74.4333337,9.0900002 74.5066663,9.12499985 74.58,9.155 C74.6533337,9.18500015 74.7133331,9.2 74.76,9.2 C74.8600005,9.2 74.9333331,9.16833365 74.98,9.105 C75.0266669,9.04166635 75.0533333,8.943334 75.06,8.81 L76.14,8.81 Z M78.81,10.99 L84.54,10.99 L84.54,12.59 L80.89,12.59 L80.89,13.69 L84.2,13.69 L84.2,15.29 L80.89,15.29 L80.89,16.4 L84.64,16.4 L84.64,18 L78.81,18 L78.81,10.99 Z M90.68,13.25 C90.3066648,13.0299989 89.8966689,12.8433341 89.45,12.69 C89.0033311,12.5366659 88.6366681,12.46 88.35,12.46 C88.17,12.46 88.0283338,12.4949997 87.925,12.565 C87.8216661,12.6350003 87.77,12.736666 87.77,12.87 C87.77,13.0566676 87.869999,13.2016662 88.07,13.305 C88.270001,13.4083339 88.5866645,13.5199994 89.02,13.64 C89.5133358,13.7800007 89.9199984,13.921666 90.24,14.065 C90.5600016,14.2083341 90.8383321,14.4266652 91.075,14.72 C91.3116678,15.0133348 91.43,15.3999976 91.43,15.88 C91.43,16.3666691 91.3016679,16.7783316 91.045,17.115 C90.788332,17.4516683 90.4416688,17.7033325 90.005,17.87 C89.5683311,18.0366675 89.0800027,18.12 88.54,18.12 C87.939997,18.12 87.3383363,18.0183344 86.735,17.815 C86.1316637,17.6116656 85.6100022,17.3333351 85.17,16.98 L85.95,15.4 C86.3033351,15.7066682 86.7349974,15.964999 87.245,16.175 C87.7550026,16.385001 88.1933315,16.49 88.56,16.49 C88.7866678,16.49 88.9633327,16.4466671 89.09,16.36 C89.2166673,16.2733329 89.28,16.1500008 89.28,15.99 C89.28,15.7966657 89.1766677,15.6483339 88.97,15.545 C88.7633323,15.4416661 88.4433355,15.3333339 88.01,15.22 C87.5233309,15.0933327 87.1200016,14.9616673 86.8,14.825 C86.4799984,14.6883327 86.2033345,14.4766681 85.97,14.19 C85.7366655,13.9033319 85.62,13.526669 85.62,13.06 C85.62,12.6066644 85.7399988,12.2116684 85.98,11.875 C86.2200012,11.5383316 86.5583311,11.2800009 86.995,11.1 C87.4316688,10.9199991 87.9399971,10.83 88.52,10.83 C89.0466693,10.83 89.5699974,10.9049992 90.09,11.055 C90.6100026,11.2050007 91.0633314,11.4033321 91.45,11.65 L90.68,13.25 Z M98.41,18 L97.48,16.11 L96.38,16.11 L96.38,18 L94.3,18 L94.3,10.99 L97.57,10.99 C98.5100047,10.99 99.2383308,11.2066645 99.755,11.64 C100.271669,12.0733355 100.53,12.6866627 100.53,13.48 C100.53,13.9933359 100.428334,14.4383314 100.225,14.815 C100.021666,15.1916685 99.7300019,15.49 99.35,15.71 L100.77,18 L98.41,18 Z M96.38,14.51 L97.57,14.51 C97.8833349,14.51 98.1249991,14.4266675 98.295,14.26 C98.4650008,14.0933325 98.55,13.8533349 98.55,13.54 C98.55,13.2333318 98.4650008,12.9983341 98.295,12.835 C98.1249991,12.6716659 97.8833349,12.59 97.57,12.59 L96.38,12.59 L96.38,14.51 Z M101.55,10.99 L107.28,10.99 L107.28,12.59 L103.63,12.59 L103.63,13.69 L106.94,13.69 L106.94,15.29 L103.63,15.29 L103.63,16.4 L107.38,16.4 L107.38,18 L101.55,18 L101.55,10.99 Z M113.51,18 L113.1,16.88 L110.27,16.88 L109.85,18 L107.71,18 L110.7,10.99 L112.84,10.99 L115.73,18 L113.51,18 Z M110.85,15.36 L112.55,15.36 L111.71,13.07 L110.85,15.36 Z M116.24,10.99 L118.32,10.99 L118.32,18 L116.24,18 L116.24,10.99 Z M124.54,13.25 C124.166665,13.0299989 123.756669,12.8433341 123.31,12.69 C122.863331,12.5366659 122.496668,12.46 122.21,12.46 C122.03,12.46 121.888334,12.4949997 121.785,12.565 C121.681666,12.6350003 121.63,12.736666 121.63,12.87 C121.63,13.0566676 121.729999,13.2016662 121.93,13.305 C122.130001,13.4083339 122.446664,13.5199994 122.88,13.64 C123.373336,13.7800007 123.779998,13.921666 124.1,14.065 C124.420002,14.2083341 124.698332,14.4266652 124.935,14.72 C125.171668,15.0133348 125.29,15.3999976 125.29,15.88 C125.29,16.3666691 125.161668,16.7783316 124.905,17.115 C124.648332,17.4516683 124.301669,17.7033325 123.865,17.87 C123.428331,18.0366675 122.940003,18.12 122.4,18.12 C121.799997,18.12 121.198336,18.0183344 120.595,17.815 C119.991664,17.6116656 119.470002,17.3333351 119.03,16.98 L119.81,15.4 C120.163335,15.7066682 120.594997,15.964999 121.105,16.175 C121.615003,16.385001 122.053331,16.49 122.42,16.49 C122.646668,16.49 122.823333,16.4466671 122.95,16.36 C123.076667,16.2733329 123.14,16.1500008 123.14,15.99 C123.14,15.7966657 123.036668,15.6483339 122.83,15.545 C122.623332,15.4416661 122.303336,15.3333339 121.87,15.22 C121.383331,15.0933327 120.980002,14.9616673 120.66,14.825 C120.339998,14.6883327 120.063334,14.4766681 119.83,14.19 C119.596666,13.9033319 119.48,13.526669 119.48,13.06 C119.48,12.6066644 119.599999,12.2116684 119.84,11.875 C120.080001,11.5383316 120.418331,11.2800009 120.855,11.1 C121.291669,10.9199991 121.799997,10.83 122.38,10.83 C122.906669,10.83 123.429997,10.9049992 123.95,11.055 C124.470003,11.2050007 124.923331,11.4033321 125.31,11.65 L124.54,13.25 Z" id="OPINIÕESREAIS" fill="#000000" fill-rule="nonzero"></path>
                                    <path d="M17.5,28.0806478 L9.92925669,30.713454 C8.88597314,31.0762669 7.74610674,30.5246365 7.38329383,29.4813529 C7.30530866,29.2571033 7.26787545,29.0207594 7.27274682,28.7833866 L7.43720598,20.7696 L2.59377014,14.3829771 C1.92632221,13.5028708 2.09871585,12.2483303 2.97882212,11.5808823 C3.16799741,11.4374171 3.38120635,11.3287817 3.60846661,11.2600624 L11.2808513,8.94007613 L15.8581866,2.3601199 C16.4889647,1.4533714 17.7353762,1.22965315 18.6421247,1.8604312 C18.8370266,1.99601439 19.0062302,2.16521797 19.1418134,2.3601199 L23.7191487,8.94007613 L31.3915334,11.2600624 C32.4488236,11.5797673 33.0467546,12.6960424 32.7270498,13.7533326 C32.6583305,13.9805928 32.5496951,14.1938018 32.4062299,14.3829771 L27.562794,20.7696 L27.7272532,28.7833866 C27.7499164,29.8877236 26.8730466,30.8013378 25.7687096,30.824001 C25.5313368,30.8288724 25.2949929,30.7914392 25.0707433,30.713454 L17.5,28.0806478 Z" id="Star" fill="#FFD760"></path>
                                    <path d="M16.193,18.345 L16.193,19.713 L15.428,19.713 L15.428,21 L13.718,21 L13.718,19.713 L10.946,19.713 L10.946,18.48 L12.611,14.691 L14.375,14.691 L12.827,18.345 L13.718,18.345 L13.718,17.067 L15.428,17.067 L15.428,18.345 L16.193,18.345 Z M17.642,19.38 C17.8940013,19.38 18.0994992,19.4579992 18.2585,19.614 C18.4175008,19.7700008 18.497,19.9709988 18.497,20.217 C18.497,20.4690013 18.4175008,20.6744992 18.2585,20.8335 C18.0994992,20.9925008 17.8940013,21.072 17.642,21.072 C17.3959988,21.072 17.1935008,20.9925008 17.0345,20.8335 C16.8754992,20.6744992 16.796,20.4690013 16.796,20.217 C16.796,19.9709988 16.8754992,19.7700008 17.0345,19.614 C17.1935008,19.4579992 17.3959988,19.38 17.642,19.38 Z M21.458,14.61 C21.9140023,14.61 22.3144983,14.6819993 22.6595,14.826 C23.0045017,14.9700007 23.2699991,15.1724987 23.456,15.4335 C23.6420009,15.6945013 23.735,15.9989983 23.735,16.347 C23.735,16.5990013 23.6720006,16.8404988 23.546,17.0715 C23.4199994,17.3025012 23.2520011,17.4869993 23.042,17.625 C23.3540016,17.7810008 23.6014991,18.0014986 23.7845,18.2865 C23.9675009,18.5715014 24.059,18.8819983 24.059,19.218 C24.059,19.5900019 23.9525011,19.9169986 23.7395,20.199 C23.5264989,20.4810014 23.225002,20.6984992 22.835,20.8515 C22.4449981,21.0045008 21.9890026,21.081 21.467,21.081 C20.9509974,21.081 20.496502,21.0060007 20.1035,20.856 C19.710498,20.7059992 19.4075011,20.4930014 19.1945,20.217 C18.9814989,19.9409986 18.875,19.6200018 18.875,19.254 C18.875,18.9119983 18.975499,18.5940015 19.1765,18.3 C19.377501,18.0059985 19.6459983,17.7810008 19.982,17.625 C19.7479988,17.4689992 19.5605007,17.2710012 19.4195,17.031 C19.2784993,16.7909988 19.208,16.5450013 19.208,16.293 C19.208,15.9569983 19.3009991,15.6615013 19.487,15.4065 C19.6730009,15.1514987 19.9354983,14.9550007 20.2745,14.817 C20.6135017,14.6789993 21.0079978,14.61 21.458,14.61 Z M21.467,15.834 C21.2389989,15.834 21.0635006,15.8864995 20.9405,15.9915 C20.8174994,16.0965005 20.756,16.247999 20.756,16.446 C20.756,16.6320009 20.8174994,16.7759995 20.9405,16.878 C21.0635006,16.9800005 21.2389989,17.031 21.467,17.031 C21.6950011,17.031 21.8704994,16.9800005 21.9935,16.878 C22.1165006,16.7759995 22.178,16.6320009 22.178,16.446 C22.178,16.247999 22.1165006,16.0965005 21.9935,15.9915 C21.8704994,15.8864995 21.6950011,15.834 21.467,15.834 Z M21.467,18.363 C21.1969987,18.363 20.9900007,18.4229994 20.846,18.543 C20.7019993,18.6630006 20.63,18.8369989 20.63,19.065 C20.63,19.2810011 20.7019993,19.4474994 20.846,19.5645 C20.9900007,19.6815006 21.1969987,19.74 21.467,19.74 C21.7430014,19.74 21.9529993,19.6815006 22.097,19.5645 C22.2410007,19.4474994 22.313,19.2810011 22.313,19.065 C22.313,18.8369989 22.2410007,18.6630006 22.097,18.543 C21.9529993,18.4229994 21.7430014,18.363 21.467,18.363 Z" id="4.8" fill="#000000" fill-rule="nonzero"></path>
                                </g>
                            </g>
                        </g>
                    </g>
                </g>
            </g>
        </g>
    </g>
</svg>