<svg xmlns="http://www.w3.org/2000/svg" xmlns:xlink="http://www.w3.org/1999/xlink" width="127" zoomAndPan="magnify" viewBox="0 0 95.25 30.000001" height="40" preserveAspectRatio="xMidYMid meet" version="1.0"><defs><g/><clipPath id="id1"><path d="M 17 17 L 26.914062 17 L 26.914062 26.855469 L 17 26.855469 Z M 17 17 " clip-rule="nonzero"/></clipPath><clipPath id="id2"><path d="M 18 18 L 26.914062 18 L 26.914062 26.855469 L 18 26.855469 Z M 18 18 " clip-rule="nonzero"/></clipPath><clipPath id="id3"><path d="M 3.847656 3 L 22 3 L 22 22 L 3.847656 22 Z M 3.847656 3 " clip-rule="nonzero"/></clipPath><clipPath id="id4"><path d="M 23 23 L 30 23 L 30 29.03125 L 23 29.03125 Z M 23 23 " clip-rule="nonzero"/></clipPath><clipPath id="id5"><path d="M 26.429688 23.6875 L 29.507812 26.769531 L 26.429688 29.847656 L 23.351562 26.769531 Z M 26.429688 23.6875 " clip-rule="nonzero"/></clipPath></defs><g fill="#000000" fill-opacity="1"><g transform="translate(26.445057, 11.904516)"><g><path d="M 2.484375 0 L 1.03125 -3.8125 L 1.015625 -3.8125 C 1.035156 -3.507812 1.046875 -3.148438 1.046875 -2.734375 L 1.046875 0 L 0.59375 0 L 0.59375 -4.296875 L 1.34375 -4.296875 L 2.703125 -0.75 L 2.71875 -0.75 L 4.09375 -4.296875 L 4.84375 -4.296875 L 4.84375 0 L 4.34375 0 L 4.34375 -2.765625 C 4.34375 -3.085938 4.359375 -3.429688 4.390625 -3.796875 L 4.359375 -3.796875 L 2.890625 0 Z M 2.484375 0 "/></g></g></g><g fill="#000000" fill-opacity="1"><g transform="translate(32.483769, 11.904516)"><g><path d="M 4.3125 -2.15625 C 4.3125 -1.46875 4.140625 -0.925781 3.796875 -0.53125 C 3.453125 -0.132812 2.96875 0.0625 2.34375 0.0625 C 1.707031 0.0625 1.21875 -0.128906 0.875 -0.515625 C 0.53125 -0.898438 0.359375 -1.445312 0.359375 -2.15625 C 0.359375 -2.851562 0.53125 -3.394531 0.875 -3.78125 C 1.226562 -4.164062 1.722656 -4.359375 2.359375 -4.359375 C 2.972656 -4.359375 3.453125 -4.160156 3.796875 -3.765625 C 4.140625 -3.378906 4.3125 -2.84375 4.3125 -2.15625 Z M 0.890625 -2.15625 C 0.890625 -1.570312 1.015625 -1.128906 1.265625 -0.828125 C 1.515625 -0.523438 1.875 -0.375 2.34375 -0.375 C 2.820312 -0.375 3.179688 -0.523438 3.421875 -0.828125 C 3.671875 -1.128906 3.796875 -1.570312 3.796875 -2.15625 C 3.796875 -2.726562 3.671875 -3.164062 3.421875 -3.46875 C 3.179688 -3.769531 2.828125 -3.921875 2.359375 -3.921875 C 1.878906 -3.921875 1.515625 -3.769531 1.265625 -3.46875 C 1.015625 -3.164062 0.890625 -2.726562 0.890625 -2.15625 Z M 0.890625 -2.15625 "/></g></g></g><g fill="#000000" fill-opacity="1"><g transform="translate(37.775654, 11.904516)"><g><path d="M 3.046875 -4.296875 L 3.578125 -4.296875 L 2.03125 0 L 1.546875 0 L 0 -4.296875 L 0.53125 -4.296875 L 1.515625 -1.515625 C 1.628906 -1.191406 1.71875 -0.878906 1.78125 -0.578125 C 1.851562 -0.898438 1.945312 -1.21875 2.0625 -1.53125 Z M 3.046875 -4.296875 "/></g></g></g><g fill="#000000" fill-opacity="1"><g transform="translate(41.961999, 11.904516)"><g><path d="M 0.59375 0 L 0.59375 -4.296875 L 1.09375 -4.296875 L 1.09375 0 Z M 0.59375 0 "/></g></g></g><g fill="#000000" fill-opacity="1"><g transform="translate(44.243055, 11.904516)"><g><path d="M 2.484375 0 L 1.03125 -3.8125 L 1.015625 -3.8125 C 1.035156 -3.507812 1.046875 -3.148438 1.046875 -2.734375 L 1.046875 0 L 0.59375 0 L 0.59375 -4.296875 L 1.34375 -4.296875 L 2.703125 -0.75 L 2.71875 -0.75 L 4.09375 -4.296875 L 4.84375 -4.296875 L 4.84375 0 L 4.34375 0 L 4.34375 -2.765625 C 4.34375 -3.085938 4.359375 -3.429688 4.390625 -3.796875 L 4.359375 -3.796875 L 2.890625 0 Z M 2.484375 0 "/></g></g></g><g fill="#000000" fill-opacity="1"><g transform="translate(50.281768, 11.904516)"><g><path d="M 2.984375 0 L 0.59375 0 L 0.59375 -4.296875 L 2.984375 -4.296875 L 2.984375 -3.84375 L 1.09375 -3.84375 L 1.09375 -2.46875 L 2.875 -2.46875 L 2.875 -2.03125 L 1.09375 -2.03125 L 1.09375 -0.453125 L 2.984375 -0.453125 Z M 2.984375 0 "/></g></g></g><g fill="#000000" fill-opacity="1"><g transform="translate(54.232893, 11.904516)"><g><path d="M 3.9375 0 L 3.375 0 L 1.03125 -3.609375 L 1 -3.609375 C 1.03125 -3.179688 1.046875 -2.789062 1.046875 -2.4375 L 1.046875 0 L 0.59375 0 L 0.59375 -4.296875 L 1.15625 -4.296875 L 3.5 -0.703125 L 3.515625 -0.703125 C 3.515625 -0.753906 3.503906 -0.921875 3.484375 -1.203125 C 3.472656 -1.492188 3.472656 -1.703125 3.484375 -1.828125 L 3.484375 -4.296875 L 3.9375 -4.296875 Z M 3.9375 0 "/></g></g></g><g fill="#000000" fill-opacity="1"><g transform="translate(59.374825, 11.904516)"><g><path d="M 1.90625 0 L 1.40625 0 L 1.40625 -3.84375 L 0.046875 -3.84375 L 0.046875 -4.296875 L 3.265625 -4.296875 L 3.265625 -3.84375 L 1.90625 -3.84375 Z M 1.90625 0 "/></g></g></g><g fill="#000000" fill-opacity="1"><g transform="translate(63.308307, 11.904516)"><g><path d="M 4.3125 -2.15625 C 4.3125 -1.46875 4.140625 -0.925781 3.796875 -0.53125 C 3.453125 -0.132812 2.96875 0.0625 2.34375 0.0625 C 1.707031 0.0625 1.21875 -0.128906 0.875 -0.515625 C 0.53125 -0.898438 0.359375 -1.445312 0.359375 -2.15625 C 0.359375 -2.851562 0.53125 -3.394531 0.875 -3.78125 C 1.226562 -4.164062 1.722656 -4.359375 2.359375 -4.359375 C 2.972656 -4.359375 3.453125 -4.160156 3.796875 -3.765625 C 4.140625 -3.378906 4.3125 -2.84375 4.3125 -2.15625 Z M 0.890625 -2.15625 C 0.890625 -1.570312 1.015625 -1.128906 1.265625 -0.828125 C 1.515625 -0.523438 1.875 -0.375 2.34375 -0.375 C 2.820312 -0.375 3.179688 -0.523438 3.421875 -0.828125 C 3.671875 -1.128906 3.796875 -1.570312 3.796875 -2.15625 C 3.796875 -2.726562 3.671875 -3.164062 3.421875 -3.46875 C 3.179688 -3.769531 2.828125 -3.921875 2.359375 -3.921875 C 1.878906 -3.921875 1.515625 -3.769531 1.265625 -3.46875 C 1.015625 -3.164062 0.890625 -2.726562 0.890625 -2.15625 Z M 0.890625 -2.15625 "/></g></g></g><g fill="#000000" fill-opacity="1"><g transform="translate(68.596665, 11.904516)"><g/></g></g><g fill="#271675" fill-opacity="1"><g transform="translate(26.445057, 20.435199)"><g><path d="M 3.21875 0 L 1.640625 0 L 1.640625 -4.578125 L 0.203125 -4.578125 L 0.203125 -5.859375 L 4.65625 -5.859375 L 4.65625 -4.578125 L 3.21875 -4.578125 Z M 3.21875 0 "/></g></g></g><g fill="#271675" fill-opacity="1"><g transform="translate(31.628735, 20.435199)"><g><path d="M 2.5625 -5.859375 C 3.09375 -5.859375 3.535156 -5.796875 3.890625 -5.671875 C 4.242188 -5.546875 4.507812 -5.351562 4.6875 -5.09375 C 4.863281 -4.832031 4.953125 -4.515625 4.953125 -4.140625 C 4.953125 -3.898438 4.910156 -3.679688 4.828125 -3.484375 C 4.742188 -3.285156 4.628906 -3.109375 4.484375 -2.953125 C 4.335938 -2.804688 4.160156 -2.675781 3.953125 -2.5625 L 5.65625 0 L 3.859375 0 L 2.625 -2.140625 L 2.21875 -2.140625 L 2.21875 0 L 0.640625 0 L 0.640625 -5.859375 Z M 2.53125 -4.671875 L 2.21875 -4.671875 L 2.21875 -3.328125 L 2.515625 -3.328125 C 2.753906 -3.328125 2.953125 -3.378906 3.109375 -3.484375 C 3.265625 -3.585938 3.34375 -3.78125 3.34375 -4.0625 C 3.34375 -4.25 3.28125 -4.394531 3.15625 -4.5 C 3.03125 -4.613281 2.820312 -4.671875 2.53125 -4.671875 Z M 2.53125 -4.671875 "/></g></g></g><g fill="#271675" fill-opacity="1"><g transform="translate(37.518565, 20.435199)"><g><path d="M 4.234375 0 L 3.9375 -1.09375 L 2.03125 -1.09375 L 1.734375 0 L 0 0 L 1.921875 -5.890625 L 4.03125 -5.890625 L 5.96875 0 Z M 3.609375 -2.40625 L 3.359375 -3.359375 C 3.335938 -3.460938 3.300781 -3.609375 3.25 -3.796875 C 3.195312 -3.992188 3.144531 -4.195312 3.09375 -4.40625 C 3.039062 -4.613281 3.003906 -4.785156 2.984375 -4.921875 C 2.960938 -4.785156 2.925781 -4.617188 2.875 -4.421875 C 2.832031 -4.234375 2.785156 -4.039062 2.734375 -3.84375 C 2.691406 -3.65625 2.65625 -3.492188 2.625 -3.359375 L 2.375 -2.40625 Z M 3.609375 -2.40625 "/></g></g></g><g fill="#271675" fill-opacity="1"><g transform="translate(43.813632, 20.435199)"><g><path d="M 6.21875 0 L 4.140625 0 L 2 -4.140625 L 1.96875 -4.140625 C 1.976562 -4.003906 1.988281 -3.847656 2 -3.671875 C 2.007812 -3.503906 2.015625 -3.328125 2.015625 -3.140625 C 2.023438 -2.953125 2.03125 -2.785156 2.03125 -2.640625 L 2.03125 0 L 0.640625 0 L 0.640625 -5.859375 L 2.703125 -5.859375 L 4.84375 -1.796875 L 4.859375 -1.796875 C 4.859375 -1.921875 4.851562 -2.066406 4.84375 -2.234375 C 4.832031 -2.398438 4.820312 -2.570312 4.8125 -2.75 C 4.8125 -2.925781 4.8125 -3.082031 4.8125 -3.21875 L 4.8125 -5.859375 L 6.21875 -5.859375 Z M 6.21875 0 "/></g></g></g><g fill="#271675" fill-opacity="1"><g transform="translate(50.995402, 20.435199)"><g><path d="M 4.46875 -1.78125 C 4.46875 -1.457031 4.382812 -1.15625 4.21875 -0.875 C 4.0625 -0.59375 3.8125 -0.363281 3.46875 -0.1875 C 3.132812 -0.0078125 2.703125 0.078125 2.171875 0.078125 C 1.898438 0.078125 1.660156 0.0664062 1.453125 0.046875 C 1.253906 0.0234375 1.066406 -0.0078125 0.890625 -0.0625 C 0.722656 -0.125 0.546875 -0.195312 0.359375 -0.28125 L 0.359375 -1.703125 C 0.679688 -1.535156 1.003906 -1.410156 1.328125 -1.328125 C 1.648438 -1.242188 1.941406 -1.203125 2.203125 -1.203125 C 2.359375 -1.203125 2.484375 -1.21875 2.578125 -1.25 C 2.679688 -1.289062 2.757812 -1.34375 2.8125 -1.40625 C 2.863281 -1.476562 2.890625 -1.554688 2.890625 -1.640625 C 2.890625 -1.742188 2.851562 -1.832031 2.78125 -1.90625 C 2.707031 -1.976562 2.59375 -2.050781 2.4375 -2.125 C 2.28125 -2.207031 2.078125 -2.304688 1.828125 -2.421875 C 1.609375 -2.515625 1.410156 -2.613281 1.234375 -2.71875 C 1.054688 -2.832031 0.90625 -2.957031 0.78125 -3.09375 C 0.664062 -3.226562 0.570312 -3.390625 0.5 -3.578125 C 0.4375 -3.765625 0.40625 -3.984375 0.40625 -4.234375 C 0.40625 -4.609375 0.492188 -4.921875 0.671875 -5.171875 C 0.859375 -5.429688 1.117188 -5.625 1.453125 -5.75 C 1.785156 -5.882812 2.171875 -5.953125 2.609375 -5.953125 C 2.992188 -5.953125 3.335938 -5.90625 3.640625 -5.8125 C 3.953125 -5.726562 4.226562 -5.632812 4.46875 -5.53125 L 3.984375 -4.3125 C 3.734375 -4.425781 3.484375 -4.515625 3.234375 -4.578125 C 2.992188 -4.648438 2.769531 -4.6875 2.5625 -4.6875 C 2.425781 -4.6875 2.3125 -4.664062 2.21875 -4.625 C 2.132812 -4.59375 2.070312 -4.550781 2.03125 -4.5 C 1.988281 -4.445312 1.96875 -4.382812 1.96875 -4.3125 C 1.96875 -4.21875 2.003906 -4.132812 2.078125 -4.0625 C 2.148438 -3.988281 2.269531 -3.910156 2.4375 -3.828125 C 2.601562 -3.742188 2.832031 -3.632812 3.125 -3.5 C 3.40625 -3.375 3.644531 -3.234375 3.84375 -3.078125 C 4.050781 -2.929688 4.207031 -2.753906 4.3125 -2.546875 C 4.414062 -2.335938 4.46875 -2.082031 4.46875 -1.78125 Z M 4.46875 -1.78125 "/></g></g></g><g fill="#271675" fill-opacity="1"><g transform="translate(56.066737, 20.435199)"><g><path d="M 2.1875 0 L 0.640625 0 L 0.640625 -5.859375 L 4.09375 -5.859375 L 4.09375 -4.59375 L 2.1875 -4.59375 L 2.1875 -3.46875 L 3.953125 -3.46875 L 3.953125 -2.203125 L 2.1875 -2.203125 Z M 2.1875 0 "/></g></g></g><g fill="#271675" fill-opacity="1"><g transform="translate(60.825117, 20.435199)"><g><path d="M 6.125 -2.9375 C 6.125 -2.488281 6.066406 -2.078125 5.953125 -1.703125 C 5.847656 -1.335938 5.679688 -1.019531 5.453125 -0.75 C 5.222656 -0.476562 4.925781 -0.269531 4.5625 -0.125 C 4.207031 0.0078125 3.773438 0.078125 3.265625 0.078125 C 2.773438 0.078125 2.347656 0.0078125 1.984375 -0.125 C 1.628906 -0.269531 1.332031 -0.472656 1.09375 -0.734375 C 0.863281 -1.003906 0.691406 -1.328125 0.578125 -1.703125 C 0.472656 -2.078125 0.421875 -2.492188 0.421875 -2.953125 C 0.421875 -3.554688 0.519531 -4.082031 0.71875 -4.53125 C 0.914062 -4.988281 1.226562 -5.335938 1.65625 -5.578125 C 2.082031 -5.828125 2.625 -5.953125 3.28125 -5.953125 C 3.945312 -5.953125 4.488281 -5.828125 4.90625 -5.578125 C 5.320312 -5.335938 5.628906 -4.988281 5.828125 -4.53125 C 6.023438 -4.082031 6.125 -3.550781 6.125 -2.9375 Z M 2.09375 -2.9375 C 2.09375 -2.582031 2.128906 -2.28125 2.203125 -2.03125 C 2.285156 -1.78125 2.410156 -1.582031 2.578125 -1.4375 C 2.753906 -1.300781 2.984375 -1.234375 3.265625 -1.234375 C 3.554688 -1.234375 3.785156 -1.300781 3.953125 -1.4375 C 4.128906 -1.582031 4.253906 -1.78125 4.328125 -2.03125 C 4.410156 -2.28125 4.453125 -2.582031 4.453125 -2.9375 C 4.453125 -3.46875 4.363281 -3.882812 4.1875 -4.1875 C 4.007812 -4.5 3.707031 -4.65625 3.28125 -4.65625 C 2.988281 -4.65625 2.753906 -4.582031 2.578125 -4.4375 C 2.410156 -4.300781 2.285156 -4.101562 2.203125 -3.84375 C 2.128906 -3.59375 2.09375 -3.289062 2.09375 -2.9375 Z M 2.09375 -2.9375 "/></g></g></g><g fill="#271675" fill-opacity="1"><g transform="translate(67.70196, 20.435199)"><g><path d="M 2.5625 -5.859375 C 3.09375 -5.859375 3.535156 -5.796875 3.890625 -5.671875 C 4.242188 -5.546875 4.507812 -5.351562 4.6875 -5.09375 C 4.863281 -4.832031 4.953125 -4.515625 4.953125 -4.140625 C 4.953125 -3.898438 4.910156 -3.679688 4.828125 -3.484375 C 4.742188 -3.285156 4.628906 -3.109375 4.484375 -2.953125 C 4.335938 -2.804688 4.160156 -2.675781 3.953125 -2.5625 L 5.65625 0 L 3.859375 0 L 2.625 -2.140625 L 2.21875 -2.140625 L 2.21875 0 L 0.640625 0 L 0.640625 -5.859375 Z M 2.53125 -4.671875 L 2.21875 -4.671875 L 2.21875 -3.328125 L 2.515625 -3.328125 C 2.753906 -3.328125 2.953125 -3.378906 3.109375 -3.484375 C 3.265625 -3.585938 3.34375 -3.78125 3.34375 -4.0625 C 3.34375 -4.25 3.28125 -4.394531 3.15625 -4.5 C 3.03125 -4.613281 2.820312 -4.671875 2.53125 -4.671875 Z M 2.53125 -4.671875 "/></g></g></g><g fill="#271675" fill-opacity="1"><g transform="translate(73.591788, 20.435199)"><g><path d="M 3.1875 0 L 1.984375 -4.21875 L 1.953125 -4.21875 C 1.960938 -4.113281 1.972656 -3.96875 1.984375 -3.78125 C 1.992188 -3.59375 2.003906 -3.390625 2.015625 -3.171875 C 2.023438 -2.953125 2.03125 -2.742188 2.03125 -2.546875 L 2.03125 0 L 0.640625 0 L 0.640625 -5.859375 L 2.75 -5.859375 L 3.96875 -1.703125 L 4 -1.703125 L 5.203125 -5.859375 L 7.3125 -5.859375 L 7.3125 0 L 5.859375 0 L 5.859375 -2.578125 C 5.859375 -2.753906 5.859375 -2.945312 5.859375 -3.15625 C 5.867188 -3.375 5.878906 -3.578125 5.890625 -3.765625 C 5.898438 -3.953125 5.910156 -4.101562 5.921875 -4.21875 L 5.890625 -4.21875 L 4.703125 0 Z M 3.1875 0 "/></g></g></g><g fill="#271675" fill-opacity="1"><g transform="translate(81.864884, 20.435199)"><g><path d="M 4.234375 0 L 3.9375 -1.09375 L 2.03125 -1.09375 L 1.734375 0 L 0 0 L 1.921875 -5.890625 L 4.03125 -5.890625 L 5.96875 0 Z M 3.609375 -2.40625 L 3.359375 -3.359375 C 3.335938 -3.460938 3.300781 -3.609375 3.25 -3.796875 C 3.195312 -3.992188 3.144531 -4.195312 3.09375 -4.40625 C 3.039062 -4.613281 3.003906 -4.785156 2.984375 -4.921875 C 2.960938 -4.785156 2.925781 -4.617188 2.875 -4.421875 C 2.832031 -4.234375 2.785156 -4.039062 2.734375 -3.84375 C 2.691406 -3.65625 2.65625 -3.492188 2.625 -3.359375 L 2.375 -2.40625 Z M 3.609375 -2.40625 "/></g></g></g><g fill="#000000" fill-opacity="1"><g transform="translate(70.170659, 11.904516)"><g><path d="M 4.484375 -2.15625 C 4.484375 -1.851562 4.453125 -1.578125 4.390625 -1.328125 C 4.328125 -1.078125 4.226562 -0.851562 4.09375 -0.65625 C 3.957031 -0.457031 3.773438 -0.300781 3.546875 -0.1875 L 4.609375 1.015625 L 3.15625 1.015625 L 2.4375 0.0625 C 2.4375 0.0625 2.429688 0.0625 2.421875 0.0625 C 2.410156 0.0625 2.398438 0.0625 2.390625 0.0625 C 2.035156 0.0625 1.722656 0.0078125 1.453125 -0.09375 C 1.191406 -0.195312 0.972656 -0.347656 0.796875 -0.546875 C 0.628906 -0.742188 0.503906 -0.976562 0.421875 -1.25 C 0.347656 -1.519531 0.3125 -1.820312 0.3125 -2.15625 C 0.3125 -2.601562 0.382812 -2.988281 0.53125 -3.3125 C 0.675781 -3.644531 0.898438 -3.898438 1.203125 -4.078125 C 1.515625 -4.265625 1.914062 -4.359375 2.40625 -4.359375 C 2.894531 -4.359375 3.289062 -4.265625 3.59375 -4.078125 C 3.894531 -3.898438 4.117188 -3.644531 4.265625 -3.3125 C 4.410156 -2.988281 4.484375 -2.601562 4.484375 -2.15625 Z M 1.53125 -2.15625 C 1.53125 -1.894531 1.554688 -1.671875 1.609375 -1.484375 C 1.671875 -1.296875 1.765625 -1.148438 1.890625 -1.046875 C 2.015625 -0.953125 2.179688 -0.90625 2.390625 -0.90625 C 2.609375 -0.90625 2.78125 -0.953125 2.90625 -1.046875 C 3.03125 -1.148438 3.117188 -1.296875 3.171875 -1.484375 C 3.234375 -1.671875 3.265625 -1.894531 3.265625 -2.15625 C 3.265625 -2.539062 3.195312 -2.84375 3.0625 -3.0625 C 2.9375 -3.289062 2.71875 -3.40625 2.40625 -3.40625 C 2.1875 -3.40625 2.015625 -3.351562 1.890625 -3.25 C 1.765625 -3.15625 1.671875 -3.015625 1.609375 -2.828125 C 1.554688 -2.640625 1.53125 -2.414062 1.53125 -2.15625 Z M 1.53125 -2.15625 "/></g></g></g><g fill="#000000" fill-opacity="1"><g transform="translate(75.571333, 11.904516)"><g><path d="M 4.109375 -4.296875 L 4.109375 -1.703125 C 4.109375 -1.347656 4.039062 -1.035156 3.90625 -0.765625 C 3.769531 -0.503906 3.5625 -0.300781 3.28125 -0.15625 C 3.007812 -0.0078125 2.671875 0.0625 2.265625 0.0625 C 1.671875 0.0625 1.21875 -0.0859375 0.90625 -0.390625 C 0.59375 -0.703125 0.4375 -1.132812 0.4375 -1.6875 L 0.4375 -4.296875 L 1.609375 -4.296875 L 1.609375 -1.78125 C 1.609375 -1.46875 1.664062 -1.242188 1.78125 -1.109375 C 1.894531 -0.972656 2.0625 -0.90625 2.28125 -0.90625 C 2.4375 -0.90625 2.5625 -0.9375 2.65625 -1 C 2.757812 -1.0625 2.832031 -1.15625 2.875 -1.28125 C 2.925781 -1.40625 2.953125 -1.570312 2.953125 -1.78125 L 2.953125 -4.296875 Z M 4.109375 -4.296875 "/></g></g></g><g fill="#000000" fill-opacity="1"><g transform="translate(80.730907, 11.904516)"><g><path d="M 3.015625 0 L 0.46875 0 L 0.46875 -4.296875 L 3.015625 -4.296875 L 3.015625 -3.359375 L 1.625 -3.359375 L 1.625 -2.6875 L 2.90625 -2.6875 L 2.90625 -1.75 L 1.625 -1.75 L 1.625 -0.953125 L 3.015625 -0.953125 Z M 3.015625 0 "/></g></g></g><g fill="#000000" fill-opacity="1"><g transform="translate(84.637927, 11.904516)"><g><path d="M 2.328125 0 L 1.453125 -3.09375 L 1.4375 -3.09375 C 1.4375 -3.007812 1.441406 -2.898438 1.453125 -2.765625 C 1.460938 -2.628906 1.46875 -2.476562 1.46875 -2.3125 C 1.476562 -2.15625 1.484375 -2.003906 1.484375 -1.859375 L 1.484375 0 L 0.46875 0 L 0.46875 -4.296875 L 2.015625 -4.296875 L 2.90625 -1.25 L 2.921875 -1.25 L 3.8125 -4.296875 L 5.359375 -4.296875 L 5.359375 0 L 4.28125 0 L 4.28125 -1.890625 C 4.28125 -2.015625 4.28125 -2.15625 4.28125 -2.3125 C 4.289062 -2.46875 4.300781 -2.613281 4.3125 -2.75 C 4.320312 -2.894531 4.328125 -3.007812 4.328125 -3.09375 L 4.3125 -3.09375 L 3.4375 0 Z M 2.328125 0 "/></g></g></g><g clip-path="url(#id1)"><path fill="#271675" d="M 17.992188 17.710938 L 26.714844 26.539062 " fill-opacity="1" fill-rule="nonzero"/><path fill="#271675" d="M 26.714844 26.851562 C 26.792969 26.851562 26.871094 26.820312 26.933594 26.761719 C 27.050781 26.636719 27.050781 26.441406 26.933594 26.316406 L 18.210938 17.488281 C 18.089844 17.367188 17.894531 17.367188 17.773438 17.488281 C 17.65625 17.609375 17.65625 17.808594 17.773438 17.929688 L 26.496094 26.761719 C 26.554688 26.820312 26.632812 26.851562 26.714844 26.851562 Z M 26.714844 26.851562 " fill-opacity="1" fill-rule="nonzero"/></g><g clip-path="url(#id2)"><path fill="#271675" d="M 20.582031 18.703125 L 18.972656 20.335938 L 25.050781 26.484375 L 26.660156 24.855469 Z M 20.582031 18.703125 " fill-opacity="1" fill-rule="nonzero"/><path fill="#271675" d="M 25.050781 26.796875 C 25.128906 26.796875 25.210938 26.765625 25.269531 26.707031 L 26.878906 25.078125 C 26.9375 25.019531 26.96875 24.9375 26.96875 24.855469 C 26.96875 24.773438 26.9375 24.695312 26.878906 24.636719 L 20.804688 18.484375 C 20.746094 18.425781 20.667969 18.390625 20.585938 18.390625 C 20.503906 18.390625 20.425781 18.425781 20.367188 18.484375 L 18.757812 20.113281 C 18.636719 20.234375 18.636719 20.433594 18.757812 20.554688 L 24.832031 26.707031 C 24.894531 26.765625 24.972656 26.796875 25.050781 26.796875 Z M 26.222656 24.855469 L 25.050781 26.042969 L 19.414062 20.332031 L 20.585938 19.148438 Z M 26.222656 24.855469 " fill-opacity="1" fill-rule="nonzero"/></g><path fill="#271675" d="M 10.820312 9.71875 C 11.898438 9.71875 12.769531 10.492188 12.769531 11.449219 C 12.769531 10.492188 13.644531 9.71875 14.71875 9.71875 C 15.625 9.71875 16.574219 10.480469 16.628906 11.394531 C 16.699219 12.609375 15.824219 13.75 15.007812 14.542969 C 14.421875 15.109375 13.765625 15.636719 13.09375 16.09375 C 13.066406 16.113281 12.808594 16.3125 12.769531 16.289062 C 11.171875 15.382812 8.871094 13.519531 8.871094 11.449219 C 8.871094 10.492188 9.742188 9.71875 10.820312 9.71875 Z M 10.820312 9.71875 " fill-opacity="1" fill-rule="nonzero"/><path fill="#271675" d="M 12.777344 16.605469 C 12.898438 16.605469 13 16.554688 13.253906 16.363281 L 13.269531 16.351562 C 13.984375 15.863281 14.644531 15.328125 15.222656 14.765625 C 16.425781 13.597656 17 12.457031 16.933594 11.375 C 16.875 10.34375 15.816406 9.40625 14.71875 9.40625 C 13.890625 9.40625 13.164062 9.8125 12.773438 10.414062 C 12.671875 10.261719 12.546875 10.117188 12.402344 9.988281 C 11.976562 9.613281 11.414062 9.40625 10.820312 9.40625 C 10.222656 9.40625 9.660156 9.613281 9.238281 9.988281 C 8.800781 10.375 8.558594 10.894531 8.558594 11.449219 C 8.558594 14.125 11.941406 16.179688 12.621094 16.5625 C 12.664062 16.589844 12.726562 16.605469 12.777344 16.605469 Z M 14.71875 10.03125 C 15.5 10.03125 16.277344 10.703125 16.320312 11.410156 C 16.386719 12.519531 15.527344 13.601562 14.792969 14.316406 C 14.246094 14.847656 13.601562 15.371094 12.921875 15.835938 C 12.914062 15.839844 12.902344 15.847656 12.886719 15.859375 C 12.84375 15.894531 12.808594 15.917969 12.78125 15.9375 C 11.085938 14.941406 9.179688 13.203125 9.179688 11.449219 C 9.179688 11.078125 9.34375 10.726562 9.644531 10.460938 C 9.957031 10.183594 10.375 10.03125 10.820312 10.03125 C 11.265625 10.03125 11.683594 10.183594 11.996094 10.460938 C 12.296875 10.726562 12.460938 11.078125 12.460938 11.449219 C 12.460938 11.621094 12.601562 11.761719 12.769531 11.761719 C 12.941406 11.761719 13.078125 11.621094 13.078125 11.449219 C 13.078125 10.664062 13.816406 10.03125 14.71875 10.03125 Z M 14.71875 10.03125 " fill-opacity="1" fill-rule="nonzero"/><path fill="#271675" d="M 6.707031 6.28125 C 10.042969 2.902344 15.453125 2.902344 18.792969 6.28125 C 22.128906 9.660156 22.128906 15.140625 18.792969 18.519531 C 17.335938 19.996094 15.480469 20.828125 13.574219 21.011719 C 11.121094 21.253906 8.585938 20.421875 6.707031 18.519531 C 5.011719 16.800781 4.179688 14.542969 4.207031 12.292969 C 4.230469 10.113281 5.0625 7.941406 6.707031 6.28125 Z M 7.691406 17.523438 C 9.261719 19.113281 11.386719 19.8125 13.441406 19.609375 C 15.035156 19.457031 16.585938 18.757812 17.808594 17.523438 C 20.601562 14.691406 20.601562 10.105469 17.808594 7.277344 C 15.015625 4.449219 10.484375 4.449219 7.691406 7.277344 C 6.316406 8.667969 5.617188 10.488281 5.597656 12.3125 C 5.574219 14.195312 6.269531 16.085938 7.691406 17.523438 Z M 7.691406 17.523438 " fill-opacity="1" fill-rule="nonzero"/><g clip-path="url(#id3)"><path fill="#271675" d="M 12.75 21.367188 C 13.035156 21.367188 13.320312 21.351562 13.605469 21.324219 C 15.640625 21.125 17.5625 20.207031 19.011719 18.738281 C 20.683594 17.046875 21.605469 14.792969 21.605469 12.398438 C 21.605469 10.003906 20.683594 7.753906 19.011719 6.058594 C 17.339844 4.367188 15.113281 3.433594 12.75 3.433594 C 10.382812 3.433594 8.160156 4.367188 6.488281 6.058594 C 4.84375 7.722656 3.925781 9.933594 3.898438 12.289062 C 3.867188 14.726562 4.789062 17.019531 6.488281 18.742188 C 8.160156 20.433594 10.382812 21.367188 12.75 21.367188 Z M 12.75 4.058594 C 14.949219 4.058594 17.019531 4.925781 18.574219 6.5 C 20.128906 8.078125 20.988281 10.171875 20.988281 12.398438 C 20.988281 14.628906 20.128906 16.722656 18.574219 18.296875 C 17.226562 19.664062 15.441406 20.515625 13.542969 20.703125 C 13.28125 20.726562 13.015625 20.742188 12.75 20.742188 C 10.550781 20.742188 8.480469 19.875 6.925781 18.296875 C 5.34375 16.695312 4.488281 14.566406 4.515625 12.296875 C 4.539062 10.105469 5.398438 8.046875 6.925781 6.5 C 8.480469 4.925781 10.550781 4.058594 12.75 4.058594 Z M 12.75 19.957031 C 12.988281 19.957031 13.230469 19.945312 13.46875 19.921875 C 15.1875 19.753906 16.804688 18.980469 18.027344 17.742188 C 20.9375 14.796875 20.9375 10.003906 18.027344 7.054688 C 16.617188 5.628906 14.742188 4.84375 12.75 4.84375 C 10.753906 4.84375 8.882812 5.628906 7.472656 7.054688 C 6.085938 8.457031 5.3125 10.324219 5.289062 12.308594 C 5.261719 14.363281 6.039062 16.292969 7.472656 17.742188 C 8.882812 19.171875 10.757812 19.957031 12.75 19.957031 Z M 12.75 5.46875 C 14.578125 5.46875 16.296875 6.1875 17.589844 7.5 C 20.257812 10.199219 20.257812 14.597656 17.589844 17.300781 C 16.46875 18.4375 14.984375 19.144531 13.410156 19.300781 C 13.191406 19.320312 12.96875 19.332031 12.75 19.332031 C 10.921875 19.332031 9.203125 18.609375 7.910156 17.300781 C 6.59375 15.96875 5.882812 14.199219 5.90625 12.316406 C 5.929688 10.496094 6.640625 8.785156 7.910156 7.5 C 9.203125 6.1875 10.921875 5.46875 12.75 5.46875 Z M 12.75 5.46875 " fill-opacity="1" fill-rule="nonzero"/></g><path fill="#271675" d="M 7.378906 14.40625 C 7.402344 14.40625 7.425781 14.402344 7.449219 14.394531 C 7.5625 14.359375 7.625 14.230469 7.589844 14.113281 C 7.582031 14.09375 7.574219 14.070312 7.5625 14.039062 C 7.515625 13.921875 7.417969 13.679688 7.328125 13.105469 C 7.308594 12.980469 7.199219 12.898438 7.078125 12.917969 C 6.957031 12.9375 6.875 13.050781 6.894531 13.175781 C 6.992188 13.796875 7.097656 14.074219 7.152344 14.203125 C 7.160156 14.226562 7.164062 14.242188 7.167969 14.253906 C 7.199219 14.347656 7.285156 14.40625 7.378906 14.40625 Z M 7.378906 14.40625 " fill-opacity="1" fill-rule="nonzero"/><path fill="#271675" d="M 6.980469 11.929688 C 7.101562 11.929688 7.199219 11.832031 7.199219 11.710938 C 7.25 8.4375 10.4375 7.480469 10.570312 7.441406 C 10.6875 7.410156 10.757812 7.285156 10.722656 7.167969 C 10.691406 7.046875 10.570312 6.980469 10.453125 7.011719 C 10.414062 7.023438 6.8125 8.09375 6.757812 11.703125 C 6.757812 11.828125 6.855469 11.929688 6.976562 11.929688 C 6.976562 11.929688 6.980469 11.929688 6.980469 11.929688 Z M 6.980469 11.929688 " fill-opacity="1" fill-rule="nonzero"/><path fill="#271675" d="M 15.746094 12.398438 C 15.828125 12.398438 15.90625 12.351562 15.945312 12.269531 C 16.136719 11.855469 16.164062 11.480469 16.023438 11.152344 C 15.976562 11.039062 15.847656 10.988281 15.734375 11.035156 C 15.625 11.085938 15.570312 11.214844 15.621094 11.328125 C 15.707031 11.535156 15.679688 11.785156 15.546875 12.078125 C 15.492188 12.191406 15.542969 12.324219 15.652344 12.375 C 15.683594 12.390625 15.714844 12.398438 15.746094 12.398438 Z M 15.746094 12.398438 " fill-opacity="1" fill-rule="nonzero"/><g clip-path="url(#id4)"><g clip-path="url(#id5)"><path fill="#ffffff" d="M 26.429688 23.6875 L 29.507812 26.769531 L 26.429688 29.847656 L 23.351562 26.769531 L 26.429688 23.6875 " fill-opacity="1" fill-rule="nonzero"/></g></g></svg>