<svg xmlns="http://www.w3.org/2000/svg" xmlns:xlink="http://www.w3.org/1999/xlink" width="127" zoomAndPan="magnify" viewBox="0 0 95.25 30.000001" height="40" preserveAspectRatio="xMidYMid meet" version="1.0"><defs><g/><clipPath id="id1"><path d="M 3.351562 3.921875 L 26.375 3.921875 L 26.375 26.945312 L 3.351562 26.945312 Z M 3.351562 3.921875 " clip-rule="nonzero"/></clipPath><clipPath id="id2"><path d="M 4.242188 4.8125 L 25.679688 4.8125 L 25.679688 26.25 L 4.242188 26.25 Z M 4.242188 4.8125 " clip-rule="nonzero"/></clipPath><clipPath id="id3"><path d="M 8.414062 2.058594 L 12.382812 2.058594 L 12.382812 4.355469 L 8.414062 4.355469 Z M 8.414062 2.058594 " clip-rule="nonzero"/></clipPath><clipPath id="id4"><path d="M 17.394531 2.058594 L 21.117188 2.058594 L 21.117188 4.355469 L 17.394531 4.355469 Z M 17.394531 2.058594 " clip-rule="nonzero"/></clipPath><clipPath id="id5"><path d="M 32.21875 15.261719 L 70 15.261719 L 70 24 L 32.21875 24 Z M 32.21875 15.261719 " clip-rule="nonzero"/></clipPath><clipPath id="id6"><path d="M 68 15.261719 L 91 15.261719 L 91 24.695312 L 68 24.695312 Z M 68 15.261719 " clip-rule="nonzero"/></clipPath></defs><g clip-path="url(#id1)"><path fill="#393939" d="M 14.863281 3.921875 C 8.503906 3.921875 3.351562 9.074219 3.351562 15.433594 C 3.351562 21.792969 8.503906 26.945312 14.863281 26.945312 C 21.222656 26.945312 26.375 21.792969 26.375 15.433594 C 26.375 9.074219 21.222656 3.921875 14.863281 3.921875 " fill-opacity="1" fill-rule="nonzero"/></g><g clip-path="url(#id2)"><path fill="#b4b2b2" d="M 14.960938 4.8125 C 9.039062 4.8125 4.242188 9.609375 4.242188 15.53125 C 4.242188 21.449219 9.039062 26.25 14.960938 26.25 C 20.878906 26.25 25.679688 21.449219 25.679688 15.53125 C 25.679688 9.609375 20.878906 4.8125 14.960938 4.8125 " fill-opacity="1" fill-rule="nonzero"/></g><g fill="#2b2b2b" fill-opacity="1"><g transform="translate(10.969034, 21.60562)"><g><path d="M 2.234375 -3.921875 L 2.234375 -4.515625 C 2.234375 -5.035156 2.34375 -5.488281 2.5625 -5.875 C 2.78125 -6.257812 3.1875 -6.664062 3.78125 -7.09375 C 4.34375 -7.5 4.710938 -7.828125 4.890625 -8.078125 C 5.078125 -8.328125 5.171875 -8.609375 5.171875 -8.921875 C 5.171875 -9.273438 5.039062 -9.539062 4.78125 -9.71875 C 4.519531 -9.90625 4.160156 -10 3.703125 -10 C 2.890625 -10 1.96875 -9.738281 0.9375 -9.21875 L 0.046875 -10.984375 C 1.253906 -11.660156 2.53125 -12 3.875 -12 C 4.988281 -12 5.867188 -11.726562 6.515625 -11.1875 C 7.171875 -10.65625 7.5 -9.945312 7.5 -9.0625 C 7.5 -8.46875 7.363281 -7.953125 7.09375 -7.515625 C 6.832031 -7.085938 6.320312 -6.601562 5.5625 -6.0625 C 5.039062 -5.675781 4.710938 -5.382812 4.578125 -5.1875 C 4.441406 -4.988281 4.375 -4.726562 4.375 -4.40625 L 4.375 -3.921875 Z M 1.96875 -1.15625 C 1.96875 -1.601562 2.085938 -1.941406 2.328125 -2.171875 C 2.578125 -2.410156 2.929688 -2.53125 3.390625 -2.53125 C 3.835938 -2.53125 4.179688 -2.410156 4.421875 -2.171875 C 4.671875 -1.929688 4.796875 -1.59375 4.796875 -1.15625 C 4.796875 -0.726562 4.671875 -0.390625 4.421875 -0.140625 C 4.179688 0.0976562 3.835938 0.21875 3.390625 0.21875 C 2.941406 0.21875 2.59375 0.0976562 2.34375 -0.140625 C 2.09375 -0.378906 1.96875 -0.71875 1.96875 -1.15625 Z M 1.96875 -1.15625 "/></g></g></g><g clip-path="url(#id3)"><path fill="#2b2b2b" d="M 12.332031 2.429688 C 12.316406 2.324219 12.257812 2.234375 12.171875 2.171875 C 12.058594 2.09375 11.933594 2.058594 11.800781 2.058594 C 11.539062 2.058594 11.261719 2.195312 11.0625 2.351562 C 11.015625 2.386719 10.953125 2.445312 10.863281 2.53125 C 10.519531 2.863281 9.804688 3.558594 8.980469 3.703125 C 8.664062 3.757812 8.503906 3.835938 8.453125 3.964844 C 8.417969 4.042969 8.429688 4.128906 8.488281 4.21875 C 8.578125 4.359375 8.738281 4.441406 8.90625 4.433594 C 9.390625 4.414062 11.046875 4.261719 12.097656 3.117188 C 12.101562 3.113281 12.101562 3.109375 12.105469 3.105469 C 12.132812 3.066406 12.378906 2.722656 12.332031 2.429688 Z M 12.332031 2.429688 " fill-opacity="1" fill-rule="nonzero"/></g><g clip-path="url(#id4)"><path fill="#2b2b2b" d="M 17.445312 2.429688 C 17.460938 2.324219 17.519531 2.234375 17.605469 2.171875 C 17.71875 2.09375 17.84375 2.058594 17.976562 2.058594 C 18.238281 2.058594 18.515625 2.195312 18.714844 2.351562 C 18.761719 2.386719 18.828125 2.445312 18.914062 2.53125 C 19.257812 2.863281 19.972656 3.558594 20.800781 3.703125 C 21.113281 3.757812 21.273438 3.835938 21.328125 3.964844 C 21.359375 4.042969 21.347656 4.128906 21.289062 4.21875 C 21.203125 4.359375 21.042969 4.441406 20.871094 4.433594 C 20.390625 4.414062 18.730469 4.261719 17.679688 3.117188 C 17.679688 3.113281 17.675781 3.109375 17.671875 3.105469 C 17.644531 3.066406 17.398438 2.722656 17.445312 2.429688 Z M 17.445312 2.429688 " fill-opacity="1" fill-rule="nonzero"/></g><g fill="#000000" fill-opacity="1"><g transform="translate(32.869657, 13.852737)"><g><path d="M 5.15625 -2 C 5.15625 -1.351562 4.921875 -0.84375 4.453125 -0.46875 C 3.984375 -0.09375 3.332031 0.09375 2.5 0.09375 C 1.726562 0.09375 1.050781 -0.046875 0.46875 -0.328125 L 0.46875 -1.75 C 0.945312 -1.53125 1.351562 -1.375 1.6875 -1.28125 C 2.03125 -1.195312 2.34375 -1.15625 2.625 -1.15625 C 2.957031 -1.15625 3.210938 -1.21875 3.390625 -1.34375 C 3.566406 -1.476562 3.65625 -1.671875 3.65625 -1.921875 C 3.65625 -2.066406 3.613281 -2.191406 3.53125 -2.296875 C 3.457031 -2.410156 3.34375 -2.515625 3.1875 -2.609375 C 3.039062 -2.710938 2.734375 -2.878906 2.265625 -3.109375 C 1.816406 -3.316406 1.484375 -3.515625 1.265625 -3.703125 C 1.046875 -3.890625 0.867188 -4.109375 0.734375 -4.359375 C 0.609375 -4.617188 0.546875 -4.914062 0.546875 -5.25 C 0.546875 -5.882812 0.757812 -6.382812 1.1875 -6.75 C 1.625 -7.113281 2.222656 -7.296875 2.984375 -7.296875 C 3.359375 -7.296875 3.710938 -7.25 4.046875 -7.15625 C 4.390625 -7.070312 4.75 -6.953125 5.125 -6.796875 L 4.625 -5.609375 C 4.238281 -5.765625 3.921875 -5.875 3.671875 -5.9375 C 3.421875 -6 3.175781 -6.03125 2.9375 -6.03125 C 2.644531 -6.03125 2.421875 -5.960938 2.265625 -5.828125 C 2.109375 -5.691406 2.03125 -5.515625 2.03125 -5.296875 C 2.03125 -5.160156 2.0625 -5.039062 2.125 -4.9375 C 2.1875 -4.84375 2.285156 -4.75 2.421875 -4.65625 C 2.554688 -4.5625 2.878906 -4.394531 3.390625 -4.15625 C 4.066406 -3.832031 4.53125 -3.507812 4.78125 -3.1875 C 5.03125 -2.863281 5.15625 -2.46875 5.15625 -2 Z M 5.15625 -2 "/></g></g></g><g fill="#000000" fill-opacity="1"><g transform="translate(38.415847, 13.852737)"><g><path d="M 5.046875 0 L 0.90625 0 L 0.90625 -7.1875 L 5.046875 -7.1875 L 5.046875 -5.9375 L 2.4375 -5.9375 L 2.4375 -4.359375 L 4.859375 -4.359375 L 4.859375 -3.109375 L 2.4375 -3.109375 L 2.4375 -1.265625 L 5.046875 -1.265625 Z M 5.046875 0 "/></g></g></g><g fill="#000000" fill-opacity="1"><g transform="translate(44.055457, 13.852737)"><g><path d="M 3.953125 0 L 2.21875 -5.640625 L 2.171875 -5.640625 C 2.234375 -4.492188 2.265625 -3.726562 2.265625 -3.34375 L 2.265625 0 L 0.90625 0 L 0.90625 -7.1875 L 2.984375 -7.1875 L 4.6875 -1.6875 L 4.71875 -1.6875 L 6.515625 -7.1875 L 8.59375 -7.1875 L 8.59375 0 L 7.171875 0 L 7.171875 -3.40625 C 7.171875 -3.5625 7.171875 -3.742188 7.171875 -3.953125 C 7.179688 -4.171875 7.207031 -4.734375 7.25 -5.640625 L 7.203125 -5.640625 L 5.34375 0 Z M 3.953125 0 "/></g></g></g><g fill="#000000" fill-opacity="1"><g transform="translate(53.549867, 13.852737)"><g/></g></g><g fill="#000000" fill-opacity="1"><g transform="translate(56.165623, 13.852737)"><g><path d="M 0.90625 0 L 0.90625 -7.1875 L 2.4375 -7.1875 L 2.4375 0 Z M 0.640625 -8.109375 L 0.640625 -8.234375 C 1.203125 -8.890625 1.585938 -9.382812 1.796875 -9.71875 L 3.46875 -9.71875 L 3.46875 -9.625 C 3.300781 -9.445312 3.007812 -9.191406 2.59375 -8.859375 C 2.1875 -8.523438 1.863281 -8.273438 1.625 -8.109375 Z M 0.640625 -8.109375 "/></g></g></g><g fill="#000000" fill-opacity="1"><g transform="translate(59.499238, 13.852737)"><g><path d="M 7.28125 0 L 5.34375 0 L 2.21875 -5.4375 L 2.171875 -5.4375 C 2.234375 -4.476562 2.265625 -3.796875 2.265625 -3.390625 L 2.265625 0 L 0.90625 0 L 0.90625 -7.1875 L 2.828125 -7.1875 L 5.953125 -1.8125 L 5.984375 -1.8125 C 5.941406 -2.738281 5.921875 -3.398438 5.921875 -3.796875 L 5.921875 -7.1875 L 7.28125 -7.1875 Z M 7.28125 0 "/></g></g></g><g fill="#000000" fill-opacity="1"><g transform="translate(67.685769, 13.852737)"><g><path d="M 6.875 -3.671875 C 6.875 -2.484375 6.535156 -1.570312 5.859375 -0.9375 C 5.191406 -0.3125 4.21875 0 2.9375 0 L 0.90625 0 L 0.90625 -7.1875 L 3.171875 -7.1875 C 4.335938 -7.1875 5.242188 -6.875 5.890625 -6.25 C 6.546875 -5.632812 6.875 -4.773438 6.875 -3.671875 Z M 5.296875 -3.625 C 5.296875 -5.164062 4.613281 -5.9375 3.25 -5.9375 L 2.4375 -5.9375 L 2.4375 -1.265625 L 3.078125 -1.265625 C 4.554688 -1.265625 5.296875 -2.050781 5.296875 -3.625 Z M 5.296875 -3.625 "/></g></g></g><g fill="#000000" fill-opacity="1"><g transform="translate(75.139691, 13.852737)"><g><path d="M 0.90625 0 L 0.90625 -7.1875 L 2.4375 -7.1875 L 2.4375 0 Z M 0.90625 0 "/></g></g></g><g fill="#000000" fill-opacity="1"><g transform="translate(78.473306, 13.852737)"><g><path d="M 3.96875 -6.03125 C 3.382812 -6.03125 2.9375 -5.8125 2.625 -5.375 C 2.3125 -4.945312 2.15625 -4.347656 2.15625 -3.578125 C 2.15625 -1.972656 2.757812 -1.171875 3.96875 -1.171875 C 4.46875 -1.171875 5.078125 -1.296875 5.796875 -1.546875 L 5.796875 -0.265625 C 5.203125 -0.0234375 4.539062 0.09375 3.8125 0.09375 C 2.769531 0.09375 1.96875 -0.222656 1.40625 -0.859375 C 0.851562 -1.492188 0.578125 -2.40625 0.578125 -3.59375 C 0.578125 -4.332031 0.710938 -4.984375 0.984375 -5.546875 C 1.265625 -6.109375 1.660156 -6.539062 2.171875 -6.84375 C 2.679688 -7.144531 3.28125 -7.296875 3.96875 -7.296875 C 4.664062 -7.296875 5.363281 -7.128906 6.0625 -6.796875 L 5.578125 -5.546875 C 5.304688 -5.679688 5.035156 -5.796875 4.765625 -5.890625 C 4.492188 -5.984375 4.226562 -6.03125 3.96875 -6.03125 Z M 3.96875 -6.03125 "/></g></g></g><g fill="#000000" fill-opacity="1"><g transform="translate(84.889776, 13.852737)"><g><path d="M 5.046875 0 L 0.90625 0 L 0.90625 -7.1875 L 5.046875 -7.1875 L 5.046875 -5.9375 L 2.4375 -5.9375 L 2.4375 -4.359375 L 4.859375 -4.359375 L 4.859375 -3.109375 L 2.4375 -3.109375 L 2.4375 -1.265625 L 5.046875 -1.265625 Z M 5.046875 0 "/></g></g></g><g clip-path="url(#id5)"><path fill="#90b823" d="M 35.527344 17.523438 L 35.195312 19.3125 C 35.496094 19.308594 35.730469 19.230469 35.890625 19.089844 C 36.054688 18.949219 36.164062 18.722656 36.222656 18.417969 C 36.277344 18.121094 36.253906 17.894531 36.152344 17.746094 C 36.050781 17.597656 35.871094 17.523438 35.613281 17.523438 Z M 32.21875 23.472656 L 33.613281 15.964844 L 36.148438 15.964844 C 37.003906 15.964844 37.640625 16.171875 38.058594 16.589844 C 38.476562 17.003906 38.617188 17.566406 38.484375 18.28125 C 38.40625 18.71875 38.222656 19.09375 37.945312 19.402344 C 37.664062 19.714844 37.289062 19.960938 36.808594 20.144531 L 37.753906 23.472656 L 35.421875 23.472656 L 34.964844 20.566406 L 34.425781 23.472656 Z M 40.328125 20.175781 L 41.511719 20.175781 C 41.566406 19.878906 41.558594 19.65625 41.488281 19.507812 C 41.417969 19.355469 41.28125 19.28125 41.085938 19.28125 C 40.929688 19.28125 40.789062 19.355469 40.667969 19.5 C 40.546875 19.648438 40.433594 19.871094 40.328125 20.175781 M 42.917969 21.632812 C 42.726562 22.25 42.382812 22.734375 41.894531 23.089844 C 41.40625 23.445312 40.828125 23.621094 40.167969 23.621094 C 39.386719 23.621094 38.832031 23.382812 38.5 22.90625 C 38.164062 22.425781 38.082031 21.746094 38.246094 20.859375 C 38.410156 19.972656 38.75 19.285156 39.265625 18.792969 C 39.78125 18.304688 40.421875 18.058594 41.1875 18.058594 C 42.019531 18.058594 42.601562 18.277344 42.929688 18.710938 C 43.261719 19.148438 43.34375 19.804688 43.179688 20.679688 C 43.164062 20.78125 43.148438 20.863281 43.136719 20.914062 C 43.125 20.96875 43.109375 21.015625 43.09375 21.0625 L 40.164062 21.0625 L 40.152344 21.132812 C 40.082031 21.519531 40.074219 21.796875 40.136719 21.964844 C 40.195312 22.132812 40.332031 22.21875 40.539062 22.21875 C 40.695312 22.21875 40.828125 22.167969 40.941406 22.074219 C 41.054688 21.976562 41.152344 21.832031 41.234375 21.632812 L 42.917969 21.632812 M 46.375 23.390625 C 46.21875 23.46875 46.050781 23.527344 45.875 23.566406 C 45.703125 23.601562 45.507812 23.621094 45.296875 23.621094 C 44.582031 23.621094 44.066406 23.375 43.746094 22.878906 C 43.429688 22.382812 43.347656 21.703125 43.507812 20.839844 C 43.667969 19.992188 44.003906 19.316406 44.519531 18.816406 C 45.035156 18.3125 45.644531 18.058594 46.347656 18.058594 C 46.542969 18.058594 46.722656 18.078125 46.882812 18.109375 C 47.042969 18.144531 47.191406 18.199219 47.328125 18.269531 L 47.027344 19.882812 C 46.964844 19.84375 46.902344 19.8125 46.832031 19.792969 C 46.765625 19.777344 46.6875 19.765625 46.605469 19.765625 C 46.398438 19.765625 46.210938 19.863281 46.050781 20.054688 C 45.890625 20.246094 45.78125 20.507812 45.71875 20.839844 C 45.65625 21.175781 45.667969 21.429688 45.753906 21.597656 C 45.835938 21.769531 45.992188 21.851562 46.21875 21.851562 C 46.285156 21.851562 46.355469 21.84375 46.433594 21.824219 C 46.507812 21.804688 46.59375 21.78125 46.683594 21.746094 L 46.375 23.390625 M 46.992188 23.472656 L 48.511719 15.28125 L 50.519531 15.28125 L 49 23.472656 L 46.992188 23.472656 M 52.253906 20.839844 C 52.1875 21.214844 52.175781 21.496094 52.222656 21.683594 C 52.265625 21.871094 52.371094 21.964844 52.535156 21.964844 C 52.695312 21.964844 52.835938 21.871094 52.957031 21.675781 C 53.078125 21.480469 53.171875 21.203125 53.238281 20.839844 C 53.308594 20.46875 53.316406 20.1875 53.269531 19.992188 C 53.21875 19.800781 53.113281 19.703125 52.953125 19.703125 C 52.792969 19.703125 52.65625 19.800781 52.535156 19.992188 C 52.417969 20.183594 52.324219 20.464844 52.253906 20.839844 M 52.792969 23.472656 L 52.902344 22.890625 C 52.65625 23.144531 52.417969 23.332031 52.1875 23.449219 C 51.953125 23.5625 51.714844 23.621094 51.464844 23.621094 C 50.914062 23.621094 50.527344 23.378906 50.304688 22.890625 C 50.085938 22.402344 50.054688 21.71875 50.21875 20.839844 C 50.382812 19.957031 50.664062 19.269531 51.058594 18.785156 C 51.457031 18.300781 51.9375 18.058594 52.496094 18.058594 C 52.746094 18.058594 52.96875 18.117188 53.15625 18.230469 C 53.34375 18.34375 53.511719 18.527344 53.664062 18.777344 L 53.769531 18.207031 L 55.777344 18.207031 L 54.800781 23.472656 L 52.792969 23.472656 M 55.535156 23.472656 L 56.511719 18.207031 L 58.4375 18.207031 L 58.289062 18.988281 C 58.535156 18.6875 58.796875 18.464844 59.078125 18.320312 C 59.359375 18.175781 59.667969 18.105469 60.007812 18.105469 C 60.324219 18.105469 60.570312 18.175781 60.75 18.324219 C 60.933594 18.46875 61.042969 18.691406 61.082031 18.988281 C 61.289062 18.6875 61.53125 18.464844 61.796875 18.320312 C 62.066406 18.175781 62.371094 18.105469 62.714844 18.105469 C 63.136719 18.105469 63.4375 18.226562 63.613281 18.464844 C 63.789062 18.707031 63.835938 19.054688 63.75 19.515625 L 63.015625 23.472656 L 61.011719 23.472656 L 61.578125 20.410156 C 61.609375 20.246094 61.601562 20.121094 61.554688 20.042969 C 61.507812 19.964844 61.421875 19.925781 61.296875 19.925781 C 61.179688 19.925781 61.082031 19.972656 61 20.0625 C 60.917969 20.152344 60.863281 20.277344 60.832031 20.441406 L 60.269531 23.472656 L 58.277344 23.472656 L 58.84375 20.410156 C 58.875 20.246094 58.867188 20.125 58.820312 20.042969 C 58.773438 19.964844 58.6875 19.925781 58.5625 19.925781 C 58.441406 19.925781 58.339844 19.972656 58.257812 20.0625 C 58.171875 20.152344 58.117188 20.28125 58.085938 20.441406 L 57.523438 23.472656 L 55.535156 23.472656 M 66.097656 20.175781 L 67.28125 20.175781 C 67.335938 19.878906 67.328125 19.65625 67.257812 19.507812 C 67.1875 19.355469 67.050781 19.28125 66.855469 19.28125 C 66.699219 19.28125 66.558594 19.355469 66.4375 19.5 C 66.316406 19.648438 66.203125 19.871094 66.097656 20.175781 M 68.6875 21.632812 C 68.496094 22.25 68.152344 22.734375 67.664062 23.089844 C 67.175781 23.445312 66.597656 23.621094 65.933594 23.621094 C 65.15625 23.621094 64.601562 23.382812 64.269531 22.90625 C 63.933594 22.425781 63.851562 21.746094 64.015625 20.859375 C 64.179688 19.972656 64.519531 19.285156 65.035156 18.792969 C 65.550781 18.304688 66.191406 18.058594 66.957031 18.058594 C 67.789062 18.058594 68.371094 18.277344 68.699219 18.710938 C 69.03125 19.148438 69.113281 19.804688 68.953125 20.679688 C 68.933594 20.78125 68.917969 20.863281 68.90625 20.914062 C 68.894531 20.96875 68.878906 21.015625 68.863281 21.0625 L 65.933594 21.0625 L 65.921875 21.132812 C 65.851562 21.519531 65.84375 21.796875 65.90625 21.964844 C 65.964844 22.132812 66.101562 22.21875 66.308594 22.21875 C 66.464844 22.21875 66.597656 22.167969 66.710938 22.074219 C 66.824219 21.976562 66.921875 21.832031 67.003906 21.632812 L 68.6875 21.632812 " fill-opacity="1" fill-rule="nonzero"/></g><g clip-path="url(#id6)"><path fill="#007535" d="M 71.53125 20.851562 L 72.40625 20.851562 L 72.480469 18.070312 Z M 68.507812 23.472656 L 71.628906 15.964844 L 74.113281 15.964844 L 74.445312 23.472656 L 72.300781 23.472656 L 72.335938 22.367188 L 71.035156 22.367188 L 70.660156 23.472656 Z M 77.46875 19.671875 C 77.324219 20.453125 77.277344 20.984375 77.335938 21.273438 C 77.390625 21.558594 77.550781 21.703125 77.820312 21.703125 C 78.089844 21.703125 78.300781 21.5625 78.460938 21.28125 C 78.617188 20.996094 78.769531 20.460938 78.917969 19.671875 C 79.0625 18.882812 79.109375 18.347656 79.054688 18.0625 C 79.003906 17.777344 78.84375 17.636719 78.574219 17.636719 C 78.304688 17.636719 78.089844 17.78125 77.925781 18.070312 C 77.765625 18.355469 77.613281 18.890625 77.46875 19.671875 M 78.371094 24.6875 L 77.722656 23.613281 C 77.695312 23.613281 77.65625 23.613281 77.605469 23.617188 C 77.550781 23.621094 77.511719 23.621094 77.488281 23.621094 C 76.539062 23.621094 75.871094 23.28125 75.476562 22.605469 C 75.082031 21.925781 75 20.964844 75.230469 19.726562 C 75.460938 18.484375 75.898438 17.523438 76.542969 16.839844 C 77.1875 16.15625 77.976562 15.816406 78.914062 15.816406 C 79.847656 15.816406 80.507812 16.15625 80.894531 16.835938 C 81.28125 17.519531 81.359375 18.480469 81.128906 19.726562 C 80.996094 20.441406 80.792969 21.0625 80.523438 21.589844 C 80.253906 22.121094 79.90625 22.566406 79.488281 22.929688 L 80.28125 23.882812 L 78.371094 24.6875 M 81.53125 20.789062 L 82.425781 15.964844 L 84.625 15.964844 L 83.695312 20.988281 C 83.652344 21.207031 83.664062 21.371094 83.730469 21.476562 C 83.792969 21.578125 83.910156 21.632812 84.085938 21.632812 C 84.261719 21.632812 84.398438 21.578125 84.503906 21.476562 C 84.605469 21.371094 84.675781 21.207031 84.714844 20.988281 L 85.648438 15.964844 L 87.859375 15.964844 L 86.964844 20.789062 C 86.78125 21.769531 86.429688 22.488281 85.910156 22.941406 C 85.386719 23.394531 84.65625 23.621094 83.714844 23.621094 C 82.777344 23.621094 82.132812 23.394531 81.785156 22.941406 C 81.433594 22.488281 81.351562 21.769531 81.53125 20.789062 M 87.375 23.472656 L 88.765625 15.964844 L 90.972656 15.964844 L 89.582031 23.472656 L 87.375 23.472656 " fill-opacity="1" fill-rule="nonzero"/></g></svg>