<svg xmlns="http://www.w3.org/2000/svg" xmlns:xlink="http://www.w3.org/1999/xlink" width="127" zoomAndPan="magnify" viewBox="0 0 95.25 30.000001" height="40" preserveAspectRatio="xMidYMid meet" version="1.0"><defs><g/><clipPath id="id1"><path d="M 2.988281 3.921875 L 26.011719 3.921875 L 26.011719 26.945312 L 2.988281 26.945312 Z M 2.988281 3.921875 " clip-rule="nonzero"/></clipPath><clipPath id="id2"><path d="M 3.878906 4.8125 L 25.316406 4.8125 L 25.316406 26.25 L 3.878906 26.25 Z M 3.878906 4.8125 " clip-rule="nonzero"/></clipPath><clipPath id="id3"><path d="M 8.050781 2.058594 L 12 2.058594 L 12 4.355469 L 8.050781 4.355469 Z M 8.050781 2.058594 " clip-rule="nonzero"/></clipPath><clipPath id="id4"><path d="M 17.03125 2.058594 L 20.753906 2.058594 L 20.753906 4.355469 L 17.03125 4.355469 Z M 17.03125 2.058594 " clip-rule="nonzero"/></clipPath><clipPath id="id5"><path d="M 32.582031 15.261719 L 70 15.261719 L 70 24 L 32.582031 24 Z M 32.582031 15.261719 " clip-rule="nonzero"/></clipPath><clipPath id="id6"><path d="M 68 15.261719 L 91.375 15.261719 L 91.375 24.695312 L 68 24.695312 Z M 68 15.261719 " clip-rule="nonzero"/></clipPath></defs><g clip-path="url(#id1)"><path fill="#393939" d="M 14.5 3.921875 C 8.140625 3.921875 2.988281 9.074219 2.988281 15.433594 C 2.988281 21.792969 8.140625 26.945312 14.5 26.945312 C 20.859375 26.945312 26.011719 21.792969 26.011719 15.433594 C 26.011719 9.074219 20.859375 3.921875 14.5 3.921875 " fill-opacity="1" fill-rule="nonzero"/></g><g clip-path="url(#id2)"><path fill="#b4b2b2" d="M 14.597656 4.8125 C 8.675781 4.8125 3.878906 9.609375 3.878906 15.53125 C 3.878906 21.449219 8.675781 26.25 14.597656 26.25 C 20.515625 26.25 25.316406 21.449219 25.316406 15.53125 C 25.316406 9.609375 20.515625 4.8125 14.597656 4.8125 " fill-opacity="1" fill-rule="nonzero"/></g><g fill="#2b2b2b" fill-opacity="1"><g transform="translate(10.606131, 21.60562)"><g><path d="M 2.234375 -3.921875 L 2.234375 -4.515625 C 2.234375 -5.035156 2.34375 -5.488281 2.5625 -5.875 C 2.78125 -6.257812 3.1875 -6.664062 3.78125 -7.09375 C 4.34375 -7.5 4.710938 -7.828125 4.890625 -8.078125 C 5.078125 -8.328125 5.171875 -8.609375 5.171875 -8.921875 C 5.171875 -9.273438 5.039062 -9.539062 4.78125 -9.71875 C 4.519531 -9.90625 4.160156 -10 3.703125 -10 C 2.890625 -10 1.96875 -9.738281 0.9375 -9.21875 L 0.046875 -10.984375 C 1.253906 -11.660156 2.53125 -12 3.875 -12 C 4.988281 -12 5.867188 -11.726562 6.515625 -11.1875 C 7.171875 -10.65625 7.5 -9.945312 7.5 -9.0625 C 7.5 -8.46875 7.363281 -7.953125 7.09375 -7.515625 C 6.832031 -7.085938 6.320312 -6.601562 5.5625 -6.0625 C 5.039062 -5.675781 4.710938 -5.382812 4.578125 -5.1875 C 4.441406 -4.988281 4.375 -4.726562 4.375 -4.40625 L 4.375 -3.921875 Z M 1.96875 -1.15625 C 1.96875 -1.601562 2.085938 -1.941406 2.328125 -2.171875 C 2.578125 -2.410156 2.929688 -2.53125 3.390625 -2.53125 C 3.835938 -2.53125 4.179688 -2.410156 4.421875 -2.171875 C 4.671875 -1.929688 4.796875 -1.59375 4.796875 -1.15625 C 4.796875 -0.726562 4.671875 -0.390625 4.421875 -0.140625 C 4.179688 0.0976562 3.835938 0.21875 3.390625 0.21875 C 2.941406 0.21875 2.59375 0.0976562 2.34375 -0.140625 C 2.09375 -0.378906 1.96875 -0.71875 1.96875 -1.15625 Z M 1.96875 -1.15625 "/></g></g></g><g clip-path="url(#id3)"><path fill="#2b2b2b" d="M 11.96875 2.429688 C 11.953125 2.324219 11.898438 2.234375 11.808594 2.171875 C 11.695312 2.09375 11.570312 2.058594 11.4375 2.058594 C 11.175781 2.058594 10.898438 2.195312 10.699219 2.351562 C 10.652344 2.386719 10.589844 2.445312 10.503906 2.53125 C 10.15625 2.863281 9.441406 3.558594 8.617188 3.703125 C 8.300781 3.757812 8.144531 3.835938 8.089844 3.964844 C 8.054688 4.042969 8.066406 4.128906 8.125 4.21875 C 8.214844 4.359375 8.375 4.441406 8.542969 4.433594 C 9.027344 4.414062 10.683594 4.261719 11.734375 3.117188 C 11.738281 3.113281 11.738281 3.109375 11.742188 3.105469 C 11.769531 3.066406 12.015625 2.722656 11.96875 2.429688 Z M 11.96875 2.429688 " fill-opacity="1" fill-rule="nonzero"/></g><g clip-path="url(#id4)"><path fill="#2b2b2b" d="M 17.082031 2.429688 C 17.101562 2.324219 17.15625 2.234375 17.242188 2.171875 C 17.355469 2.09375 17.484375 2.058594 17.613281 2.058594 C 17.875 2.058594 18.152344 2.195312 18.351562 2.351562 C 18.398438 2.386719 18.464844 2.445312 18.550781 2.53125 C 18.894531 2.863281 19.613281 3.558594 20.4375 3.703125 C 20.75 3.757812 20.910156 3.835938 20.964844 3.964844 C 20.996094 4.042969 20.984375 4.128906 20.925781 4.21875 C 20.839844 4.359375 20.679688 4.441406 20.507812 4.433594 C 20.027344 4.414062 18.367188 4.261719 17.320312 3.117188 C 17.316406 3.113281 17.3125 3.109375 17.308594 3.105469 C 17.28125 3.066406 17.035156 2.722656 17.082031 2.429688 Z M 17.082031 2.429688 " fill-opacity="1" fill-rule="nonzero"/></g><g fill="#000000" fill-opacity="1"><g transform="translate(33.23256, 13.852737)"><g><path d="M 5.15625 -2 C 5.15625 -1.351562 4.921875 -0.84375 4.453125 -0.46875 C 3.984375 -0.09375 3.332031 0.09375 2.5 0.09375 C 1.726562 0.09375 1.050781 -0.046875 0.46875 -0.328125 L 0.46875 -1.75 C 0.945312 -1.53125 1.351562 -1.375 1.6875 -1.28125 C 2.03125 -1.195312 2.34375 -1.15625 2.625 -1.15625 C 2.957031 -1.15625 3.210938 -1.21875 3.390625 -1.34375 C 3.566406 -1.476562 3.65625 -1.671875 3.65625 -1.921875 C 3.65625 -2.066406 3.613281 -2.191406 3.53125 -2.296875 C 3.457031 -2.410156 3.34375 -2.515625 3.1875 -2.609375 C 3.039062 -2.710938 2.734375 -2.878906 2.265625 -3.109375 C 1.816406 -3.316406 1.484375 -3.515625 1.265625 -3.703125 C 1.046875 -3.890625 0.867188 -4.109375 0.734375 -4.359375 C 0.609375 -4.617188 0.546875 -4.914062 0.546875 -5.25 C 0.546875 -5.882812 0.757812 -6.382812 1.1875 -6.75 C 1.625 -7.113281 2.222656 -7.296875 2.984375 -7.296875 C 3.359375 -7.296875 3.710938 -7.25 4.046875 -7.15625 C 4.390625 -7.070312 4.75 -6.953125 5.125 -6.796875 L 4.625 -5.609375 C 4.238281 -5.765625 3.921875 -5.875 3.671875 -5.9375 C 3.421875 -6 3.175781 -6.03125 2.9375 -6.03125 C 2.644531 -6.03125 2.421875 -5.960938 2.265625 -5.828125 C 2.109375 -5.691406 2.03125 -5.515625 2.03125 -5.296875 C 2.03125 -5.160156 2.0625 -5.039062 2.125 -4.9375 C 2.1875 -4.84375 2.285156 -4.75 2.421875 -4.65625 C 2.554688 -4.5625 2.878906 -4.394531 3.390625 -4.15625 C 4.066406 -3.832031 4.53125 -3.507812 4.78125 -3.1875 C 5.03125 -2.863281 5.15625 -2.46875 5.15625 -2 Z M 5.15625 -2 "/></g></g></g><g fill="#000000" fill-opacity="1"><g transform="translate(38.77875, 13.852737)"><g><path d="M 5.046875 0 L 0.90625 0 L 0.90625 -7.1875 L 5.046875 -7.1875 L 5.046875 -5.9375 L 2.4375 -5.9375 L 2.4375 -4.359375 L 4.859375 -4.359375 L 4.859375 -3.109375 L 2.4375 -3.109375 L 2.4375 -1.265625 L 5.046875 -1.265625 Z M 5.046875 0 "/></g></g></g><g fill="#000000" fill-opacity="1"><g transform="translate(44.418361, 13.852737)"><g><path d="M 3.953125 0 L 2.21875 -5.640625 L 2.171875 -5.640625 C 2.234375 -4.492188 2.265625 -3.726562 2.265625 -3.34375 L 2.265625 0 L 0.90625 0 L 0.90625 -7.1875 L 2.984375 -7.1875 L 4.6875 -1.6875 L 4.71875 -1.6875 L 6.515625 -7.1875 L 8.59375 -7.1875 L 8.59375 0 L 7.171875 0 L 7.171875 -3.40625 C 7.171875 -3.5625 7.171875 -3.742188 7.171875 -3.953125 C 7.179688 -4.171875 7.207031 -4.734375 7.25 -5.640625 L 7.203125 -5.640625 L 5.34375 0 Z M 3.953125 0 "/></g></g></g><g fill="#000000" fill-opacity="1"><g transform="translate(53.91277, 13.852737)"><g/></g></g><g fill="#000000" fill-opacity="1"><g transform="translate(56.528526, 13.852737)"><g><path d="M 0.90625 0 L 0.90625 -7.1875 L 2.4375 -7.1875 L 2.4375 0 Z M 0.640625 -8.109375 L 0.640625 -8.234375 C 1.203125 -8.890625 1.585938 -9.382812 1.796875 -9.71875 L 3.46875 -9.71875 L 3.46875 -9.625 C 3.300781 -9.445312 3.007812 -9.191406 2.59375 -8.859375 C 2.1875 -8.523438 1.863281 -8.273438 1.625 -8.109375 Z M 0.640625 -8.109375 "/></g></g></g><g fill="#000000" fill-opacity="1"><g transform="translate(59.862141, 13.852737)"><g><path d="M 7.28125 0 L 5.34375 0 L 2.21875 -5.4375 L 2.171875 -5.4375 C 2.234375 -4.476562 2.265625 -3.796875 2.265625 -3.390625 L 2.265625 0 L 0.90625 0 L 0.90625 -7.1875 L 2.828125 -7.1875 L 5.953125 -1.8125 L 5.984375 -1.8125 C 5.941406 -2.738281 5.921875 -3.398438 5.921875 -3.796875 L 5.921875 -7.1875 L 7.28125 -7.1875 Z M 7.28125 0 "/></g></g></g><g fill="#000000" fill-opacity="1"><g transform="translate(68.048672, 13.852737)"><g><path d="M 6.875 -3.671875 C 6.875 -2.484375 6.535156 -1.570312 5.859375 -0.9375 C 5.191406 -0.3125 4.21875 0 2.9375 0 L 0.90625 0 L 0.90625 -7.1875 L 3.171875 -7.1875 C 4.335938 -7.1875 5.242188 -6.875 5.890625 -6.25 C 6.546875 -5.632812 6.875 -4.773438 6.875 -3.671875 Z M 5.296875 -3.625 C 5.296875 -5.164062 4.613281 -5.9375 3.25 -5.9375 L 2.4375 -5.9375 L 2.4375 -1.265625 L 3.078125 -1.265625 C 4.554688 -1.265625 5.296875 -2.050781 5.296875 -3.625 Z M 5.296875 -3.625 "/></g></g></g><g fill="#000000" fill-opacity="1"><g transform="translate(75.502595, 13.852737)"><g><path d="M 0.90625 0 L 0.90625 -7.1875 L 2.4375 -7.1875 L 2.4375 0 Z M 0.90625 0 "/></g></g></g><g fill="#000000" fill-opacity="1"><g transform="translate(78.836209, 13.852737)"><g><path d="M 3.96875 -6.03125 C 3.382812 -6.03125 2.9375 -5.8125 2.625 -5.375 C 2.3125 -4.945312 2.15625 -4.347656 2.15625 -3.578125 C 2.15625 -1.972656 2.757812 -1.171875 3.96875 -1.171875 C 4.46875 -1.171875 5.078125 -1.296875 5.796875 -1.546875 L 5.796875 -0.265625 C 5.203125 -0.0234375 4.539062 0.09375 3.8125 0.09375 C 2.769531 0.09375 1.96875 -0.222656 1.40625 -0.859375 C 0.851562 -1.492188 0.578125 -2.40625 0.578125 -3.59375 C 0.578125 -4.332031 0.710938 -4.984375 0.984375 -5.546875 C 1.265625 -6.109375 1.660156 -6.539062 2.171875 -6.84375 C 2.679688 -7.144531 3.28125 -7.296875 3.96875 -7.296875 C 4.664062 -7.296875 5.363281 -7.128906 6.0625 -6.796875 L 5.578125 -5.546875 C 5.304688 -5.679688 5.035156 -5.796875 4.765625 -5.890625 C 4.492188 -5.984375 4.226562 -6.03125 3.96875 -6.03125 Z M 3.96875 -6.03125 "/></g></g></g><g fill="#000000" fill-opacity="1"><g transform="translate(85.252679, 13.852737)"><g><path d="M 5.046875 0 L 0.90625 0 L 0.90625 -7.1875 L 5.046875 -7.1875 L 5.046875 -5.9375 L 2.4375 -5.9375 L 2.4375 -4.359375 L 4.859375 -4.359375 L 4.859375 -3.109375 L 2.4375 -3.109375 L 2.4375 -1.265625 L 5.046875 -1.265625 Z M 5.046875 0 "/></g></g></g><g clip-path="url(#id5)"><path fill="#90b823" d="M 35.890625 17.523438 L 35.558594 19.3125 C 35.859375 19.308594 36.089844 19.230469 36.253906 19.089844 C 36.417969 18.949219 36.527344 18.722656 36.585938 18.417969 C 36.640625 18.121094 36.617188 17.894531 36.515625 17.746094 C 36.414062 17.597656 36.234375 17.523438 35.976562 17.523438 Z M 32.582031 23.472656 L 33.972656 15.964844 L 36.511719 15.964844 C 37.367188 15.964844 38.003906 16.171875 38.421875 16.589844 C 38.839844 17.003906 38.980469 17.566406 38.847656 18.28125 C 38.765625 18.71875 38.585938 19.09375 38.308594 19.402344 C 38.027344 19.714844 37.652344 19.960938 37.171875 20.144531 L 38.117188 23.472656 L 35.78125 23.472656 L 35.328125 20.566406 L 34.789062 23.472656 Z M 40.691406 20.175781 L 41.875 20.175781 C 41.929688 19.878906 41.921875 19.65625 41.851562 19.507812 C 41.78125 19.355469 41.644531 19.28125 41.445312 19.28125 C 41.292969 19.28125 41.152344 19.355469 41.03125 19.5 C 40.90625 19.648438 40.796875 19.871094 40.691406 20.175781 M 43.28125 21.632812 C 43.089844 22.25 42.746094 22.734375 42.257812 23.089844 C 41.769531 23.445312 41.191406 23.621094 40.527344 23.621094 C 39.75 23.621094 39.195312 23.382812 38.859375 22.90625 C 38.527344 22.425781 38.445312 21.746094 38.609375 20.859375 C 38.773438 19.972656 39.113281 19.285156 39.628906 18.792969 C 40.144531 18.304688 40.785156 18.058594 41.550781 18.058594 C 42.382812 18.058594 42.964844 18.277344 43.292969 18.710938 C 43.625 19.148438 43.707031 19.804688 43.542969 20.679688 C 43.527344 20.78125 43.511719 20.863281 43.5 20.914062 C 43.488281 20.96875 43.472656 21.015625 43.457031 21.0625 L 40.527344 21.0625 L 40.515625 21.132812 C 40.441406 21.519531 40.4375 21.796875 40.5 21.964844 C 40.558594 22.132812 40.695312 22.21875 40.902344 22.21875 C 41.058594 22.21875 41.191406 22.167969 41.304688 22.074219 C 41.417969 21.976562 41.515625 21.832031 41.597656 21.632812 L 43.28125 21.632812 M 46.738281 23.390625 C 46.582031 23.46875 46.414062 23.527344 46.238281 23.566406 C 46.066406 23.601562 45.871094 23.621094 45.660156 23.621094 C 44.945312 23.621094 44.429688 23.375 44.109375 22.878906 C 43.792969 22.382812 43.710938 21.703125 43.871094 20.839844 C 44.027344 19.992188 44.367188 19.316406 44.882812 18.816406 C 45.398438 18.3125 46.007812 18.058594 46.710938 18.058594 C 46.90625 18.058594 47.085938 18.078125 47.246094 18.109375 C 47.40625 18.144531 47.554688 18.199219 47.6875 18.269531 L 47.390625 19.882812 C 47.328125 19.84375 47.265625 19.8125 47.195312 19.792969 C 47.128906 19.777344 47.050781 19.765625 46.96875 19.765625 C 46.757812 19.765625 46.574219 19.863281 46.414062 20.054688 C 46.253906 20.246094 46.144531 20.507812 46.082031 20.839844 C 46.019531 21.175781 46.03125 21.429688 46.117188 21.597656 C 46.199219 21.769531 46.355469 21.851562 46.582031 21.851562 C 46.644531 21.851562 46.71875 21.84375 46.796875 21.824219 C 46.871094 21.804688 46.957031 21.78125 47.042969 21.746094 L 46.738281 23.390625 M 47.355469 23.472656 L 48.875 15.28125 L 50.878906 15.28125 L 49.363281 23.472656 L 47.355469 23.472656 M 52.617188 20.839844 C 52.550781 21.214844 52.539062 21.496094 52.582031 21.683594 C 52.628906 21.871094 52.734375 21.964844 52.894531 21.964844 C 53.058594 21.964844 53.199219 21.871094 53.320312 21.675781 C 53.441406 21.480469 53.535156 21.203125 53.601562 20.839844 C 53.671875 20.46875 53.679688 20.1875 53.632812 19.992188 C 53.582031 19.800781 53.476562 19.703125 53.316406 19.703125 C 53.15625 19.703125 53.019531 19.800781 52.898438 19.992188 C 52.78125 20.183594 52.6875 20.464844 52.617188 20.839844 M 53.15625 23.472656 L 53.265625 22.890625 C 53.019531 23.144531 52.78125 23.332031 52.546875 23.449219 C 52.316406 23.5625 52.074219 23.621094 51.828125 23.621094 C 51.277344 23.621094 50.890625 23.378906 50.667969 22.890625 C 50.445312 22.402344 50.417969 21.71875 50.582031 20.839844 C 50.746094 19.957031 51.027344 19.269531 51.421875 18.785156 C 51.820312 18.300781 52.300781 18.058594 52.859375 18.058594 C 53.109375 18.058594 53.332031 18.117188 53.519531 18.230469 C 53.707031 18.34375 53.875 18.527344 54.027344 18.777344 L 54.132812 18.207031 L 56.140625 18.207031 L 55.164062 23.472656 L 53.15625 23.472656 M 55.898438 23.472656 L 56.875 18.207031 L 58.796875 18.207031 L 58.652344 18.988281 C 58.898438 18.6875 59.160156 18.464844 59.441406 18.320312 C 59.71875 18.175781 60.03125 18.105469 60.367188 18.105469 C 60.6875 18.105469 60.933594 18.175781 61.113281 18.324219 C 61.296875 18.46875 61.40625 18.691406 61.441406 18.988281 C 61.652344 18.6875 61.894531 18.464844 62.160156 18.320312 C 62.429688 18.175781 62.734375 18.105469 63.078125 18.105469 C 63.5 18.105469 63.796875 18.226562 63.976562 18.464844 C 64.152344 18.707031 64.199219 19.054688 64.113281 19.515625 L 63.378906 23.472656 L 61.375 23.472656 L 61.941406 20.410156 C 61.972656 20.246094 61.964844 20.121094 61.917969 20.042969 C 61.871094 19.964844 61.785156 19.925781 61.660156 19.925781 C 61.542969 19.925781 61.445312 19.972656 61.363281 20.0625 C 61.28125 20.152344 61.226562 20.277344 61.195312 20.441406 L 60.632812 23.472656 L 58.636719 23.472656 L 59.207031 20.410156 C 59.238281 20.246094 59.230469 20.125 59.183594 20.042969 C 59.136719 19.964844 59.050781 19.925781 58.921875 19.925781 C 58.804688 19.925781 58.703125 19.972656 58.621094 20.0625 C 58.535156 20.152344 58.480469 20.28125 58.449219 20.441406 L 57.886719 23.472656 L 55.898438 23.472656 M 66.460938 20.175781 L 67.644531 20.175781 C 67.699219 19.878906 67.691406 19.65625 67.621094 19.507812 C 67.550781 19.355469 67.414062 19.28125 67.214844 19.28125 C 67.0625 19.28125 66.921875 19.355469 66.800781 19.5 C 66.675781 19.648438 66.566406 19.871094 66.460938 20.175781 M 69.050781 21.632812 C 68.859375 22.25 68.515625 22.734375 68.027344 23.089844 C 67.539062 23.445312 66.960938 23.621094 66.296875 23.621094 C 65.519531 23.621094 64.964844 23.382812 64.632812 22.90625 C 64.296875 22.425781 64.214844 21.746094 64.378906 20.859375 C 64.542969 19.972656 64.882812 19.285156 65.398438 18.792969 C 65.914062 18.304688 66.554688 18.058594 67.320312 18.058594 C 68.152344 18.058594 68.734375 18.277344 69.0625 18.710938 C 69.394531 19.148438 69.476562 19.804688 69.316406 20.679688 C 69.296875 20.78125 69.28125 20.863281 69.269531 20.914062 C 69.257812 20.96875 69.242188 21.015625 69.226562 21.0625 L 66.296875 21.0625 L 66.285156 21.132812 C 66.210938 21.519531 66.207031 21.796875 66.269531 21.964844 C 66.328125 22.132812 66.464844 22.21875 66.671875 22.21875 C 66.828125 22.21875 66.960938 22.167969 67.074219 22.074219 C 67.1875 21.976562 67.285156 21.832031 67.367188 21.632812 L 69.050781 21.632812 " fill-opacity="1" fill-rule="nonzero"/></g><g clip-path="url(#id6)"><path fill="#007535" d="M 71.894531 20.851562 L 72.769531 20.851562 L 72.839844 18.070312 Z M 68.871094 23.472656 L 71.992188 15.964844 L 74.476562 15.964844 L 74.808594 23.472656 L 72.660156 23.472656 L 72.699219 22.367188 L 71.394531 22.367188 L 71.023438 23.472656 Z M 77.832031 19.671875 C 77.6875 20.453125 77.640625 20.984375 77.695312 21.273438 C 77.75 21.558594 77.914062 21.703125 78.183594 21.703125 C 78.449219 21.703125 78.664062 21.5625 78.824219 21.28125 C 78.980469 20.996094 79.132812 20.460938 79.28125 19.671875 C 79.425781 18.882812 79.472656 18.347656 79.417969 18.0625 C 79.363281 17.777344 79.203125 17.636719 78.9375 17.636719 C 78.667969 17.636719 78.453125 17.78125 78.289062 18.070312 C 78.128906 18.355469 77.976562 18.890625 77.832031 19.671875 M 78.734375 24.6875 L 78.085938 23.613281 C 78.058594 23.613281 78.019531 23.613281 77.96875 23.617188 C 77.914062 23.621094 77.875 23.621094 77.851562 23.621094 C 76.902344 23.621094 76.230469 23.28125 75.839844 22.605469 C 75.445312 21.925781 75.363281 20.964844 75.59375 19.726562 C 75.824219 18.484375 76.261719 17.523438 76.90625 16.839844 C 77.546875 16.15625 78.339844 15.816406 79.277344 15.816406 C 80.210938 15.816406 80.871094 16.15625 81.257812 16.835938 C 81.644531 17.519531 81.722656 18.480469 81.492188 19.726562 C 81.359375 20.441406 81.15625 21.0625 80.886719 21.589844 C 80.617188 22.121094 80.269531 22.566406 79.847656 22.929688 L 80.644531 23.882812 L 78.734375 24.6875 M 81.894531 20.789062 L 82.789062 15.964844 L 84.988281 15.964844 L 84.058594 20.988281 C 84.015625 21.207031 84.027344 21.371094 84.09375 21.476562 C 84.15625 21.578125 84.273438 21.632812 84.445312 21.632812 C 84.625 21.632812 84.761719 21.578125 84.863281 21.476562 C 84.96875 21.371094 85.039062 21.207031 85.078125 20.988281 L 86.011719 15.964844 L 88.222656 15.964844 L 87.328125 20.789062 C 87.144531 21.769531 86.792969 22.488281 86.273438 22.941406 C 85.75 23.394531 85.019531 23.621094 84.078125 23.621094 C 83.140625 23.621094 82.496094 23.394531 82.148438 22.941406 C 81.796875 22.488281 81.710938 21.769531 81.894531 20.789062 M 87.738281 23.472656 L 89.128906 15.964844 L 91.335938 15.964844 L 89.945312 23.472656 L 87.738281 23.472656 " fill-opacity="1" fill-rule="nonzero"/></g></svg>