<svg xmlns="http://www.w3.org/2000/svg" xmlns:xlink="http://www.w3.org/1999/xlink" width="127" zoomAndPan="magnify" viewBox="0 0 95.25 30.000001" height="40" preserveAspectRatio="xMidYMid meet" version="1.0"><defs><g/><clipPath id="id1"><path d="M 4.078125 3.921875 L 27.101562 3.921875 L 27.101562 26.945312 L 4.078125 26.945312 Z M 4.078125 3.921875 " clip-rule="nonzero"/></clipPath><clipPath id="id2"><path d="M 4.96875 4.8125 L 26.402344 4.8125 L 26.402344 26.25 L 4.96875 26.25 Z M 4.96875 4.8125 " clip-rule="nonzero"/></clipPath><clipPath id="id3"><path d="M 9.140625 2.058594 L 13.109375 2.058594 L 13.109375 4.355469 L 9.140625 4.355469 Z M 9.140625 2.058594 " clip-rule="nonzero"/></clipPath><clipPath id="id4"><path d="M 18.121094 2.058594 L 21.84375 2.058594 L 21.84375 4.355469 L 18.121094 4.355469 Z M 18.121094 2.058594 " clip-rule="nonzero"/></clipPath><clipPath id="id5"><path d="M 34.882812 16.113281 L 69 16.113281 L 69 24 L 34.882812 24 Z M 34.882812 16.113281 " clip-rule="nonzero"/></clipPath><clipPath id="id6"><path d="M 68 16.113281 L 88.59375 16.113281 L 88.59375 24.824219 L 68 24.824219 Z M 68 16.113281 " clip-rule="nonzero"/></clipPath></defs><g clip-path="url(#id1)"><path fill="#393939" d="M 15.589844 3.921875 C 9.230469 3.921875 4.078125 9.074219 4.078125 15.433594 C 4.078125 21.792969 9.230469 26.945312 15.589844 26.945312 C 21.945312 26.945312 27.101562 21.792969 27.101562 15.433594 C 27.101562 9.074219 21.945312 3.921875 15.589844 3.921875 " fill-opacity="1" fill-rule="nonzero"/></g><g clip-path="url(#id2)"><path fill="#b4b2b2" d="M 15.6875 4.8125 C 9.765625 4.8125 4.96875 9.609375 4.96875 15.53125 C 4.96875 21.449219 9.765625 26.25 15.6875 26.25 C 21.605469 26.25 26.402344 21.449219 26.402344 15.53125 C 26.402344 9.609375 21.605469 4.8125 15.6875 4.8125 " fill-opacity="1" fill-rule="nonzero"/></g><g fill="#2b2b2b" fill-opacity="1"><g transform="translate(11.69484, 21.60562)"><g><path d="M 2.234375 -3.921875 L 2.234375 -4.515625 C 2.234375 -5.035156 2.34375 -5.488281 2.5625 -5.875 C 2.78125 -6.257812 3.1875 -6.664062 3.78125 -7.09375 C 4.34375 -7.5 4.710938 -7.828125 4.890625 -8.078125 C 5.078125 -8.328125 5.171875 -8.609375 5.171875 -8.921875 C 5.171875 -9.273438 5.039062 -9.539062 4.78125 -9.71875 C 4.519531 -9.90625 4.160156 -10 3.703125 -10 C 2.890625 -10 1.96875 -9.738281 0.9375 -9.21875 L 0.046875 -10.984375 C 1.253906 -11.660156 2.53125 -12 3.875 -12 C 4.988281 -12 5.867188 -11.726562 6.515625 -11.1875 C 7.171875 -10.65625 7.5 -9.945312 7.5 -9.0625 C 7.5 -8.46875 7.363281 -7.953125 7.09375 -7.515625 C 6.832031 -7.085938 6.320312 -6.601562 5.5625 -6.0625 C 5.039062 -5.675781 4.710938 -5.382812 4.578125 -5.1875 C 4.441406 -4.988281 4.375 -4.726562 4.375 -4.40625 L 4.375 -3.921875 Z M 1.96875 -1.15625 C 1.96875 -1.601562 2.085938 -1.941406 2.328125 -2.171875 C 2.578125 -2.410156 2.929688 -2.53125 3.390625 -2.53125 C 3.835938 -2.53125 4.179688 -2.410156 4.421875 -2.171875 C 4.671875 -1.929688 4.796875 -1.59375 4.796875 -1.15625 C 4.796875 -0.726562 4.671875 -0.390625 4.421875 -0.140625 C 4.179688 0.0976562 3.835938 0.21875 3.390625 0.21875 C 2.941406 0.21875 2.59375 0.0976562 2.34375 -0.140625 C 2.09375 -0.378906 1.96875 -0.71875 1.96875 -1.15625 Z M 1.96875 -1.15625 "/></g></g></g><g clip-path="url(#id3)"><path fill="#2b2b2b" d="M 13.058594 2.429688 C 13.039062 2.324219 12.984375 2.234375 12.898438 2.171875 C 12.785156 2.09375 12.660156 2.058594 12.527344 2.058594 C 12.265625 2.058594 11.988281 2.195312 11.789062 2.351562 C 11.742188 2.386719 11.675781 2.445312 11.589844 2.53125 C 11.246094 2.863281 10.53125 3.558594 9.703125 3.703125 C 9.390625 3.757812 9.230469 3.835938 9.175781 3.964844 C 9.144531 4.042969 9.15625 4.128906 9.214844 4.21875 C 9.300781 4.359375 9.460938 4.441406 9.632812 4.433594 C 10.113281 4.414062 11.773438 4.261719 12.824219 3.117188 C 12.824219 3.113281 12.828125 3.109375 12.832031 3.105469 C 12.859375 3.066406 13.105469 2.722656 13.058594 2.429688 Z M 13.058594 2.429688 " fill-opacity="1" fill-rule="nonzero"/></g><g clip-path="url(#id4)"><path fill="#2b2b2b" d="M 18.171875 2.429688 C 18.1875 2.324219 18.242188 2.234375 18.332031 2.171875 C 18.445312 2.09375 18.570312 2.058594 18.703125 2.058594 C 18.964844 2.058594 19.242188 2.195312 19.441406 2.351562 C 19.488281 2.386719 19.550781 2.445312 19.640625 2.53125 C 19.984375 2.863281 20.699219 3.558594 21.523438 3.703125 C 21.839844 3.757812 22 3.835938 22.050781 3.964844 C 22.085938 4.042969 22.074219 4.128906 22.015625 4.21875 C 21.925781 4.359375 21.765625 4.441406 21.597656 4.433594 C 21.113281 4.414062 19.457031 4.261719 18.40625 3.117188 C 18.402344 3.113281 18.402344 3.109375 18.398438 3.105469 C 18.371094 3.066406 18.125 2.722656 18.171875 2.429688 Z M 18.171875 2.429688 " fill-opacity="1" fill-rule="nonzero"/></g><g fill="#393939" fill-opacity="1"><g transform="translate(32.862885, 14.218048)"><g><path d="M 5.15625 -2 C 5.15625 -1.351562 4.921875 -0.84375 4.453125 -0.46875 C 3.984375 -0.09375 3.332031 0.09375 2.5 0.09375 C 1.726562 0.09375 1.050781 -0.046875 0.46875 -0.328125 L 0.46875 -1.75 C 0.945312 -1.53125 1.351562 -1.375 1.6875 -1.28125 C 2.03125 -1.195312 2.34375 -1.15625 2.625 -1.15625 C 2.957031 -1.15625 3.210938 -1.21875 3.390625 -1.34375 C 3.566406 -1.476562 3.65625 -1.671875 3.65625 -1.921875 C 3.65625 -2.066406 3.613281 -2.191406 3.53125 -2.296875 C 3.457031 -2.410156 3.34375 -2.515625 3.1875 -2.609375 C 3.039062 -2.710938 2.734375 -2.878906 2.265625 -3.109375 C 1.816406 -3.316406 1.484375 -3.515625 1.265625 -3.703125 C 1.046875 -3.890625 0.867188 -4.109375 0.734375 -4.359375 C 0.609375 -4.617188 0.546875 -4.914062 0.546875 -5.25 C 0.546875 -5.882812 0.757812 -6.382812 1.1875 -6.75 C 1.625 -7.113281 2.222656 -7.296875 2.984375 -7.296875 C 3.359375 -7.296875 3.710938 -7.25 4.046875 -7.15625 C 4.390625 -7.070312 4.75 -6.953125 5.125 -6.796875 L 4.625 -5.609375 C 4.238281 -5.765625 3.921875 -5.875 3.671875 -5.9375 C 3.421875 -6 3.175781 -6.03125 2.9375 -6.03125 C 2.644531 -6.03125 2.421875 -5.960938 2.265625 -5.828125 C 2.109375 -5.691406 2.03125 -5.515625 2.03125 -5.296875 C 2.03125 -5.160156 2.0625 -5.039062 2.125 -4.9375 C 2.1875 -4.84375 2.285156 -4.75 2.421875 -4.65625 C 2.554688 -4.5625 2.878906 -4.394531 3.390625 -4.15625 C 4.066406 -3.832031 4.53125 -3.507812 4.78125 -3.1875 C 5.03125 -2.863281 5.15625 -2.46875 5.15625 -2 Z M 5.15625 -2 "/></g></g></g><g fill="#393939" fill-opacity="1"><g transform="translate(38.409563, 14.218048)"><g><path d="M 5.046875 0 L 0.90625 0 L 0.90625 -7.1875 L 5.046875 -7.1875 L 5.046875 -5.9375 L 2.4375 -5.9375 L 2.4375 -4.359375 L 4.859375 -4.359375 L 4.859375 -3.109375 L 2.4375 -3.109375 L 2.4375 -1.265625 L 5.046875 -1.265625 Z M 5.046875 0 "/></g></g></g><g fill="#393939" fill-opacity="1"><g transform="translate(44.04967, 14.218048)"><g><path d="M 3.953125 0 L 2.21875 -5.640625 L 2.171875 -5.640625 C 2.234375 -4.492188 2.265625 -3.726562 2.265625 -3.34375 L 2.265625 0 L 0.90625 0 L 0.90625 -7.1875 L 2.984375 -7.1875 L 4.6875 -1.6875 L 4.71875 -1.6875 L 6.515625 -7.1875 L 8.59375 -7.1875 L 8.59375 0 L 7.171875 0 L 7.171875 -3.40625 C 7.171875 -3.5625 7.171875 -3.742188 7.171875 -3.953125 C 7.179688 -4.171875 7.207031 -4.734375 7.25 -5.640625 L 7.203125 -5.640625 L 5.34375 0 Z M 3.953125 0 "/></g></g></g><g fill="#393939" fill-opacity="1"><g transform="translate(53.544914, 14.218048)"><g/></g></g><g fill="#393939" fill-opacity="1"><g transform="translate(56.1609, 14.218048)"><g><path d="M 0.90625 0 L 0.90625 -7.1875 L 2.4375 -7.1875 L 2.4375 0 Z M 0.640625 -8.109375 L 0.640625 -8.234375 C 1.203125 -8.890625 1.585938 -9.382812 1.796875 -9.71875 L 3.46875 -9.71875 L 3.46875 -9.625 C 3.300781 -9.445312 3.007812 -9.191406 2.59375 -8.859375 C 2.1875 -8.523438 1.863281 -8.273438 1.625 -8.109375 Z M 0.640625 -8.109375 "/></g></g></g><g fill="#393939" fill-opacity="1"><g transform="translate(59.494808, 14.218048)"><g><path d="M 7.28125 0 L 5.34375 0 L 2.21875 -5.4375 L 2.171875 -5.4375 C 2.234375 -4.476562 2.265625 -3.796875 2.265625 -3.390625 L 2.265625 0 L 0.90625 0 L 0.90625 -7.1875 L 2.828125 -7.1875 L 5.953125 -1.8125 L 5.984375 -1.8125 C 5.941406 -2.738281 5.921875 -3.398438 5.921875 -3.796875 L 5.921875 -7.1875 L 7.28125 -7.1875 Z M 7.28125 0 "/></g></g></g><g fill="#393939" fill-opacity="1"><g transform="translate(67.682059, 14.218048)"><g><path d="M 6.875 -3.671875 C 6.875 -2.484375 6.535156 -1.570312 5.859375 -0.9375 C 5.191406 -0.3125 4.21875 0 2.9375 0 L 0.90625 0 L 0.90625 -7.1875 L 3.171875 -7.1875 C 4.335938 -7.1875 5.242188 -6.875 5.890625 -6.25 C 6.546875 -5.632812 6.875 -4.773438 6.875 -3.671875 Z M 5.296875 -3.625 C 5.296875 -5.164062 4.613281 -5.9375 3.25 -5.9375 L 2.4375 -5.9375 L 2.4375 -1.265625 L 3.078125 -1.265625 C 4.554688 -1.265625 5.296875 -2.050781 5.296875 -3.625 Z M 5.296875 -3.625 "/></g></g></g><g fill="#393939" fill-opacity="1"><g transform="translate(75.136637, 14.218048)"><g><path d="M 0.90625 0 L 0.90625 -7.1875 L 2.4375 -7.1875 L 2.4375 0 Z M 0.90625 0 "/></g></g></g><g fill="#393939" fill-opacity="1"><g transform="translate(78.470544, 14.218048)"><g><path d="M 3.96875 -6.03125 C 3.382812 -6.03125 2.9375 -5.8125 2.625 -5.375 C 2.3125 -4.945312 2.15625 -4.347656 2.15625 -3.578125 C 2.15625 -1.972656 2.757812 -1.171875 3.96875 -1.171875 C 4.46875 -1.171875 5.078125 -1.296875 5.796875 -1.546875 L 5.796875 -0.265625 C 5.203125 -0.0234375 4.539062 0.09375 3.8125 0.09375 C 2.769531 0.09375 1.96875 -0.222656 1.40625 -0.859375 C 0.851562 -1.492188 0.578125 -2.40625 0.578125 -3.59375 C 0.578125 -4.332031 0.710938 -4.984375 0.984375 -5.546875 C 1.265625 -6.109375 1.660156 -6.539062 2.171875 -6.84375 C 2.679688 -7.144531 3.28125 -7.296875 3.96875 -7.296875 C 4.664062 -7.296875 5.363281 -7.128906 6.0625 -6.796875 L 5.578125 -5.546875 C 5.304688 -5.679688 5.035156 -5.796875 4.765625 -5.890625 C 4.492188 -5.984375 4.226562 -6.03125 3.96875 -6.03125 Z M 3.96875 -6.03125 "/></g></g></g><g fill="#393939" fill-opacity="1"><g transform="translate(84.887579, 14.218048)"><g><path d="M 5.046875 0 L 0.90625 0 L 0.90625 -7.1875 L 5.046875 -7.1875 L 5.046875 -5.9375 L 2.4375 -5.9375 L 2.4375 -4.359375 L 4.859375 -4.359375 L 4.859375 -3.109375 L 2.4375 -3.109375 L 2.4375 -1.265625 L 5.046875 -1.265625 Z M 5.046875 0 "/></g></g></g><g clip-path="url(#id5)"><path fill="#90b823" d="M 37.90625 18.203125 L 37.605469 19.855469 C 37.878906 19.847656 38.089844 19.78125 38.238281 19.648438 C 38.386719 19.515625 38.488281 19.308594 38.539062 19.027344 C 38.589844 18.753906 38.570312 18.546875 38.476562 18.410156 C 38.382812 18.269531 38.21875 18.203125 37.984375 18.203125 Z M 34.882812 23.695312 L 36.15625 16.765625 L 38.472656 16.765625 C 39.253906 16.765625 39.835938 16.957031 40.21875 17.339844 C 40.597656 17.722656 40.730469 18.242188 40.609375 18.902344 C 40.535156 19.304688 40.371094 19.652344 40.113281 19.9375 C 39.859375 20.222656 39.515625 20.453125 39.078125 20.621094 L 39.941406 23.691406 L 37.808594 23.691406 L 37.390625 21.011719 L 36.898438 23.695312 Z M 42.292969 20.652344 L 43.375 20.652344 C 43.425781 20.375 43.417969 20.167969 43.351562 20.03125 C 43.285156 19.894531 43.164062 19.824219 42.980469 19.824219 C 42.839844 19.824219 42.714844 19.894531 42.601562 20.027344 C 42.488281 20.160156 42.386719 20.371094 42.292969 20.652344 M 44.660156 21.996094 C 44.480469 22.5625 44.167969 23.011719 43.722656 23.339844 C 43.277344 23.667969 42.75 23.832031 42.144531 23.832031 C 41.433594 23.832031 40.925781 23.609375 40.621094 23.167969 C 40.316406 22.726562 40.238281 22.097656 40.386719 21.28125 C 40.539062 20.464844 40.851562 19.828125 41.320312 19.375 C 41.792969 18.921875 42.378906 18.695312 43.074219 18.695312 C 43.835938 18.695312 44.367188 18.898438 44.667969 19.300781 C 44.96875 19.699219 45.046875 20.304688 44.898438 21.117188 C 44.882812 21.210938 44.867188 21.285156 44.855469 21.332031 C 44.84375 21.382812 44.832031 21.425781 44.820312 21.46875 L 42.144531 21.46875 L 42.128906 21.535156 C 42.066406 21.890625 42.058594 22.148438 42.117188 22.300781 C 42.171875 22.457031 42.292969 22.535156 42.484375 22.535156 C 42.628906 22.535156 42.75 22.492188 42.851562 22.402344 C 42.957031 22.3125 43.046875 22.175781 43.117188 21.992188 L 44.660156 21.992188 M 47.816406 23.617188 C 47.671875 23.691406 47.519531 23.742188 47.359375 23.777344 C 47.203125 23.8125 47.023438 23.832031 46.828125 23.832031 C 46.179688 23.832031 45.707031 23.601562 45.414062 23.144531 C 45.125 22.6875 45.050781 22.0625 45.199219 21.265625 C 45.339844 20.480469 45.648438 19.859375 46.121094 19.394531 C 46.59375 18.929688 47.148438 18.695312 47.792969 18.695312 C 47.96875 18.695312 48.132812 18.710938 48.28125 18.742188 C 48.425781 18.777344 48.5625 18.824219 48.683594 18.890625 L 48.410156 20.378906 C 48.355469 20.34375 48.296875 20.316406 48.234375 20.296875 C 48.171875 20.28125 48.101562 20.273438 48.027344 20.273438 C 47.835938 20.273438 47.667969 20.359375 47.519531 20.539062 C 47.375 20.714844 47.273438 20.957031 47.21875 21.265625 C 47.160156 21.574219 47.171875 21.808594 47.246094 21.964844 C 47.324219 22.121094 47.464844 22.199219 47.671875 22.199219 C 47.730469 22.199219 47.796875 22.191406 47.867188 22.171875 C 47.9375 22.15625 48.015625 22.128906 48.097656 22.097656 L 47.816406 23.617188 M 48.382812 23.695312 L 49.769531 16.132812 L 51.601562 16.132812 L 50.214844 23.691406 L 48.382812 23.691406 M 53.1875 21.265625 C 53.125 21.609375 53.113281 21.867188 53.15625 22.042969 C 53.199219 22.214844 53.292969 22.300781 53.441406 22.300781 C 53.589844 22.300781 53.71875 22.214844 53.828125 22.035156 C 53.9375 21.855469 54.023438 21.597656 54.085938 21.261719 C 54.148438 20.921875 54.160156 20.660156 54.113281 20.480469 C 54.070312 20.304688 53.972656 20.214844 53.824219 20.214844 C 53.679688 20.214844 53.554688 20.304688 53.445312 20.480469 C 53.335938 20.65625 53.25 20.917969 53.1875 21.261719 M 53.679688 23.691406 L 53.777344 23.15625 C 53.554688 23.390625 53.335938 23.5625 53.125 23.667969 C 52.914062 23.777344 52.691406 23.832031 52.464844 23.832031 C 51.960938 23.832031 51.609375 23.605469 51.40625 23.15625 C 51.203125 22.703125 51.179688 22.074219 51.328125 21.261719 C 51.476562 20.449219 51.734375 19.816406 52.097656 19.367188 C 52.460938 18.921875 52.898438 18.695312 53.40625 18.695312 C 53.636719 18.695312 53.839844 18.75 54.011719 18.855469 C 54.183594 18.960938 54.335938 19.128906 54.476562 19.359375 L 54.570312 18.832031 L 56.402344 18.832031 L 55.511719 23.695312 L 53.679688 23.695312 M 56.183594 23.695312 L 57.078125 18.832031 L 58.835938 18.832031 L 58.703125 19.554688 C 58.925781 19.277344 59.164062 19.070312 59.417969 18.9375 C 59.675781 18.804688 59.960938 18.738281 60.269531 18.738281 C 60.558594 18.738281 60.785156 18.804688 60.949219 18.941406 C 61.117188 19.074219 61.214844 19.28125 61.25 19.554688 C 61.441406 19.277344 61.660156 19.070312 61.90625 18.9375 C 62.152344 18.804688 62.429688 18.738281 62.742188 18.738281 C 63.128906 18.738281 63.402344 18.851562 63.5625 19.070312 C 63.726562 19.292969 63.769531 19.613281 63.691406 20.039062 L 63.019531 23.695312 L 61.1875 23.695312 L 61.707031 20.863281 C 61.734375 20.714844 61.726562 20.601562 61.683594 20.527344 C 61.640625 20.457031 61.5625 20.417969 61.449219 20.417969 C 61.34375 20.417969 61.25 20.460938 61.175781 20.546875 C 61.101562 20.628906 61.050781 20.746094 61.023438 20.894531 L 60.511719 23.695312 L 58.6875 23.695312 L 59.207031 20.863281 C 59.234375 20.714844 59.226562 20.601562 59.183594 20.527344 C 59.144531 20.457031 59.0625 20.417969 58.949219 20.417969 C 58.839844 20.417969 58.746094 20.460938 58.671875 20.546875 C 58.59375 20.628906 58.542969 20.746094 58.515625 20.894531 L 58.003906 23.695312 L 56.183594 23.695312 M 65.835938 20.652344 L 66.917969 20.652344 C 66.964844 20.375 66.960938 20.167969 66.894531 20.03125 C 66.828125 19.894531 66.707031 19.824219 66.523438 19.824219 C 66.382812 19.824219 66.257812 19.894531 66.144531 20.027344 C 66.03125 20.160156 65.929688 20.371094 65.835938 20.652344 M 68.199219 21.996094 C 68.023438 22.5625 67.710938 23.011719 67.265625 23.339844 C 66.816406 23.667969 66.292969 23.832031 65.6875 23.832031 C 64.976562 23.832031 64.46875 23.609375 64.164062 23.167969 C 63.859375 22.726562 63.78125 22.097656 63.929688 21.28125 C 64.082031 20.464844 64.390625 19.828125 64.863281 19.375 C 65.335938 18.921875 65.921875 18.695312 66.617188 18.695312 C 67.378906 18.695312 67.910156 18.898438 68.210938 19.300781 C 68.511719 19.699219 68.589844 20.304688 68.441406 21.117188 C 68.421875 21.210938 68.410156 21.285156 68.398438 21.332031 C 68.386719 21.382812 68.375 21.425781 68.363281 21.46875 L 65.683594 21.46875 L 65.671875 21.535156 C 65.609375 21.890625 65.601562 22.148438 65.65625 22.300781 C 65.714844 22.457031 65.835938 22.535156 66.027344 22.535156 C 66.167969 22.535156 66.292969 22.492188 66.394531 22.402344 C 66.5 22.3125 66.585938 22.175781 66.660156 21.992188 L 68.203125 21.992188 " fill-opacity="1" fill-rule="nonzero"/></g><g clip-path="url(#id6)"><path fill="#007535" d="M 70.796875 21.273438 L 71.597656 21.273438 L 71.664062 18.707031 Z M 68.039062 23.695312 L 70.890625 16.765625 L 73.15625 16.765625 L 73.460938 23.691406 L 71.5 23.691406 L 71.535156 22.671875 L 70.34375 22.671875 L 70.003906 23.695312 Z M 76.222656 20.1875 C 76.089844 20.90625 76.050781 21.398438 76.097656 21.664062 C 76.148438 21.929688 76.296875 22.0625 76.542969 22.0625 C 76.789062 22.0625 76.984375 21.929688 77.128906 21.667969 C 77.273438 21.410156 77.410156 20.914062 77.546875 20.1875 C 77.679688 19.457031 77.722656 18.964844 77.671875 18.699219 C 77.625 18.4375 77.476562 18.308594 77.234375 18.308594 C 76.988281 18.308594 76.789062 18.441406 76.640625 18.707031 C 76.496094 18.972656 76.355469 19.464844 76.222656 20.1875 M 77.046875 24.8125 L 76.453125 23.820312 C 76.429688 23.820312 76.394531 23.824219 76.347656 23.824219 C 76.296875 23.828125 76.261719 23.832031 76.238281 23.832031 C 75.375 23.832031 74.761719 23.519531 74.402344 22.890625 C 74.042969 22.265625 73.96875 21.378906 74.179688 20.234375 C 74.390625 19.089844 74.789062 18.203125 75.375 17.570312 C 75.964844 16.941406 76.6875 16.628906 77.542969 16.628906 C 78.394531 16.628906 78.996094 16.941406 79.351562 17.570312 C 79.707031 18.195312 79.777344 19.085938 79.566406 20.234375 C 79.445312 20.894531 79.261719 21.46875 79.011719 21.957031 C 78.765625 22.445312 78.449219 22.855469 78.066406 23.191406 L 78.792969 24.074219 L 77.046875 24.8125 M 79.933594 21.214844 L 80.75 16.765625 L 82.761719 16.765625 L 81.910156 21.402344 C 81.875 21.605469 81.882812 21.753906 81.941406 21.847656 C 82 21.945312 82.109375 21.996094 82.265625 21.996094 C 82.425781 21.996094 82.554688 21.945312 82.648438 21.847656 C 82.742188 21.753906 82.808594 21.605469 82.84375 21.402344 L 83.695312 16.765625 L 85.714844 16.765625 L 84.898438 21.214844 C 84.730469 22.121094 84.410156 22.78125 83.933594 23.203125 C 83.457031 23.621094 82.789062 23.832031 81.929688 23.832031 C 81.074219 23.832031 80.484375 23.621094 80.164062 23.203125 C 79.84375 22.78125 79.769531 22.121094 79.933594 21.214844 M 85.273438 23.695312 L 86.542969 16.765625 L 88.558594 16.765625 L 87.289062 23.695312 L 85.273438 23.695312 " fill-opacity="1" fill-rule="nonzero"/></g></svg>