<?xml version="1.0" encoding="UTF-8"?>
<svg width="126px" height="33px" viewBox="0 0 126 33" version="1.1" xmlns="http://www.w3.org/2000/svg" xmlns:xlink="http://www.w3.org/1999/xlink">
    <!-- Generator: Sketch 55.2 (78181) - https://sketchapp.com -->
    <title>mercado livre</title>
    <desc>Created with Sketch.</desc>
    <g id="Symbols" stroke="none" stroke-width="1" fill="none" fill-rule="evenodd">
        <g id="Footer" transform="translate(-684.000000, -1313.000000)">
            <g id="Selos">
                <g transform="translate(0.000000, 571.000000)">
                    <g transform="translate(0.000000, 581.000000)">
                        <g id="Group-10" transform="translate(0.000000, 75.000000)">
                            <g id="Group-37" transform="translate(391.000000, 38.000000)">
                                <g id="mercado-livre" transform="translate(288.000000, 43.000000)">
                                    <path d="M45.88,25.408 L46.432,25.408 L46.432,30.504 L48.896,30.504 L48.896,31 L45.88,31 L45.88,25.408 Z M52.36,25.36 C52.893336,25.36 53.3826644,25.4866654 53.828,25.74 C54.2733356,25.9933346 54.6266654,26.3359978 54.888,26.768 C55.1493346,27.2000022 55.28,27.6746641 55.28,28.192 C55.28,28.7093359 55.1493346,29.1866645 54.888,29.624 C54.6266654,30.0613355 54.2733356,30.4079987 53.828,30.664 C53.3826644,30.9200013 52.893336,31.048 52.36,31.048 C51.826664,31.048 51.3373356,30.9200013 50.892,30.664 C50.4466644,30.4079987 50.0933346,30.0613355 49.832,29.624 C49.5706654,29.1866645 49.44,28.7093359 49.44,28.192 C49.44,27.6746641 49.5706654,27.2000022 49.832,26.768 C50.0933346,26.3359978 50.4466644,25.9933346 50.892,25.74 C51.3373356,25.4866654 51.826664,25.36 52.36,25.36 Z M52.368,25.856 C51.9413312,25.856 51.5466685,25.959999 51.184,26.168 C50.8213315,26.376001 50.5333344,26.6586649 50.32,27.016 C50.1066656,27.3733351 50,27.7653312 50,28.192 C50,28.6186688 50.1066656,29.0133315 50.32,29.376 C50.5333344,29.7386685 50.8213315,30.0253323 51.184,30.236 C51.5466685,30.4466677 51.9413312,30.552 52.368,30.552 C52.7893354,30.552 53.1799982,30.4466677 53.54,30.236 C53.9000018,30.0253323 54.1866656,29.7386685 54.4,29.376 C54.6133344,29.0133315 54.72,28.6186688 54.72,28.192 C54.72,27.7653312 54.6133344,27.3733351 54.4,27.016 C54.1866656,26.6586649 53.9000018,26.376001 53.54,26.168 C53.1799982,25.959999 52.7893354,25.856 52.368,25.856 Z M58.416,29.352 C58.416,29.885336 58.278668,30.2973319 58.004,30.588 C57.729332,30.8786681 57.3466691,31.024 56.856,31.024 C56.5573318,31.024 56.2773346,30.9560007 56.016,30.82 C55.7546654,30.6839993 55.528001,30.4880013 55.336,30.232 L55.616,29.816 C55.7866675,30.0346678 55.9786656,30.2013328 56.192,30.316 C56.4053344,30.4306672 56.6239989,30.488 56.848,30.488 C57.173335,30.488 57.4226658,30.3893343 57.596,30.192 C57.7693342,29.9946657 57.856,29.7093352 57.856,29.336 L57.856,25.904 L55.84,25.904 L55.84,25.4 L58.416,25.4 L58.416,29.352 Z M64.056,31 L63.392,29.512 L60.288,29.512 L59.632,31 L59.04,31 L61.56,25.408 L62.136,25.408 L64.656,31 L64.056,31 Z M60.504,29.016 L63.176,29.016 L61.832,25.992 L60.504,29.016 Z M70.152,25.36 C70.685336,25.36 71.1746644,25.4866654 71.62,25.74 C72.0653356,25.9933346 72.4186654,26.3359978 72.68,26.768 C72.9413346,27.2000022 73.072,27.6746641 73.072,28.192 C73.072,28.7093359 72.9413346,29.1866645 72.68,29.624 C72.4186654,30.0613355 72.0653356,30.4079987 71.62,30.664 C71.1746644,30.9200013 70.685336,31.048 70.152,31.048 C69.618664,31.048 69.1293356,30.9200013 68.684,30.664 C68.2386644,30.4079987 67.8853346,30.0613355 67.624,29.624 C67.3626654,29.1866645 67.232,28.7093359 67.232,28.192 C67.232,27.6746641 67.3626654,27.2000022 67.624,26.768 C67.8853346,26.3359978 68.2386644,25.9933346 68.684,25.74 C69.1293356,25.4866654 69.618664,25.36 70.152,25.36 Z M70.16,25.856 C69.7333312,25.856 69.3386685,25.959999 68.976,26.168 C68.6133315,26.376001 68.3253344,26.6586649 68.112,27.016 C67.8986656,27.3733351 67.792,27.7653312 67.792,28.192 C67.792,28.6186688 67.8986656,29.0133315 68.112,29.376 C68.3253344,29.7386685 68.6133315,30.0253323 68.976,30.236 C69.3386685,30.4466677 69.7333312,30.552 70.16,30.552 C70.5813354,30.552 70.9719982,30.4466677 71.332,30.236 C71.6920018,30.0253323 71.9786656,29.7386685 72.192,29.376 C72.4053344,29.0133315 72.512,28.6186688 72.512,28.192 C72.512,27.7653312 72.4053344,27.3733351 72.192,27.016 C71.9786656,26.6586649 71.6920018,26.376001 71.332,26.168 C70.9719982,25.959999 70.5813354,25.856 70.16,25.856 Z M74.288,25.408 L77.792,25.408 L77.792,25.904 L74.84,25.904 L74.84,28.056 L77.472,28.056 L77.472,28.552 L74.84,28.552 L74.84,31 L74.288,31 L74.288,25.408 Z M78.768,25.408 L79.32,25.408 L79.32,31 L78.768,31 L78.768,25.408 Z M85.144,26.544 C84.9199989,26.3253322 84.6613348,26.1546673 84.368,26.032 C84.0746652,25.9093327 83.7706682,25.848 83.456,25.848 C83.0239978,25.848 82.6280018,25.951999 82.268,26.16 C81.9079982,26.368001 81.6226677,26.6519982 81.412,27.012 C81.2013323,27.3720018 81.096,27.7653312 81.096,28.192 C81.096,28.6186688 81.2013323,29.0106649 81.412,29.368 C81.6226677,29.7253351 81.9079982,30.0093323 82.268,30.22 C82.6280018,30.4306677 83.0239978,30.536 83.456,30.536 C83.7653349,30.536 84.0666652,30.4760006 84.36,30.356 C84.6533348,30.2359994 84.9146655,30.0693344 85.144,29.856 L85.48,30.216 C85.2026653,30.4720013 84.8853351,30.6746659 84.528,30.824 C84.1706649,30.9733341 83.8053352,31.048 83.432,31.048 C82.9039974,31.048 82.4186689,30.9200013 81.976,30.664 C81.5333311,30.4079987 81.182668,30.0613355 80.924,29.624 C80.665332,29.1866645 80.536,28.7093359 80.536,28.192 C80.536,27.6746641 80.6666654,27.2000022 80.928,26.768 C81.1893346,26.3359978 81.5426644,25.9933346 81.988,25.74 C82.4333356,25.4866654 82.9199974,25.36 83.448,25.36 C83.8266686,25.36 84.1919982,25.430666 84.544,25.572 C84.8960018,25.713334 85.205332,25.9093321 85.472,26.16 L85.144,26.544 Z M86.688,25.408 L87.24,25.408 L87.24,31 L86.688,31 L86.688,25.408 Z M93.176,31 L92.512,29.512 L89.408,29.512 L88.752,31 L88.16,31 L90.68,25.408 L91.256,25.408 L93.776,31 L93.176,31 Z M89.624,29.016 L92.296,29.016 L90.952,25.992 L89.624,29.016 Z M94.696,25.408 L95.248,25.408 L95.248,30.504 L97.712,30.504 L97.712,31 L94.696,31 L94.696,25.408 Z" id="LOJAOFICIAL" fill="#000000" fill-rule="nonzero"></path>
                                    <g id="Group-45">
                                        <path d="M18.0622805,35.9216812 C16.6686125,36.7609424 14.8584657,36.3115069 14.0192044,34.9178389 C13.8676362,34.6661463 13.7545757,34.3931942 13.6837772,34.1080457 C13.0924227,31.7263063 11.2327785,29.8666621 8.85103904,29.2753076 C7.27211963,28.8832828 6.30995146,27.2855168 6.70197628,25.7065974 C6.77277488,25.4214489 6.88583532,25.1484969 7.03740357,24.8968043 C8.30339695,22.7945095 8.30339695,20.1645753 7.03740357,18.0622805 C6.19814236,16.6686125 6.64757789,14.8584657 8.04124593,14.0192044 C8.29293852,13.8676362 8.56589057,13.7545757 8.85103904,13.6837772 C11.2327785,13.0924227 13.0924227,11.2327785 13.6837772,8.85103904 C14.075802,7.27211963 15.673568,6.30995146 17.2524874,6.70197628 C17.5376359,6.77277488 17.8105879,6.88583532 18.0622805,7.03740357 C20.1645753,8.30339695 22.7945095,8.30339695 24.8968043,7.03740357 C26.2904723,6.19814236 28.1006191,6.64757789 28.9398803,8.04124593 C29.0914486,8.29293852 29.204509,8.56589057 29.2753076,8.85103904 C29.8666621,11.2327785 31.7263063,13.0924227 34.1080457,13.6837772 C35.6869652,14.075802 36.6491333,15.673568 36.2571085,17.2524874 C36.1863099,17.5376359 36.0732495,17.8105879 35.9216812,18.0622805 C34.6556878,20.1645753 34.6556878,22.7945095 35.9216812,24.8968043 C36.7609424,26.2904723 36.3115069,28.1006191 34.9178389,28.9398803 C34.6661463,29.0914486 34.3931942,29.204509 34.1080457,29.2753076 C31.7263063,29.8666621 29.8666621,31.7263063 29.2753076,34.1080457 C28.8832828,35.6869652 27.2855168,36.6491333 25.7065974,36.2571085 C25.4214489,36.1863099 25.1484969,36.0732495 24.8968043,35.9216812 C22.7945095,34.6556878 20.1645753,34.6556878 18.0622805,35.9216812 Z" id="Star" fill="#00C4FF" transform="translate(21.479542, 21.479542) rotate(-22.000000) translate(-21.479542, -21.479542) "></path>
                                        <polygon id="Path-8" fill="#FFFFFF" fill-rule="nonzero" points="17.233416 19.423239 14.9336965 21.7470552 20.1756505 26.9336965 27.9336965 19.2575126 25.633977 16.9336965 20.1756505 22.3344273"></polygon>
                                    </g>
                                    <path d="M45.59,14.99 L47.82,14.99 L49.7,18.88 L51.57,14.99 L53.8,14.99 L53.8,22 L51.97,22 L51.97,17.84 L50.37,21.31 L49.02,21.31 L47.42,17.84 L47.42,22 L45.59,22 L45.59,14.99 Z M54.98,14.99 L60.71,14.99 L60.71,16.59 L57.06,16.59 L57.06,17.69 L60.37,17.69 L60.37,19.29 L57.06,19.29 L57.06,20.4 L60.81,20.4 L60.81,22 L54.98,22 L54.98,14.99 Z M65.92,22 L64.99,20.11 L63.89,20.11 L63.89,22 L61.81,22 L61.81,14.99 L65.08,14.99 C66.0200047,14.99 66.7483308,15.2066645 67.265,15.64 C67.7816692,16.0733355 68.04,16.6866627 68.04,17.48 C68.04,17.9933359 67.9383343,18.4383314 67.735,18.815 C67.5316657,19.1916685 67.2400019,19.49 66.86,19.71 L68.28,22 L65.92,22 Z M63.89,18.51 L65.08,18.51 C65.3933349,18.51 65.6349991,18.4266675 65.805,18.26 C65.9750009,18.0933325 66.06,17.8533349 66.06,17.54 C66.06,17.2333318 65.9750009,16.9983341 65.805,16.835 C65.6349991,16.6716659 65.3933349,16.59 65.08,16.59 L63.89,16.59 L63.89,18.51 Z M74.13,17.54 C73.9099989,17.2466652 73.6483348,17.0150008 73.345,16.845 C73.0416652,16.6749991 72.7466681,16.59 72.46,16.59 C72.1466651,16.59 71.8633346,16.6699992 71.61,16.83 C71.3566654,16.9900008 71.1566674,17.2116652 71.01,17.495 C70.8633326,17.7783347 70.79,18.0966649 70.79,18.45 C70.79,18.8033351 70.8633326,19.1216652 71.01,19.405 C71.1566674,19.6883347 71.3566654,19.9116658 71.61,20.075 C71.8633346,20.2383342 72.1466651,20.32 72.46,20.32 C72.726668,20.32 73.0116651,20.2466674 73.315,20.1 C73.6183348,19.9533326 73.8899988,19.7533346 74.13,19.5 L75.33,20.78 C74.9499981,21.1933354 74.4916693,21.5233321 73.955,21.77 C73.4183307,22.0166679 72.8866693,22.14 72.36,22.14 C71.66,22.14 71.0283362,21.9816682 70.465,21.665 C69.9016639,21.3483317 69.4600016,20.9100028 69.14,20.35 C68.8199984,19.7899972 68.66,19.1633368 68.66,18.47 C68.66,17.7899966 68.8233317,17.1750028 69.15,16.625 C69.4766683,16.0749973 69.9266638,15.6433349 70.5,15.33 C71.0733362,15.0166651 71.7166631,14.86 72.43,14.86 C72.9566693,14.86 73.4833307,14.9733322 74.01,15.2 C74.5366693,15.4266678 74.9766649,15.7299981 75.33,16.11 L74.13,17.54 Z M81,22 L80.59,20.88 L77.76,20.88 L77.34,22 L75.2,22 L78.19,14.99 L80.33,14.99 L83.22,22 L81,22 Z M78.34,19.36 L80.04,19.36 L79.2,17.07 L78.34,19.36 Z M86.8,14.99 C87.5466704,14.99 88.2049971,15.1349985 88.775,15.425 C89.3450029,15.7150014 89.7866651,16.1249974 90.1,16.655 C90.4133349,17.1850027 90.57,17.7966632 90.57,18.49 C90.57,19.1833368 90.4100016,19.796664 90.09,20.33 C89.7699984,20.863336 89.3200029,21.2749985 88.74,21.565 C88.1599971,21.8550014 87.4900038,22 86.73,22 L83.73,22 L83.73,14.99 L86.8,14.99 Z M86.86,20.37 C87.3333357,20.37 87.7166652,20.2000017 88.01,19.86 C88.3033348,19.5199983 88.45,19.0700028 88.45,18.51 C88.45,17.9499972 88.2933349,17.4966684 87.98,17.15 C87.6666651,16.8033316 87.2600025,16.63 86.76,16.63 L85.81,16.63 L85.81,20.37 L86.86,20.37 Z M94.71,14.86 C95.4300036,14.86 96.0816638,15.0166651 96.665,15.33 C97.2483363,15.6433349 97.7049984,16.0749973 98.035,16.625 C98.3650016,17.1750028 98.53,17.7933299 98.53,18.48 C98.53,19.1733368 98.3650016,19.7983305 98.035,20.355 C97.7049984,20.9116694 97.2483363,21.3483317 96.665,21.665 C96.0816638,21.9816682 95.4300036,22.14 94.71,22.14 C93.9833297,22.14 93.3300029,21.9816682 92.75,21.665 C92.1699971,21.3483317 91.7150017,20.9116694 91.385,20.355 C91.0549984,19.7983305 90.89,19.1733368 90.89,18.48 C90.89,17.7933299 91.0549984,17.1750028 91.385,16.625 C91.7150017,16.0749973 92.1699971,15.6433349 92.75,15.33 C93.3300029,15.0166651 93.9833297,14.86 94.71,14.86 Z M94.74,16.59 C94.4333318,16.59 94.1483346,16.6733325 93.885,16.84 C93.6216654,17.0066675 93.4116675,17.2349986 93.255,17.525 C93.0983326,17.8150015 93.02,18.1366649 93.02,18.49 C93.02,18.8433351 93.0983326,19.1666652 93.255,19.46 C93.4116675,19.7533348 93.6216654,19.9849992 93.885,20.155 C94.1483346,20.3250009 94.4333318,20.41 94.74,20.41 C95.0400015,20.41 95.3183321,20.3250009 95.575,20.155 C95.8316679,19.9849992 96.0333326,19.7550015 96.18,19.465 C96.3266674,19.1749985 96.4,18.8500018 96.4,18.49 C96.4,18.1366649 96.3266674,17.8150015 96.18,17.525 C96.0333326,17.2349986 95.8333346,17.0066675 95.58,16.84 C95.3266654,16.6733325 95.0466682,16.59 94.74,16.59 Z M101.42,14.99 L103.5,14.99 L103.5,20.26 L106.44,20.26 L106.44,22 L101.42,22 L101.42,14.99 Z M107.16,14.99 L109.24,14.99 L109.24,22 L107.16,22 L107.16,14.99 Z M109.8,14.99 L112.02,14.99 L113.62,19.84 L115.22,14.99 L117.35,14.99 L114.64,22 L112.48,22 L109.8,14.99 Z M122.01,22 L121.08,20.11 L119.98,20.11 L119.98,22 L117.9,22 L117.9,14.99 L121.17,14.99 C122.110005,14.99 122.838331,15.2066645 123.355,15.64 C123.871669,16.0733355 124.13,16.6866627 124.13,17.48 C124.13,17.9933359 124.028334,18.4383314 123.825,18.815 C123.621666,19.1916685 123.330002,19.49 122.95,19.71 L124.37,22 L122.01,22 Z M119.98,18.51 L121.17,18.51 C121.483335,18.51 121.724999,18.4266675 121.895,18.26 C122.065001,18.0933325 122.15,17.8533349 122.15,17.54 C122.15,17.2333318 122.065001,16.9983341 121.895,16.835 C121.724999,16.6716659 121.483335,16.59 121.17,16.59 L119.98,16.59 L119.98,18.51 Z M125.15,14.99 L130.88,14.99 L130.88,16.59 L127.23,16.59 L127.23,17.69 L130.54,17.69 L130.54,19.29 L127.23,19.29 L127.23,20.4 L130.98,20.4 L130.98,22 L125.15,22 L125.15,14.99 Z" id="MERCADOLIVRE" fill="#000000" fill-rule="nonzero"></path>
                                </g>
                            </g>
                        </g>
                    </g>
                </g>
            </g>
        </g>
    </g>
</svg>