<?xml version="1.0" encoding="UTF-8"?>
<svg width="118px" height="33px" viewBox="0 0 118 33" version="1.1" xmlns="http://www.w3.org/2000/svg" xmlns:xlink="http://www.w3.org/1999/xlink">
    <!-- Generator: Sketch 55.2 (78181) - https://sketchapp.com -->
    <title>correrios</title>
    <desc>Created with Sketch.</desc>
    <g id="Symbols" stroke="none" stroke-width="1" fill="none" fill-rule="evenodd">
        <g id="Footer" transform="translate(-846.000000, -1313.000000)">
            <g id="Selos">
                <g transform="translate(0.000000, 571.000000)">
                    <g transform="translate(0.000000, 581.000000)">
                        <g id="Group-10" transform="translate(0.000000, 75.000000)">
                            <g id="Group-37" transform="translate(391.000000, 38.000000)">
                                <g id="correrios" transform="translate(455.500000, 48.000000)">
                                    <path d="M44.944,20.408 C45.6373368,20.408 46.1733314,20.5693317 46.552,20.892 C46.9306686,21.2146683 47.12,21.671997 47.12,22.264 C47.12,22.8773364 46.9306686,23.3519983 46.552,23.688 C46.1733314,24.0240017 45.6373368,24.192 44.944,24.192 L43.432,24.192 L43.432,26 L42.88,26 L42.88,20.408 L44.944,20.408 Z M44.92,23.696 C45.453336,23.696 45.8653319,23.5746679 46.156,23.332 C46.4466681,23.0893321 46.592,22.738669 46.592,22.28 C46.592,21.8319978 46.4480014,21.4906678 46.16,21.256 C45.8719986,21.0213322 45.4586694,20.904 44.92,20.904 L43.432,20.904 L43.432,23.696 L44.92,23.696 Z M52.104,26 L51.44,24.512 L48.336,24.512 L47.68,26 L47.088,26 L49.608,20.408 L50.184,20.408 L52.704,26 L52.104,26 Z M48.552,24.016 L51.224,24.016 L49.88,20.992 L48.552,24.016 Z M57.312,26 L56.104,24.176 C55.9333325,24.1866667 55.8026671,24.192 55.712,24.192 L54.176,24.192 L54.176,26 L53.624,26 L53.624,20.408 L55.712,20.408 C56.4106702,20.408 56.9506648,20.5693317 57.332,20.892 C57.7133352,21.2146683 57.904,21.671997 57.904,22.264 C57.904,22.7280023 57.7920011,23.1146651 57.568,23.424 C57.3439989,23.7333349 57.0240021,23.9493327 56.608,24.072 L57.952,26 L57.312,26 Z M55.712,23.696 C56.245336,23.696 56.6559986,23.5746679 56.944,23.332 C57.2320014,23.0893321 57.376,22.738669 57.376,22.28 C57.376,21.8319978 57.2320014,21.4906678 56.944,21.256 C56.6559986,21.0213322 56.245336,20.904 55.712,20.904 L54.176,20.904 L54.176,23.696 L55.712,23.696 Z M63.472,21.544 C63.2479989,21.3253322 62.9893348,21.1546673 62.696,21.032 C62.4026652,20.9093327 62.0986682,20.848 61.784,20.848 C61.3519978,20.848 60.9560018,20.951999 60.596,21.16 C60.2359982,21.368001 59.9506677,21.6519982 59.74,22.012 C59.5293323,22.3720018 59.424,22.7653312 59.424,23.192 C59.424,23.6186688 59.5293323,24.0106649 59.74,24.368 C59.9506677,24.7253351 60.2359982,25.0093323 60.596,25.22 C60.9560018,25.4306677 61.3519978,25.536 61.784,25.536 C62.0933349,25.536 62.3946652,25.4760006 62.688,25.356 C62.9813348,25.2359994 63.2426655,25.0693344 63.472,24.856 L63.808,25.216 C63.5306653,25.4720013 63.2133351,25.6746659 62.856,25.824 C62.4986649,25.9733341 62.1333352,26.048 61.76,26.048 C61.2319974,26.048 60.7466689,25.9200013 60.304,25.664 C59.8613311,25.4079987 59.510668,25.0613355 59.252,24.624 C58.993332,24.1866645 58.864,23.7093359 58.864,23.192 C58.864,22.6746641 58.9946654,22.2000022 59.256,21.768 C59.5173346,21.3359978 59.8706644,20.9933346 60.316,20.74 C60.7613356,20.4866654 61.2479974,20.36 61.776,20.36 C62.1546686,20.36 62.5199982,20.430666 62.872,20.572 C63.2240018,20.713334 63.533332,20.9093321 63.8,21.16 L63.472,21.544 Z M65.016,20.408 L68.76,20.408 L68.76,20.904 L65.568,20.904 L65.568,22.904 L68.424,22.904 L68.424,23.4 L65.568,23.4 L65.568,25.504 L68.864,25.504 L68.864,26 L65.016,26 L65.016,20.408 Z M70.216,20.408 L70.768,20.408 L70.768,26 L70.216,26 L70.216,20.408 Z M76.216,26 L75.008,24.176 C74.8373325,24.1866667 74.7066671,24.192 74.616,24.192 L73.08,24.192 L73.08,26 L72.528,26 L72.528,20.408 L74.616,20.408 C75.3146702,20.408 75.8546648,20.5693317 76.236,20.892 C76.6173352,21.2146683 76.808,21.671997 76.808,22.264 C76.808,22.7280023 76.6960011,23.1146651 76.472,23.424 C76.2479989,23.7333349 75.9280021,23.9493327 75.512,24.072 L76.856,26 L76.216,26 Z M74.616,23.696 C75.149336,23.696 75.5599986,23.5746679 75.848,23.332 C76.1360014,23.0893321 76.28,22.738669 76.28,22.28 C76.28,21.8319978 76.1360014,21.4906678 75.848,21.256 C75.5599986,21.0213322 75.149336,20.904 74.616,20.904 L73.08,20.904 L73.08,23.696 L74.616,23.696 Z M80.688,20.36 C81.221336,20.36 81.7106644,20.4866654 82.156,20.74 C82.6013356,20.9933346 82.9546654,21.3359978 83.216,21.768 C83.4773346,22.2000022 83.608,22.6746641 83.608,23.192 C83.608,23.7093359 83.4773346,24.1866645 83.216,24.624 C82.9546654,25.0613355 82.6013356,25.4079987 82.156,25.664 C81.7106644,25.9200013 81.221336,26.048 80.688,26.048 C80.154664,26.048 79.6653356,25.9200013 79.22,25.664 C78.7746644,25.4079987 78.4213346,25.0613355 78.16,24.624 C77.8986654,24.1866645 77.768,23.7093359 77.768,23.192 C77.768,22.6746641 77.8986654,22.2000022 78.16,21.768 C78.4213346,21.3359978 78.7746644,20.9933346 79.22,20.74 C79.6653356,20.4866654 80.154664,20.36 80.688,20.36 Z M80.696,20.856 C80.2693312,20.856 79.8746685,20.959999 79.512,21.168 C79.1493315,21.376001 78.8613344,21.6586649 78.648,22.016 C78.4346656,22.3733351 78.328,22.7653312 78.328,23.192 C78.328,23.6186688 78.4346656,24.0133315 78.648,24.376 C78.8613344,24.7386685 79.1493315,25.0253323 79.512,25.236 C79.8746685,25.4466677 80.2693312,25.552 80.696,25.552 C81.1173354,25.552 81.5079982,25.4466677 81.868,25.236 C82.2280018,25.0253323 82.5146656,24.7386685 82.728,24.376 C82.9413344,24.0133315 83.048,23.6186688 83.048,23.192 C83.048,22.7653312 82.9413344,22.3733351 82.728,22.016 C82.5146656,21.6586649 82.2280018,21.376001 81.868,21.168 C81.5079982,20.959999 81.1173354,20.856 80.696,20.856 Z M89.4,20.36 C89.933336,20.36 90.4226644,20.4866654 90.868,20.74 C91.3133356,20.9933346 91.6666654,21.3359978 91.928,21.768 C92.1893346,22.2000022 92.32,22.6746641 92.32,23.192 C92.32,23.7093359 92.1893346,24.1866645 91.928,24.624 C91.6666654,25.0613355 91.3133356,25.4079987 90.868,25.664 C90.4226644,25.9200013 89.933336,26.048 89.4,26.048 C88.866664,26.048 88.3773356,25.9200013 87.932,25.664 C87.4866644,25.4079987 87.1333346,25.0613355 86.872,24.624 C86.6106654,24.1866645 86.48,23.7093359 86.48,23.192 C86.48,22.6746641 86.6106654,22.2000022 86.872,21.768 C87.1333346,21.3359978 87.4866644,20.9933346 87.932,20.74 C88.3773356,20.4866654 88.866664,20.36 89.4,20.36 Z M89.408,20.856 C88.9813312,20.856 88.5866685,20.959999 88.224,21.168 C87.8613315,21.376001 87.5733344,21.6586649 87.36,22.016 C87.1466656,22.3733351 87.04,22.7653312 87.04,23.192 C87.04,23.6186688 87.1466656,24.0133315 87.36,24.376 C87.5733344,24.7386685 87.8613315,25.0253323 88.224,25.236 C88.5866685,25.4466677 88.9813312,25.552 89.408,25.552 C89.8293354,25.552 90.2199982,25.4466677 90.58,25.236 C90.9400018,25.0253323 91.2266656,24.7386685 91.44,24.376 C91.6533344,24.0133315 91.76,23.6186688 91.76,23.192 C91.76,22.7653312 91.6533344,22.3733351 91.44,22.016 C91.2266656,21.6586649 90.9400018,21.376001 90.58,21.168 C90.2199982,20.959999 89.8293354,20.856 89.408,20.856 Z M93.536,20.408 L97.04,20.408 L97.04,20.904 L94.088,20.904 L94.088,23.056 L96.72,23.056 L96.72,23.552 L94.088,23.552 L94.088,26 L93.536,26 L93.536,20.408 Z M98.016,20.408 L98.568,20.408 L98.568,26 L98.016,26 L98.016,20.408 Z M104.392,21.544 C104.167999,21.3253322 103.909335,21.1546673 103.616,21.032 C103.322665,20.9093327 103.018668,20.848 102.704,20.848 C102.271998,20.848 101.876002,20.951999 101.516,21.16 C101.155998,21.368001 100.870668,21.6519982 100.66,22.012 C100.449332,22.3720018 100.344,22.7653312 100.344,23.192 C100.344,23.6186688 100.449332,24.0106649 100.66,24.368 C100.870668,24.7253351 101.155998,25.0093323 101.516,25.22 C101.876002,25.4306677 102.271998,25.536 102.704,25.536 C103.013335,25.536 103.314665,25.4760006 103.608,25.356 C103.901335,25.2359994 104.162666,25.0693344 104.392,24.856 L104.728,25.216 C104.450665,25.4720013 104.133335,25.6746659 103.776,25.824 C103.418665,25.9733341 103.053335,26.048 102.68,26.048 C102.151997,26.048 101.666669,25.9200013 101.224,25.664 C100.781331,25.4079987 100.430668,25.0613355 100.172,24.624 C99.913332,24.1866645 99.784,23.7093359 99.784,23.192 C99.784,22.6746641 99.9146654,22.2000022 100.176,21.768 C100.437335,21.3359978 100.790664,20.9933346 101.236,20.74 C101.681336,20.4866654 102.167997,20.36 102.696,20.36 C103.074669,20.36 103.439998,20.430666 103.792,20.572 C104.144002,20.713334 104.453332,20.9093321 104.72,21.16 L104.392,21.544 Z M105.936,20.408 L106.488,20.408 L106.488,26 L105.936,26 L105.936,20.408 Z M112.424,26 L111.76,24.512 L108.656,24.512 L108,26 L107.408,26 L109.928,20.408 L110.504,20.408 L113.024,26 L112.424,26 Z M108.872,24.016 L111.544,24.016 L110.2,20.992 L108.872,24.016 Z M113.944,20.408 L114.496,20.408 L114.496,25.504 L116.96,25.504 L116.96,26 L113.944,26 L113.944,20.408 Z" id="PARCEIROOFICIAL" fill="#000000" fill-rule="nonzero"></path>
                                    <path d="M47.66,12.54 C47.4399989,12.2466652 47.1783348,12.0150008 46.875,11.845 C46.5716652,11.6749991 46.2766681,11.59 45.99,11.59 C45.6766651,11.59 45.3933346,11.6699992 45.14,11.83 C44.8866654,11.9900008 44.6866674,12.2116652 44.54,12.495 C44.3933326,12.7783347 44.32,13.0966649 44.32,13.45 C44.32,13.8033351 44.3933326,14.1216652 44.54,14.405 C44.6866674,14.6883347 44.8866654,14.9116659 45.14,15.075 C45.3933346,15.2383342 45.6766651,15.32 45.99,15.32 C46.256668,15.32 46.5416652,15.2466674 46.845,15.1 C47.1483348,14.9533326 47.4199988,14.7533346 47.66,14.5 L48.86,15.78 C48.4799981,16.1933354 48.0216694,16.5233321 47.485,16.77 C46.9483307,17.0166679 46.4166693,17.14 45.89,17.14 C45.19,17.14 44.5583362,16.9816682 43.995,16.665 C43.4316638,16.3483317 42.9900016,15.9100028 42.67,15.35 C42.3499984,14.7899972 42.19,14.1633368 42.19,13.47 C42.19,12.7899966 42.3533317,12.1750028 42.68,11.625 C43.0066683,11.0749973 43.4566638,10.6433349 44.03,10.33 C44.6033362,10.0166651 45.2466631,9.86 45.96,9.86 C46.4866693,9.86 47.0133307,9.9733322 47.54,10.2 C48.0666693,10.4266678 48.5066649,10.7299981 48.86,11.11 L47.66,12.54 Z M52.8,9.86 C53.5200036,9.86 54.1716638,10.0166651 54.755,10.33 C55.3383362,10.6433349 55.7949984,11.0749973 56.125,11.625 C56.4550016,12.1750028 56.62,12.7933299 56.62,13.48 C56.62,14.1733368 56.4550016,14.7983305 56.125,15.355 C55.7949984,15.9116694 55.3383362,16.3483317 54.755,16.665 C54.1716638,16.9816682 53.5200036,17.14 52.8,17.14 C52.0733297,17.14 51.4200029,16.9816682 50.84,16.665 C50.2599971,16.3483317 49.8050017,15.9116694 49.475,15.355 C49.1449984,14.7983305 48.98,14.1733368 48.98,13.48 C48.98,12.7933299 49.1449984,12.1750028 49.475,11.625 C49.8050017,11.0749973 50.2599971,10.6433349 50.84,10.33 C51.4200029,10.0166651 52.0733297,9.86 52.8,9.86 Z M52.83,11.59 C52.5233318,11.59 52.2383346,11.6733325 51.975,11.84 C51.7116654,12.0066675 51.5016674,12.2349986 51.345,12.525 C51.1883325,12.8150015 51.11,13.1366649 51.11,13.49 C51.11,13.8433351 51.1883325,14.1666652 51.345,14.46 C51.5016674,14.7533348 51.7116654,14.9849992 51.975,15.155 C52.2383346,15.3250009 52.5233318,15.41 52.83,15.41 C53.1300015,15.41 53.408332,15.3250009 53.665,15.155 C53.9216679,14.9849992 54.1233326,14.7550014 54.27,14.465 C54.4166674,14.1749985 54.49,13.8500018 54.49,13.49 C54.49,13.1366649 54.4166674,12.8150015 54.27,12.525 C54.1233326,12.2349986 53.9233346,12.0066675 53.67,11.84 C53.4166654,11.6733325 53.1366682,11.59 52.83,11.59 Z M61.51,17 L60.58,15.11 L59.48,15.11 L59.48,17 L57.4,17 L57.4,9.99 L60.67,9.99 C61.6100047,9.99 62.3383307,10.2066645 62.855,10.64 C63.3716692,11.0733355 63.63,11.6866627 63.63,12.48 C63.63,12.9933359 63.5283343,13.4383314 63.325,13.815 C63.1216656,14.1916685 62.8300019,14.49 62.45,14.71 L63.87,17 L61.51,17 Z M59.48,13.51 L60.67,13.51 C60.9833349,13.51 61.2249992,13.4266675 61.395,13.26 C61.5650009,13.0933325 61.65,12.8533349 61.65,12.54 C61.65,12.2333318 61.5650009,11.9983341 61.395,11.835 C61.2249992,11.6716659 60.9833349,11.59 60.67,11.59 L59.48,11.59 L59.48,13.51 Z M68.76,17 L67.83,15.11 L66.73,15.11 L66.73,17 L64.65,17 L64.65,9.99 L67.92,9.99 C68.8600047,9.99 69.5883307,10.2066645 70.105,10.64 C70.6216692,11.0733355 70.88,11.6866627 70.88,12.48 C70.88,12.9933359 70.7783343,13.4383314 70.575,13.815 C70.3716656,14.1916685 70.0800019,14.49 69.7,14.71 L71.12,17 L68.76,17 Z M66.73,13.51 L67.92,13.51 C68.2333349,13.51 68.4749992,13.4266675 68.645,13.26 C68.8150008,13.0933325 68.9,12.8533349 68.9,12.54 C68.9,12.2333318 68.8150008,11.9983341 68.645,11.835 C68.4749992,11.6716659 68.2333349,11.59 67.92,11.59 L66.73,11.59 L66.73,13.51 Z M71.9,9.99 L77.63,9.99 L77.63,11.59 L73.98,11.59 L73.98,12.69 L77.29,12.69 L77.29,14.29 L73.98,14.29 L73.98,15.4 L77.73,15.4 L77.73,17 L71.9,17 L71.9,9.99 Z M78.73,9.99 L80.81,9.99 L80.81,17 L78.73,17 L78.73,9.99 Z M85.41,9.86 C86.1300036,9.86 86.7816637,10.0166651 87.365,10.33 C87.9483362,10.6433349 88.4049983,11.0749973 88.735,11.625 C89.0650016,12.1750028 89.23,12.7933299 89.23,13.48 C89.23,14.1733368 89.0650016,14.7983305 88.735,15.355 C88.4049983,15.9116694 87.9483362,16.3483317 87.365,16.665 C86.7816637,16.9816682 86.1300036,17.14 85.41,17.14 C84.6833297,17.14 84.0300029,16.9816682 83.45,16.665 C82.8699971,16.3483317 82.4150016,15.9116694 82.085,15.355 C81.7549983,14.7983305 81.59,14.1733368 81.59,13.48 C81.59,12.7933299 81.7549983,12.1750028 82.085,11.625 C82.4150016,11.0749973 82.8699971,10.6433349 83.45,10.33 C84.0300029,10.0166651 84.6833297,9.86 85.41,9.86 Z M85.44,11.59 C85.1333318,11.59 84.8483346,11.6733325 84.585,11.84 C84.3216654,12.0066675 84.1116674,12.2349986 83.955,12.525 C83.7983325,12.8150015 83.72,13.1366649 83.72,13.49 C83.72,13.8433351 83.7983325,14.1666652 83.955,14.46 C84.1116674,14.7533348 84.3216654,14.9849992 84.585,15.155 C84.8483346,15.3250009 85.1333318,15.41 85.44,15.41 C85.7400015,15.41 86.018332,15.3250009 86.275,15.155 C86.5316679,14.9849992 86.7333326,14.7550014 86.88,14.465 C87.0266674,14.1749985 87.1,13.8500018 87.1,13.49 C87.1,13.1366649 87.0266674,12.8150015 86.88,12.525 C86.7333326,12.2349986 86.5333346,12.0066675 86.28,11.84 C86.0266654,11.6733325 85.7466682,11.59 85.44,11.59 Z M95.05,12.25 C94.6766648,12.0299989 94.2666689,11.8433341 93.82,11.69 C93.3733311,11.5366659 93.0066681,11.46 92.72,11.46 C92.54,11.46 92.3983339,11.4949997 92.295,11.565 C92.1916662,11.6350003 92.14,11.736666 92.14,11.87 C92.14,12.0566676 92.239999,12.2016661 92.44,12.305 C92.640001,12.4083338 92.9566645,12.5199994 93.39,12.64 C93.8833358,12.7800007 94.2899984,12.9216659 94.61,13.065 C94.9300016,13.208334 95.2083322,13.4266652 95.445,13.72 C95.6816678,14.0133348 95.8,14.3999976 95.8,14.88 C95.8,15.3666691 95.6716679,15.7783317 95.415,16.115 C95.158332,16.4516683 94.8116689,16.7033325 94.375,16.87 C93.9383311,17.0366675 93.4500027,17.12 92.91,17.12 C92.309997,17.12 91.7083364,17.0183343 91.105,16.815 C90.5016636,16.6116656 89.9800022,16.3333351 89.54,15.98 L90.32,14.4 C90.6733351,14.7066682 91.1049974,14.964999 91.615,15.175 C92.1250026,15.385001 92.5633315,15.49 92.93,15.49 C93.1566678,15.49 93.3333327,15.4466671 93.46,15.36 C93.5866673,15.2733329 93.65,15.1500008 93.65,14.99 C93.65,14.7966657 93.5466677,14.6483339 93.34,14.545 C93.1333323,14.4416661 92.8133355,14.3333339 92.38,14.22 C91.8933309,14.0933327 91.4900016,13.9616673 91.17,13.825 C90.8499984,13.6883326 90.5733345,13.4766681 90.34,13.19 C90.1066655,12.9033319 89.99,12.526669 89.99,12.06 C89.99,11.6066644 90.1099988,11.2116684 90.35,10.875 C90.5900012,10.5383316 90.9283312,10.2800009 91.365,10.1 C91.8016688,9.9199991 92.3099971,9.83 92.89,9.83 C93.4166693,9.83 93.9399974,9.90499925 94.46,10.055 C94.9800026,10.2050007 95.4333314,10.4033321 95.82,10.65 L95.05,12.25 Z" id="CORREIOS" fill="#000000" fill-rule="nonzero"></path>
                                    <path d="M16.5,33 C7.38730163,33 0,25.6126984 0,16.5 C0,7.38730163 7.38730163,0 16.5,0 C25.6126984,0 33,7.38730163 33,16.5 C33,25.6126984 25.6126984,33 16.5,33 Z M15.4925537,9 L19.3092041,13.9244385 L15.4925537,18.9361572 L22.1637264,18.9361572 C22.4543811,18.9361572 22.7306541,18.8096978 22.920611,18.5897057 L26.3469343,14.6216271 C26.6710881,14.2462195 26.6710881,13.6899377 26.3469343,13.3145302 L22.920611,9.34645155 C22.7306541,9.12645946 22.4543811,9 22.1637264,9 L15.4925537,9 Z M17.9187012,14 L11.2475285,14 C10.9568738,14 10.6806008,14.1264595 10.4906438,14.3464516 L7.06432054,18.3145302 C6.74016679,18.6899377 6.74016679,19.2462195 7.06432054,19.6216271 L10.4906438,23.5897057 C10.6806008,23.8096978 10.9568738,23.9361572 11.2475285,23.9361572 L17.9187012,23.9361572 L14.1020508,18.9244385 L17.9187012,14 Z" id="Combined-Shape" fill="#0081C8"></path>
                                </g>
                            </g>
                        </g>
                    </g>
                </g>
            </g>
        </g>
    </g>
</svg>